<svg width="150" height="150" viewBox="0 0 150 150" fill="none" xmlns="http://www.w3.org/2000/svg">
<g id="vuesax/bold/add-square">
<g id="vuesax/bold/add-square_2">
<g id="add-square">
<path id="Vector" d="M101.188 12.5H48.8125C26.0625 12.5 12.5 26.0625 12.5 48.8125V101.125C12.5 123.938 26.0625 137.5 48.8125 137.5H101.125C123.875 137.5 137.438 123.938 137.438 101.188V48.8125C137.5 26.0625 123.938 12.5 101.188 12.5ZM100 79.6875H79.6875V100C79.6875 102.562 77.5625 104.688 75 104.688C72.4375 104.688 70.3125 102.562 70.3125 100V79.6875H50C47.4375 79.6875 45.3125 77.5625 45.3125 75C45.3125 72.4375 47.4375 70.3125 50 70.3125H70.3125V50C70.3125 47.4375 72.4375 45.3125 75 45.3125C77.5625 45.3125 79.6875 47.4375 79.6875 50V70.3125H100C102.562 70.3125 104.688 72.4375 104.688 75C104.688 77.5625 102.562 79.6875 100 79.6875Z" fill="#3D5088"/>
</g>
</g>
</g>
</svg>
