<svg width="48" height="48" viewBox="0 0 48 48" fill="none" xmlns="http://www.w3.org/2000/svg">
<circle cx="24" cy="24" r="24" fill="#DFAA53"/>
<path d="M18.7602 34H29.2402C32.0002 34 33.1002 32.31 33.2302 30.25L33.7502 21.99C33.8902 19.83 32.1702 18 30.0002 18C29.3902 18 28.8302 17.65 28.5502 17.11L27.8302 15.66C27.3702 14.75 26.1702 14 25.1502 14H22.8602C21.8302 14 20.6302 14.75 20.1702 15.66L19.4502 17.11C19.1702 17.65 18.6102 18 18.0002 18C15.8302 18 14.1102 19.83 14.2502 21.99L14.7702 30.25C14.8902 32.31 16.0002 34 18.7602 34Z" stroke="white" stroke-width="1.5" stroke-linecap="round" stroke-linejoin="round"/>
<path d="M22.5 20H25.5" stroke="white" stroke-width="1.5" stroke-linecap="round" stroke-linejoin="round"/>
<path d="M24 30C25.79 30 27.25 28.54 27.25 26.75C27.25 24.96 25.79 23.5 24 23.5C22.21 23.5 20.75 24.96 20.75 26.75C20.75 28.54 22.21 30 24 30Z" stroke="white" stroke-width="1.5" stroke-linecap="round" stroke-linejoin="round"/>
</svg>
