<svg width="28" height="28" viewBox="0 0 28 28" fill="none" xmlns="http://www.w3.org/2000/svg">
<g id="vuesax/bold/danger" filter="url(#filter0_d_1_3819)">
<g id="vuesax/bold/danger_2">
<g id="danger">
<path id="Vector" d="M22.1331 14.2667L16.7997 4.66669C16.0831 3.37502 15.0914 2.66669 13.9997 2.66669C12.9081 2.66669 11.9164 3.37502 11.1997 4.66669L5.8664 14.2667C5.1914 15.4917 5.1164 16.6667 5.65807 17.5917C6.19974 18.5167 7.2664 19.025 8.6664 19.025H19.3331C20.7331 19.025 21.7997 18.5167 22.3414 17.5917C22.8831 16.6667 22.8081 15.4834 22.1331 14.2667ZM13.3747 8.50002C13.3747 8.15835 13.6581 7.87502 13.9997 7.87502C14.3414 7.87502 14.6247 8.15835 14.6247 8.50002V12.6667C14.6247 13.0084 14.3414 13.2917 13.9997 13.2917C13.6581 13.2917 13.3747 13.0084 13.3747 12.6667V8.50002ZM14.5914 15.7584C14.5497 15.7917 14.5081 15.825 14.4664 15.8584C14.4164 15.8917 14.3664 15.9167 14.3164 15.9334C14.2664 15.9584 14.2164 15.975 14.1581 15.9834C14.1081 15.9917 14.0497 16 13.9997 16C13.9497 16 13.8914 15.9917 13.8331 15.9834C13.7831 15.975 13.7331 15.9584 13.6831 15.9334C13.6331 15.9167 13.5831 15.8917 13.5331 15.8584C13.4914 15.825 13.4497 15.7917 13.4081 15.7584C13.2581 15.6 13.1664 15.3834 13.1664 15.1667C13.1664 14.95 13.2581 14.7334 13.4081 14.575C13.4497 14.5417 13.4914 14.5084 13.5331 14.475C13.5831 14.4417 13.6331 14.4167 13.6831 14.4C13.7331 14.375 13.7831 14.3584 13.8331 14.35C13.9414 14.325 14.0581 14.325 14.1581 14.35C14.2164 14.3584 14.2664 14.375 14.3164 14.4C14.3664 14.4167 14.4164 14.4417 14.4664 14.475C14.5081 14.5084 14.5497 14.5417 14.5914 14.575C14.7414 14.7334 14.8331 14.95 14.8331 15.1667C14.8331 15.3834 14.7414 15.6 14.5914 15.7584Z" fill="#FF9E2D"/>
</g>
</g>
</g>
<defs>
<filter id="filter0_d_1_3819" x="-1" y="-1" width="30" height="30" filterUnits="userSpaceOnUse" color-interpolation-filters="sRGB">
<feFlood flood-opacity="0" result="BackgroundImageFix"/>
<feColorMatrix in="SourceAlpha" type="matrix" values="0 0 0 0 0 0 0 0 0 0 0 0 0 0 0 0 0 0 127 0" result="hardAlpha"/>
<feOffset dy="3"/>
<feGaussianBlur stdDeviation="2.5"/>
<feComposite in2="hardAlpha" operator="out"/>
<feColorMatrix type="matrix" values="0 0 0 0 1 0 0 0 0 0.619608 0 0 0 0 0.176471 0 0 0 0.3 0"/>
<feBlend mode="normal" in2="BackgroundImageFix" result="effect1_dropShadow_1_3819"/>
<feBlend mode="normal" in="SourceGraphic" in2="effect1_dropShadow_1_3819" result="shape"/>
</filter>
</defs>
</svg>
