<svg width="24" height="24" viewBox="0 0 24 24" fill="none" xmlns="http://www.w3.org/2000/svg">
<circle cx="12" cy="12" r="12" fill="#DFAA53"/>
<path d="M14.9799 13.0265C14.8393 13.1628 14.7747 13.3599 14.8067 13.5532L15.2895 16.2251C15.3302 16.4516 15.2346 16.6807 15.0451 16.8116C14.8594 16.9474 14.6123 16.9637 14.4097 16.8551L12.0045 15.6006C11.9209 15.5561 11.828 15.5322 11.733 15.5294H11.5858C11.5347 15.537 11.4848 15.5533 11.4392 15.5783L9.03338 16.8388C8.91445 16.8985 8.77977 16.9197 8.64781 16.8985C8.32631 16.8377 8.1118 16.5314 8.16448 16.2083L8.64781 13.5364C8.67985 13.3414 8.61522 13.1432 8.47457 13.0047L6.51356 11.104C6.34956 10.9449 6.29253 10.7059 6.36748 10.4903C6.44025 10.2753 6.62598 10.1183 6.85026 10.083L9.5493 9.69149C9.75458 9.67031 9.93487 9.54541 10.0272 9.36076L11.2165 6.9224C11.2447 6.86809 11.2811 6.81813 11.3251 6.77577L11.374 6.73776C11.3995 6.70952 11.4288 6.68617 11.4614 6.66716L11.5206 6.64544L11.6129 6.60742H11.8416C12.0458 6.6286 12.2255 6.75079 12.3195 6.93326L13.5245 9.36076C13.6114 9.53835 13.7803 9.66162 13.9753 9.69149L16.6743 10.083C16.9024 10.1156 17.093 10.2731 17.1685 10.4903C17.2396 10.7081 17.1783 10.9471 17.011 11.104L14.9799 13.0265Z" fill="white"/>
</svg>
