<svg width="70" height="62" viewBox="0 0 70 62" fill="none" xmlns="http://www.w3.org/2000/svg">
<path d="M69.3875 28.7048L54.1744 2.29849C53.7754 1.60562 53.2029 1.02914 52.5134 0.626022C51.824 0.222909 51.0416 0.00712464 50.2434 0H19.7847C18.981 0.00140217 18.1918 0.214476 17.4961 0.617874C16.8004 1.02127 16.2227 1.60083 15.8209 2.29849L0.614431 28.7048C0.21191 29.4036 0 30.1963 0 31.0033C0 31.8102 0.21191 32.6029 0.614431 33.3018L15.8209 59.7015C16.2227 60.3992 16.8004 60.9787 17.4961 61.3821C18.1918 61.7855 18.981 61.9986 19.7847 62H50.2107C51.0088 61.9929 51.7912 61.7771 52.4807 61.374C53.1701 60.9709 53.7426 60.3944 54.1417 59.7015L69.3875 33.2952C69.7888 32.5972 70 31.8057 70 31C70 30.1943 69.7888 29.4028 69.3875 28.7048ZM64.5327 32.9668L51.4293 55.6365C51.0846 56.2349 50.589 56.7319 49.9922 57.0777C49.3954 57.4235 48.7183 57.6059 48.029 57.6066H21.9467C21.2562 57.6071 20.5778 57.4252 19.9798 57.0793C19.3817 56.7335 18.8851 56.2358 18.5398 55.6365L5.48888 32.9668C5.13997 32.3692 4.95607 31.6892 4.95607 30.9967C4.95607 30.3042 5.13997 29.6243 5.48888 29.0266L18.5398 6.36352C18.8851 5.76415 19.3817 5.26651 19.9798 4.92065C20.5778 4.5748 21.2562 4.39295 21.9467 4.39339H48.0552C48.7445 4.3941 49.4216 4.5765 50.0184 4.92229C50.6152 5.26809 51.1108 5.76512 51.4555 6.36352L64.5327 29.0332C64.8765 29.6314 65.0574 30.3096 65.0574 31C65.0574 31.6904 64.8765 32.3686 64.5327 32.9668Z" fill="#34A853"/>
<path d="M60.8766 32.2379L49.5422 51.9392C49.2503 52.4546 48.8247 52.8813 48.3105 53.1738C47.7897 53.4856 47.1939 53.6491 46.5874 53.6467H23.912C23.3054 53.6491 22.7097 53.4856 22.1889 53.1738C22.0336 53.0845 21.8866 52.9812 21.7499 52.8652C21.4348 52.6035 21.1686 52.2877 20.9637 51.9326L9.62933 32.2313C9.32967 31.7124 9.17188 31.1235 9.17188 30.5239C9.17188 29.9243 9.32967 29.3354 9.62933 28.8165L20.9637 9.11515C21.2664 8.60168 21.6976 8.17641 22.2148 7.88151C22.7319 7.58662 23.317 7.43234 23.912 7.43397H46.5808C47.1795 7.43387 47.7676 7.59158 48.2862 7.89127C48.8049 8.19096 49.2357 8.62209 49.5356 9.14142L60.87 28.8427C61.167 29.3587 61.3239 29.9437 61.3251 30.5394C61.3262 31.1352 61.1716 31.7208 60.8766 32.2379Z" fill="#34A853" stroke="white" stroke-miterlimit="10"/>
<path d="M60.8766 32.2379L49.5422 51.9392C49.2503 52.4546 48.8247 52.8813 48.3105 53.1738C47.7897 53.4856 47.1939 53.6491 46.5874 53.6467H23.912C23.3054 53.6491 22.7097 53.4856 22.1889 53.1738C22.0336 53.0845 21.8866 52.9812 21.7499 52.8652C21.4348 52.6035 21.1686 52.2877 20.9637 51.9326L9.62933 32.2313C9.32967 31.7124 9.17188 31.1235 9.17188 30.5239C9.17188 29.9243 9.32967 29.3354 9.62933 28.8164L20.9637 9.11515C21.2664 8.60168 21.6976 8.17641 22.2148 7.88151C22.7319 7.58662 23.317 7.43234 23.912 7.43397H46.5808C47.1795 7.43387 47.7676 7.59158 48.2862 7.89127C48.8049 8.19096 49.2357 8.62209 49.5356 9.14142L60.87 28.8427C61.167 29.3587 61.3239 29.9437 61.3251 30.5394C61.3262 31.1352 61.1716 31.7208 60.8766 32.2379V32.2379Z" stroke="white" stroke-miterlimit="10"/>
<path d="M35.8136 41.8772C41.7826 41.8772 46.6664 36.9825 46.6664 31C46.6664 25.0176 41.7826 20.1228 35.8136 20.1228C29.8447 20.1228 24.9609 25.0176 24.9609 31C24.9609 36.9825 29.8447 41.8772 35.8136 41.8772Z" stroke="white" stroke-width="2" stroke-linecap="round" stroke-linejoin="round"/>
<path d="M31.2012 31L34.2725 34.0783L40.426 27.9218" stroke="white" stroke-width="2" stroke-linecap="round" stroke-linejoin="round"/>
</svg>
