<svg width="48" height="48" viewBox="0 0 48 48" fill="none" xmlns="http://www.w3.org/2000/svg">
<circle cx="24" cy="24" r="24" fill="#FFE9CF"/>
<path d="M31.5 30.0037H16.5C16.1023 30.0033 15.721 29.8452 15.4398 29.5639C15.1586 29.2827 15.0004 28.9014 15 28.5037V18.0037C15.0004 17.606 15.1586 17.2247 15.4398 16.9435C15.721 16.6623 16.1023 16.5041 16.5 16.5037H31.5C31.8977 16.5041 32.279 16.6623 32.5602 16.9435C32.8414 17.2247 32.9996 17.606 33 18.0037V28.5037C32.9994 28.9014 32.8412 29.2826 32.56 29.5637C32.2788 29.8449 31.8976 30.0031 31.5 30.0037ZM16.5 18.0037V28.5037H31.5V18.0037H16.5Z" fill="#3D5088"/>
<path d="M13.5 31.5037H34.5V33.0037H13.5V31.5037Z" fill="#3D5088"/>
</svg>
