<svg width="188" height="60" viewBox="0 0 188 60" fill="none" xmlns="http://www.w3.org/2000/svg">
<path fill-rule="evenodd" clip-rule="evenodd" d="M70.3376 42.7642H70.4985V43.6124H69.493V39.5734H68.8997C68.8221 39.571 68.7448 39.585 68.6729 39.6146C68.601 39.6442 68.5361 39.6886 68.4824 39.7451C68.4297 39.7982 68.3879 39.8612 68.3595 39.9305C68.331 39.9998 68.3164 40.074 68.3165 40.149V42.7642H69.1461L68.8394 43.6124H67.4819V40.149C67.4826 39.9614 67.52 39.7757 67.5922 39.6026C67.6643 39.4295 67.7696 39.2724 67.9022 39.1402C68.0348 39.008 68.192 38.9033 68.3649 38.8321C68.5378 38.7609 68.7229 38.7246 68.9098 38.7253H70.3326L70.3376 42.7642Z" fill="#5976B7"/>
<path fill-rule="evenodd" clip-rule="evenodd" d="M72.9919 42.7793H73.0975V43.6124H70.3223V42.7793H72.1674V37.352L72.9919 37.044V42.7793Z" fill="#5976B7"/>
<path fill-rule="evenodd" clip-rule="evenodd" d="M74.7419 37.3369L75.5815 37.0289V43.6124H72.8364V42.7642H74.7419V37.3369Z" fill="#5976B7"/>
<path fill-rule="evenodd" clip-rule="evenodd" d="M77.4418 37.044V43.6124H76.5972V37.3368L77.4418 37.044Z" fill="#5976B7"/>
<path fill-rule="evenodd" clip-rule="evenodd" d="M84.7569 40.5327V43.6124H82.3135C81.9942 43.6117 81.6781 43.5478 81.3834 43.4244C81.0887 43.3009 80.8212 43.1202 80.5961 42.8928C80.371 42.6654 80.1928 42.3956 80.0716 42.0989C79.9505 41.8022 79.8888 41.4844 79.8902 41.1638V39.0332L80.7298 38.7253V41.1638C80.7261 41.3752 80.7658 41.5851 80.8462 41.7804C80.9266 41.9758 81.0462 42.1526 81.1974 42.2997C81.3415 42.4502 81.515 42.5692 81.7071 42.6491C81.8992 42.729 82.1056 42.7682 82.3135 42.7642H83.9173V38.7253H84.7569V40.5327ZM82.8967 45.1321L82.2984 44.5262L82.8967 43.9406L83.4749 44.5262L82.8967 45.1321Z" fill="#5976B7"/>
<path fill-rule="evenodd" clip-rule="evenodd" d="M86.6019 42.7642V43.6124H85.6819V37.3368L86.5265 37.044V42.7642H86.6019Z" fill="#5976B7"/>
<path fill-rule="evenodd" clip-rule="evenodd" d="M89.4476 42.7643V43.6125H88.3717V43.0117C88.2343 43.1307 88.0843 43.234 87.9242 43.3197C87.6944 43.4405 87.4491 43.5288 87.1952 43.5822C87.0571 43.6029 86.9176 43.613 86.7779 43.6125H86.3857V42.7643H86.5869C86.7921 42.7623 86.9969 42.7471 87.2002 42.7189C87.5355 42.6241 87.8313 42.4229 88.0434 42.1453C88.2554 41.8678 88.3724 41.5288 88.3767 41.179V39.0333L89.2063 38.7253V42.7643H89.4476ZM89.3118 37.6399L88.7186 38.2407L88.1354 37.655L87.9544 37.8368L87.5421 38.2407L86.9438 37.6399L87.3159 37.2764L87.5421 37.0593L87.6477 37.1653L87.9544 37.4733L88.1354 37.6399L88.7186 37.0593L89.3118 37.6399Z" fill="#5976B7"/>
<path fill-rule="evenodd" clip-rule="evenodd" d="M91.0616 41.5929V40.1591C91.0592 39.9711 91.0949 39.7847 91.1667 39.611C91.2384 39.4374 91.3446 39.2803 91.4789 39.1493C91.6082 39.0127 91.7643 38.9044 91.9373 38.8314C92.1104 38.7584 92.2967 38.7223 92.4844 38.7252H94.1737C94.3129 38.7091 94.4415 38.6427 94.5357 38.5384C94.6322 38.4345 94.6845 38.2968 94.6815 38.1547V37.044H96.1043C96.2913 37.0433 96.4766 37.0799 96.6496 37.1514C96.8225 37.223 96.9796 37.3282 97.1119 37.461C97.2441 37.5938 97.3489 37.7516 97.4202 37.9252C97.4914 38.0989 97.5278 38.285 97.5271 38.4728V39.8915L96.6976 39.5987V38.4678C96.6997 38.3355 96.6552 38.2067 96.5719 38.1042C96.4986 38.0006 96.3891 37.9284 96.2652 37.9023C96.2142 37.8811 96.1594 37.8708 96.1043 37.872H95.5211V38.1648C95.5144 38.3374 95.4805 38.5078 95.4206 38.6697C95.3181 38.9222 95.1431 39.1384 94.9178 39.2907C94.696 39.4543 94.433 39.5522 94.1586 39.5734H92.4844C92.4068 39.5719 92.3298 39.5864 92.2581 39.6159C92.1863 39.6454 92.1213 39.6894 92.0671 39.7451C92.0105 39.7959 91.9651 39.8582 91.9339 39.9277C91.9028 39.9973 91.8865 40.0727 91.8861 40.149V40.7498H97.512V42.7692H97.5422V43.6174H89.2466V42.7692H96.6925V41.5879L91.0616 41.5929Z" fill="#5976B7"/>
<path fill-rule="evenodd" clip-rule="evenodd" d="M99.2416 37.3369L100.076 37.0289V43.6124H97.3311V42.7642H99.2416V37.3369Z" fill="#5976B7"/>
<path fill-rule="evenodd" clip-rule="evenodd" d="M103.178 37.3066H103.756V37.554H102.917V37.458C102.915 37.3639 102.933 37.2705 102.968 37.1833C103.003 37.096 103.055 37.0167 103.121 36.9499C103.187 36.8831 103.266 36.8303 103.352 36.7944C103.439 36.7586 103.532 36.7404 103.626 36.7411H103.847L103.756 36.9734H103.626C103.524 36.9731 103.425 37.0109 103.349 37.0794C103.269 37.1411 103.21 37.2256 103.178 37.3217V37.3066ZM109.397 38.7253V42.9712L108.568 42.6632V39.5734H107.97C107.893 39.572 107.817 39.5865 107.746 39.6161C107.675 39.6456 107.611 39.6895 107.557 39.7451C107.503 39.8002 107.46 39.8656 107.43 39.9375C107.401 40.0094 107.386 40.0864 107.386 40.1641V43.6124H104.938C104.296 43.6098 103.68 43.3527 103.225 42.897C102.771 42.4414 102.513 41.824 102.51 41.1789V38.7253H102.937C103.257 38.7203 103.574 38.7818 103.869 38.9061C104.164 39.0303 104.431 39.2146 104.651 39.4472C104.881 39.6719 105.063 39.9413 105.186 40.2391C105.309 40.5369 105.37 40.8567 105.365 41.1789V41.8908L104.536 41.5929V41.1789C104.54 40.8216 104.421 40.4738 104.199 40.1944C103.985 39.9199 103.689 39.7216 103.354 39.629V41.1789C103.354 41.3875 103.395 41.5941 103.475 41.7868C103.554 41.9794 103.671 42.1544 103.818 42.3017C103.965 42.449 104.14 42.5656 104.332 42.645C104.524 42.7244 104.73 42.7649 104.938 42.7642H106.542V40.1187C106.55 39.7464 106.702 39.392 106.967 39.1315C107.233 38.871 107.589 38.7252 107.96 38.7253H109.397Z" fill="#5976B7"/>
<path fill-rule="evenodd" clip-rule="evenodd" d="M111.524 38.7253V43.6982C111.527 43.8867 111.491 44.0736 111.418 44.2474C111.345 44.4211 111.238 44.5779 111.102 44.708C110.97 44.8409 110.813 44.9463 110.641 45.0183C110.468 45.0902 110.283 45.1271 110.096 45.127H109.85L110.081 44.2788C110.159 44.2807 110.237 44.2665 110.31 44.2369C110.383 44.2074 110.448 44.1633 110.503 44.1072C110.56 44.0543 110.604 43.99 110.633 43.9186C110.663 43.8472 110.677 43.7704 110.674 43.6932V39.0736L111.524 38.7253Z" fill="#5976B7"/>
<path fill-rule="evenodd" clip-rule="evenodd" d="M113.158 42.7642V43.6124H112.243V37.3368L113.088 37.044V42.7642H113.158Z" fill="#5976B7"/>
<path fill-rule="evenodd" clip-rule="evenodd" d="M115.602 41.3455H116.778V39.5886H116.155C116.004 39.5942 115.861 39.6595 115.757 39.7703C115.707 39.8224 115.667 39.884 115.64 39.9516C115.613 40.0192 115.6 40.0914 115.602 40.1641V41.3455ZM116.18 38.7253H117.623V43.6124H112.882V42.7642H116.778V42.1786H114.767V40.1187C114.775 39.7464 114.928 39.392 115.193 39.1315C115.458 38.871 115.814 38.7252 116.185 38.7253H116.18ZM115.602 38.2204L115.003 37.6246L115.602 37.039L116.18 37.6246L116.778 37.039L117.361 37.6246L116.778 38.2204L116.18 37.6347L115.602 38.2204Z" fill="#5976B7"/>
<path fill-rule="evenodd" clip-rule="evenodd" d="M124.923 45.132H122.479C121.836 45.1307 121.22 44.8732 120.766 44.416C120.311 43.9589 120.056 43.3394 120.056 42.6935V38.7404H120.132L120.896 39.0231V42.6834C120.894 42.8938 120.934 43.1025 121.014 43.2969C121.095 43.4912 121.213 43.6672 121.363 43.8143C121.507 43.9657 121.68 44.0856 121.872 44.1664C122.065 44.2472 122.271 44.2872 122.479 44.2838H124.083V38.7303H124.923V45.132ZM122.786 38.2254L122.208 37.6397L122.786 37.044L123.384 37.6397L122.786 38.2254Z" fill="#5976B7"/>
<path fill-rule="evenodd" clip-rule="evenodd" d="M126.708 40.2702V42.8804H127.869V39.6694H127.311C127.233 39.6679 127.156 39.6829 127.084 39.7133C127.012 39.7438 126.947 39.789 126.894 39.8461C126.839 39.9023 126.797 39.9687 126.768 40.0415C126.74 40.1143 126.726 40.192 126.728 40.2702H126.708ZM128.829 42.7946V43.6276H128.719V45.1422H125.863L126.17 44.294H127.884V43.6124H125.873V40.1642C125.87 39.9757 125.906 39.7887 125.979 39.6149C126.052 39.4411 126.159 39.2843 126.295 39.1544C126.427 39.021 126.583 38.9156 126.756 38.8445C126.929 38.7733 127.114 38.738 127.301 38.7404H128.729V42.7794L128.829 42.7946Z" fill="#5976B7"/>
<path fill-rule="evenodd" clip-rule="evenodd" d="M131.489 42.7642V43.6124H130.559V43.0116C130.421 43.1318 130.269 43.2352 130.106 43.3196C129.879 43.4411 129.635 43.5295 129.382 43.5821C129.244 43.6024 129.105 43.6125 128.965 43.6124H128.568V42.7642H128.774C128.978 42.762 129.181 42.7468 129.382 42.7188C129.716 42.6218 130.011 42.4201 130.223 42.143C130.434 41.8659 130.552 41.5281 130.559 41.1789V39.0332L131.388 38.7253V42.7642H131.489ZM129.604 45.1321L129.005 44.5262L129.604 43.9406L130.182 44.5111L130.765 43.9406L131.333 44.5262L130.75 45.127L130.182 44.5262L129.604 45.1321Z" fill="#5976B7"/>
<path fill-rule="evenodd" clip-rule="evenodd" d="M133.998 42.7793H134.103V43.6124H131.333V42.7793H133.178V37.352L133.998 37.044V42.7793Z" fill="#5976B7"/>
<path fill-rule="evenodd" clip-rule="evenodd" d="M137.869 42.7643V40.1491C137.87 40.0723 137.855 39.9962 137.825 39.9257C137.794 39.8553 137.75 39.792 137.693 39.7401C137.584 39.6338 137.438 39.5741 137.286 39.5735H136.693V42.7643H137.869ZM137.286 38.7253C137.474 38.7224 137.66 38.7585 137.833 38.8315C138.006 38.9045 138.162 39.0128 138.292 39.1494C138.426 39.2804 138.532 39.4375 138.604 39.6111C138.675 39.7847 138.711 39.9712 138.709 40.1592V43.6226H135.858V43.0117C135.53 43.3045 135.125 43.4971 134.692 43.567H134.566H134.405H133.902V42.7189H134.279C134.41 42.7089 134.539 42.6887 134.667 42.6583C134.986 42.5841 135.272 42.4075 135.483 42.1551C135.693 41.9028 135.816 41.5885 135.833 41.2598V38.6799L137.286 38.7253Z" fill="#5976B7"/>
<path fill-rule="evenodd" clip-rule="evenodd" d="M79.669 19.8402V28.5038H78.2763L78.1959 21.3397H77.14C77.0037 21.3395 76.8689 21.3672 76.7435 21.421C76.6182 21.4748 76.5051 21.5536 76.411 21.6527C76.3123 21.7498 76.2346 21.8662 76.1827 21.9948C76.1308 22.1233 76.1059 22.2612 76.1094 22.3999V28.5038H71.7856C70.6446 28.5025 69.5507 28.0467 68.7439 27.2365C67.9371 26.4264 67.4833 25.3279 67.4819 24.1821V19.8402H68.2361C68.7995 19.8356 69.3578 19.9471 69.8767 20.1676C70.3955 20.3882 70.8638 20.7132 71.2527 21.1226C71.6592 21.5198 71.9811 21.9959 72.1989 22.5218C72.4167 23.0477 72.5258 23.6126 72.5196 24.1821V25.4443L71.0465 24.9394V24.1922C71.0565 23.5631 70.8466 22.9503 70.4533 22.4605C70.077 21.9642 69.546 21.6087 68.945 21.4508V24.1872C68.9463 24.9353 69.2428 25.6523 69.7696 26.1813C70.2964 26.7103 71.0105 27.0081 71.7554 27.0094H74.5961V22.3191C74.6092 21.6584 74.8799 21.0292 75.3499 20.5667C75.8199 20.1042 76.4518 19.8451 77.1099 19.8453L79.669 19.8402Z" fill="#DCA638"/>
<path fill-rule="evenodd" clip-rule="evenodd" d="M84.2593 27.0043V27.0295H89.8953V22.3998C89.8982 22.2608 89.8724 22.1227 89.8196 21.9941C89.7669 21.8655 89.6882 21.7493 89.5886 21.6526C89.4951 21.5542 89.3828 21.4757 89.2584 21.4219C89.134 21.3681 89.0001 21.3401 88.8646 21.3396H87.8088V22.4554C87.7956 23.1161 87.525 23.7453 87.055 24.2078C86.585 24.6704 85.9531 24.9294 85.295 24.9293H84.2895V27.0043H84.2593ZM91.3935 26.974H91.6952V28.4886H79.3774V26.974H82.7611V19.8149H84.2694V23.4045H85.3503C85.6107 23.3901 85.8564 23.2785 86.0391 23.0915C86.2261 22.9086 86.3374 22.6616 86.3508 22.3998V19.8149H88.8646C89.5277 19.8266 90.1604 20.0963 90.6293 20.5672C91.0982 21.0381 91.3668 21.6734 91.3784 22.3393L91.3935 26.974Z" fill="#DCA638"/>
<path fill-rule="evenodd" clip-rule="evenodd" d="M95.9687 24.4648H98.0552V21.3396H96.9742C96.7088 21.3543 96.459 21.4698 96.2754 21.6628C96.0933 21.8525 95.9922 22.1061 95.9938 22.3696V24.4648H95.9687ZM96.9994 19.8149H99.5534V28.4785H91.1572V26.9639H98.0602V25.9542H94.4855V22.2989C94.4893 21.9708 94.5583 21.6467 94.6887 21.3459C94.8191 21.045 95.0082 20.7734 95.2447 20.547C95.4737 20.3128 95.7479 20.128 96.0504 20.0039C96.353 19.8797 96.6776 19.8189 97.0044 19.825L96.9994 19.8149ZM95.9687 18.9314L94.9129 17.8712L95.9687 16.8311L96.9994 17.8712L98.0552 16.8311L99.0909 17.8712L98.0552 18.9314L96.9994 17.8914L95.9687 18.9314Z" fill="#DCA638"/>
<path fill-rule="evenodd" clip-rule="evenodd" d="M101.821 15.5235H102.852V15.9628H101.343V15.7457C101.337 15.5774 101.368 15.4098 101.433 15.2547C101.498 15.0995 101.596 14.9604 101.72 14.847C101.837 14.7296 101.976 14.637 102.128 14.5745C102.281 14.5121 102.445 14.4811 102.61 14.4835H103.007L102.857 14.9278H102.63C102.45 14.9267 102.274 14.9832 102.128 15.0893C101.984 15.1973 101.879 15.3499 101.831 15.5235H101.821ZM103.038 26.974H104.913C104.775 26.3992 104.447 25.8883 103.983 25.525C103.516 25.8886 103.183 26.3986 103.038 26.974ZM105.018 17.3512L106.527 16.8109V28.4785H101.499V27.7212C101.478 26.6899 101.836 25.687 102.505 24.904C102.408 24.8949 102.31 24.8949 102.213 24.904H101.474V17.3512L102.932 16.8109V23.4651C103.299 23.518 103.655 23.6288 103.988 23.7933C104.36 23.9556 104.7 24.183 104.993 24.4648L105.018 17.3512Z" fill="#DCA638"/>
<path fill-rule="evenodd" clip-rule="evenodd" d="M109.805 16.8311V28.4785H108.312V17.3512L109.805 16.8311Z" fill="#DCA638"/>
<path fill-rule="evenodd" clip-rule="evenodd" d="M119.352 26.974V28.4886H114.144V26.974H117.703V21.279H116.672C116.534 21.2763 116.396 21.3032 116.269 21.358C116.141 21.4129 116.027 21.4944 115.933 21.5971C115.742 21.796 115.637 22.0629 115.642 22.3393V25.424L114.133 24.8788V22.3544C114.127 22.0212 114.189 21.6902 114.316 21.3819C114.442 21.0736 114.63 20.7946 114.868 20.5621C115.102 20.3246 115.382 20.1373 115.69 20.0115C115.999 19.8857 116.329 19.824 116.662 19.8301H119.176V26.9891L119.352 26.974Z" fill="#DCA638"/>
<path fill-rule="evenodd" clip-rule="evenodd" d="M127.517 27.0043V28.5189H118.91V27.0043H125.868V21.3396H124.812C124.543 21.3413 124.285 21.4482 124.093 21.6375C123.992 21.73 123.912 21.8432 123.858 21.9695C123.805 22.0958 123.778 22.2322 123.782 22.3695V25.4442L122.273 24.904V22.3796C122.283 21.713 122.55 21.0762 123.02 20.6048C123.489 20.1333 124.123 19.8644 124.787 19.8553H127.341V27.0194L127.517 27.0043ZM125.813 31.1694L124.757 30.1042L125.813 29.0692L126.849 30.1042L125.813 31.1694Z" fill="#DCA638"/>
<path fill-rule="evenodd" clip-rule="evenodd" d="M139.679 26.974V28.4886H138.125L138.08 27.4284C137.297 28.1197 136.287 28.4971 135.245 28.4886H134.495V27.4284C133.715 28.1252 132.704 28.5034 131.66 28.4886H130.946V27.4284C130.158 28.1192 129.146 28.4963 128.1 28.4886H127.185V26.974H128.1C128.474 26.9811 128.845 26.9112 129.191 26.7688C129.537 26.6264 129.85 26.4145 130.111 26.146C130.382 25.8925 130.597 25.5851 130.742 25.2434C130.888 24.9018 130.96 24.5334 130.956 24.1619V20.3602L132.414 19.815V26.8831C133.013 26.7197 133.542 26.3653 133.922 25.8734C134.312 25.3872 134.521 24.7807 134.516 24.1569V20.3552L136.024 19.8099V26.8781C136.622 26.7146 137.152 26.3602 137.532 25.8684C137.921 25.3821 138.131 24.7756 138.125 24.1518V20.3501L139.594 19.8049V26.9639L139.679 26.974Z" fill="#DCA638"/>
<path fill-rule="evenodd" clip-rule="evenodd" d="M147.813 26.974H147.974V28.4886H142.725V27.4789C142.14 27.9841 141.426 28.3162 140.664 28.4381C140.59 28.4576 140.514 28.4661 140.438 28.4634C140.344 28.4839 140.248 28.4924 140.151 28.4886H139.297V26.974H139.975C140.207 26.9743 140.438 26.9489 140.664 26.8983C141.232 26.7522 141.739 26.4287 142.112 25.9744C142.485 25.5361 142.701 24.9851 142.725 24.4093V19.8149H145.28C145.611 19.8112 145.94 19.8761 146.245 20.0055C146.55 20.135 146.826 20.3261 147.054 20.5672C147.294 20.8011 147.483 21.0816 147.611 21.3914C147.739 21.7013 147.803 22.0342 147.798 22.3696V26.974H147.813ZM146.355 26.974V22.3393C146.358 22.2024 146.331 22.0666 146.276 21.9411C146.221 21.8157 146.14 21.7035 146.039 21.6123C145.945 21.5178 145.834 21.4428 145.711 21.3917C145.589 21.3406 145.457 21.3143 145.325 21.3144H144.269V26.974H146.355Z" fill="#DCA638"/>
<path fill-rule="evenodd" clip-rule="evenodd" d="M150.911 17.3512L152.394 16.811V28.4785H147.527V26.9791H150.911V17.3512Z" fill="#DCA638"/>
<path fill-rule="evenodd" clip-rule="evenodd" d="M155.687 16.8311V28.4785H154.194V17.3512L155.687 16.8311Z" fill="#DCA638"/>
<path fill-rule="evenodd" clip-rule="evenodd" d="M161.519 27.0043H163.611V21.3397H162.555C162.417 21.3381 162.28 21.3651 162.153 21.419C162.026 21.4728 161.911 21.5524 161.816 21.6527C161.722 21.7466 161.647 21.8583 161.596 21.9814C161.545 22.1044 161.519 22.2364 161.519 22.3696V27.0043ZM162.555 19.815H165.069V28.4786H160.026V22.3393C160.026 21.6698 160.291 21.0278 160.762 20.5543C161.234 20.0809 161.873 19.815 162.54 19.815H162.555ZM161.675 18.8557L160.669 17.7955L161.675 16.7353L162.731 17.7955L163.761 16.7353L164.817 17.7955L163.761 18.8557L162.731 17.7955L161.675 18.8557Z" fill="#DCA638"/>
<path fill-rule="evenodd" clip-rule="evenodd" d="M167.009 15.5235H168.04V15.9627H166.532V15.7255C166.528 15.5582 166.56 15.3922 166.625 15.2382C166.69 15.0842 166.787 14.9457 166.909 14.8318C167.024 14.7121 167.162 14.6176 167.315 14.5542C167.469 14.4907 167.633 14.4598 167.799 14.4633H168.151L168 14.9025H167.799C167.618 14.9014 167.442 14.958 167.296 15.0641C167.147 15.1779 167.042 15.3404 166.999 15.5235H167.009ZM168.04 16.8311V28.4785H166.532V17.3713L168.04 16.8311Z" fill="#DCA638"/>
<path fill-rule="evenodd" clip-rule="evenodd" d="M171.801 27.0043V28.4785H171.65V28.6299C171.65 29.2994 171.385 29.9415 170.914 30.4149C170.442 30.8883 169.803 31.1543 169.136 31.1543H168.699L169.111 29.675C169.25 29.6764 169.388 29.6499 169.517 29.5971C169.645 29.5443 169.762 29.4662 169.861 29.3675C169.959 29.2688 170.037 29.1514 170.089 29.0221C170.142 28.8929 170.168 28.7544 170.167 28.6148V20.4561L171.64 19.8401V27.0043H171.801Z" fill="#DCA638"/>
<path fill-rule="evenodd" clip-rule="evenodd" d="M176.154 24.4648H178.241V21.3396H177.135C176.869 21.3543 176.62 21.4698 176.436 21.6628C176.254 21.8525 176.153 22.1061 176.154 22.3696V24.4648ZM177.16 19.8149H179.714V28.4785H171.338V26.9639H178.241V25.9542H174.666V22.2989C174.67 21.9713 174.739 21.6477 174.868 21.347C174.998 21.0462 175.185 20.7743 175.42 20.547C175.651 20.3132 175.926 20.1286 176.229 20.0045C176.532 19.8804 176.858 19.8194 177.185 19.825L177.16 19.8149ZM176.154 18.9314L175.099 17.8712L176.154 16.8311L177.21 17.8712L176.154 18.9314ZM178.291 18.9314L177.235 17.8712L178.291 16.8311L179.347 17.8712L178.291 18.9314Z" fill="#DCA638"/>
<path fill-rule="evenodd" clip-rule="evenodd" d="M186.492 26.974V22.3393C186.494 22.2029 186.467 22.0675 186.414 21.9422C186.36 21.8169 186.28 21.7044 186.18 21.6123C186.086 21.5172 185.974 21.4419 185.85 21.3907C185.727 21.3396 185.595 21.3137 185.461 21.3144H184.405V26.974H186.492ZM185.486 19.815C186.151 19.8215 186.786 20.0896 187.256 20.5616C187.726 21.0336 187.993 21.6719 188 22.3393V28.4785H182.907V27.4435C182.328 27.963 181.612 28.3047 180.846 28.4281C180.77 28.4298 180.694 28.4382 180.619 28.4533C180.523 28.4559 180.428 28.4643 180.333 28.4785H179.483V26.9639H180.157C180.389 26.9481 180.619 26.9143 180.846 26.863C181.412 26.7304 181.921 26.4155 182.293 25.9662C182.665 25.5168 182.881 24.9577 182.907 24.3739V19.8049L185.486 19.815Z" fill="#DCA638"/>
<path fill-rule="evenodd" clip-rule="evenodd" d="M3.90747 31.1898V26.5258H56.7248V31.0342C47.6047 31.1994 38.7051 35.2153 30.7636 42.7895L30.4485 43.0755L30.1491 42.7895C22.1635 35.1644 13.2041 31.1422 4.02723 31.0342L3.90747 31.1898Z" fill="#F8ECD0"/>
<path fill-rule="evenodd" clip-rule="evenodd" d="M39.1841 36.3018H21.7475C16.075 32.896 10.1126 31.1104 4.04298 31.031L3.90747 31.1898V26.494H56.7248V31.0342C50.7119 31.1422 44.7936 32.9245 39.1841 36.3018Z" fill="#495DA2"/>
<path d="M56.7219 29.2168H3.90771V30.7005H56.7219V29.2168Z" fill="#344275"/>
<path d="M30.7764 26.6751H29.853V36.3018H30.7764V26.6751Z" fill="#3D5088"/>
<path fill-rule="evenodd" clip-rule="evenodd" d="M13.8596 32.6703V26.6751H14.783V32.9848C14.4773 32.8768 14.1685 32.772 13.8596 32.6703Z" fill="#3D5088"/>
<path fill-rule="evenodd" clip-rule="evenodd" d="M46.7727 32.7688V26.6751H45.8525V33.0929C46.1677 32.9785 46.4639 32.8736 46.7727 32.7688Z" fill="#3D5088"/>
<path fill-rule="evenodd" clip-rule="evenodd" d="M29.853 42.4909V36.0985H30.7795V42.7863L30.4644 43.0723L30.165 42.7863L29.853 42.4909Z" fill="#DCA638"/>
<path fill-rule="evenodd" clip-rule="evenodd" d="M17.9629 33.4646C17.9629 33.4646 18.0732 31.4916 16.8221 31.4916C15.7853 31.4916 15.6782 32.8514 15.6719 33.3153C16.4377 33.6108 17.2035 33.9348 17.9629 34.2875V33.4646Z" fill="#3D5088"/>
<path fill-rule="evenodd" clip-rule="evenodd" d="M21.5867 33.4646C21.5867 33.4646 21.7002 31.4916 20.4491 31.4916C19.198 31.4916 19.2988 33.4646 19.2988 33.4646V34.942C20.0678 35.336 20.8304 35.7553 21.5867 36.2128V33.4646Z" fill="#3D5088"/>
<path fill-rule="evenodd" clip-rule="evenodd" d="M25.2205 33.4646C25.2205 33.4646 25.334 31.4916 24.0829 31.4916C22.8318 31.4916 22.9326 33.4646 22.9326 33.4646V36.3018H25.2205V33.4646Z" fill="#3D5088"/>
<path fill-rule="evenodd" clip-rule="evenodd" d="M28.8353 33.4646C28.8353 33.4646 28.9487 31.4916 27.6976 31.4916C26.4465 31.4916 26.5474 33.4646 26.5474 33.4646V36.3018H28.8353V33.4646Z" fill="#3D5088"/>
<path fill-rule="evenodd" clip-rule="evenodd" d="M21.4294 36.1112H21.587V36.2094L21.4294 36.1112Z" fill="#D5C099"/>
<path fill-rule="evenodd" clip-rule="evenodd" d="M22.9294 37.0421V36.1112H25.2205V38.6275C24.4642 38.0683 23.7005 37.5399 22.9294 37.0421Z" fill="#D5C099"/>
<path fill-rule="evenodd" clip-rule="evenodd" d="M26.5598 39.6505V36.1112H28.8509V41.5822C28.0945 40.9172 27.3309 40.2733 26.5598 39.6505Z" fill="#D5C099"/>
<path fill-rule="evenodd" clip-rule="evenodd" d="M34.1485 33.4646C34.1485 33.4646 34.262 31.4916 33.0109 31.4916C31.7597 31.4916 31.8606 33.4646 31.8606 33.4646V36.3018H34.1485V33.4646Z" fill="#3D5088"/>
<path fill-rule="evenodd" clip-rule="evenodd" d="M37.7786 33.4646C37.7786 33.4646 37.8921 31.4916 36.641 31.4916C35.3899 31.4916 35.4907 33.4646 35.4907 33.4646V36.3018H37.7786V33.4646Z" fill="#3D5088"/>
<path fill-rule="evenodd" clip-rule="evenodd" d="M41.4061 33.4646C41.4061 33.4646 41.5195 31.4916 40.2684 31.4916C39.0173 31.4916 39.1182 33.4646 39.1182 33.4646V36.3018H39.1843C39.9176 35.8612 40.6529 35.4461 41.3903 35.0564L41.4061 33.4646Z" fill="#3D5088"/>
<path fill-rule="evenodd" clip-rule="evenodd" d="M45.0396 33.4011C45.0396 33.0548 45.0112 31.4948 43.8988 31.4948C42.6382 31.4948 42.7485 33.4678 42.7485 33.4678V34.3923C43.508 34.0333 44.277 33.6997 45.0396 33.4011Z" fill="#3D5088"/>
<path fill-rule="evenodd" clip-rule="evenodd" d="M31.8604 41.7792V36.1112H34.1514V39.8253C33.3783 40.4438 32.6146 41.0951 31.8604 41.7792Z" fill="#D5C099"/>
<path fill-rule="evenodd" clip-rule="evenodd" d="M35.4875 38.7896V36.1112H37.7786V37.1851C37.0097 37.6892 36.246 38.224 35.4875 38.7896Z" fill="#D5C099"/>
<path fill-rule="evenodd" clip-rule="evenodd" d="M39.1179 36.3423V36.1112H39.5024L39.1179 36.3423Z" fill="#D5C099"/>
<path fill-rule="evenodd" clip-rule="evenodd" d="M48.9566 32.1173C48.8558 31.7711 48.6825 31.4821 48.3894 31.4821C48.0018 31.4821 47.8221 31.9648 47.7371 32.4507C48.1446 32.3364 48.5512 32.2252 48.9566 32.1173Z" fill="#3D5088"/>
<path fill-rule="evenodd" clip-rule="evenodd" d="M50.9928 31.6473C50.9512 31.599 50.8999 31.5601 50.8423 31.5333C50.7847 31.5064 50.7221 31.4922 50.6586 31.4916C50.5621 31.4974 50.469 31.5302 50.3899 31.5863C50.3109 31.6425 50.2489 31.7197 50.2109 31.8094L50.9928 31.6473Z" fill="#3D5088"/>
<path fill-rule="evenodd" clip-rule="evenodd" d="M10.463 31.7544C10.4227 31.6778 10.363 31.6132 10.29 31.5671C10.2169 31.5209 10.1331 31.4949 10.0468 31.4916C9.93625 31.4916 9.82996 31.5347 9.75049 31.6119C9.98694 31.6562 10.2423 31.7037 10.463 31.7544Z" fill="#3D5088"/>
<path fill-rule="evenodd" clip-rule="evenodd" d="M12.952 32.3904C12.8638 31.9267 12.6841 31.4916 12.3217 31.4916C12.0444 31.4916 11.8711 31.7425 11.7671 32.0633C12.161 32.1649 12.5549 32.2729 12.952 32.3904Z" fill="#3D5088"/>
<path fill-rule="evenodd" clip-rule="evenodd" d="M38.9479 36.4541H21.9839C21.757 36.3144 21.5301 36.181 21.3032 36.0476H39.6286C39.4017 36.1715 39.1748 36.3048 38.9479 36.4541Z" fill="#DCA638"/>
<path d="M41.8126 18.5862H18.8232V23.4345H41.8126V18.5862Z" fill="#495DA2"/>
<path d="M41.8126 18.5862H18.8232V19.2531H41.8126V18.5862Z" fill="#3D5088"/>
<path d="M30.6724 18.4908H29.957V23.4345H30.6724V18.4908Z" fill="#344275"/>
<path d="M24.294 18.4908H23.5786V23.4345H24.294V18.4908Z" fill="#344275"/>
<path d="M37.0506 18.4908H36.3352V23.4345H37.0506V18.4908Z" fill="#344275"/>
<path fill-rule="evenodd" clip-rule="evenodd" d="M20.7488 20.772C20.7488 20.772 20.8024 19.93 20.1973 19.93C19.5923 19.93 19.6395 20.772 19.6395 20.772V23.428H20.7488V20.772Z" fill="#3D5088"/>
<path fill-rule="evenodd" clip-rule="evenodd" d="M22.7276 20.772C22.7276 20.772 22.7812 19.93 22.1761 19.93C21.571 19.93 21.6183 20.772 21.6183 20.772V23.428H22.7276V20.772Z" fill="#3D5088"/>
<path fill-rule="evenodd" clip-rule="evenodd" d="M33.0329 20.772C33.0329 20.772 33.0927 19.93 32.4026 19.93C31.7124 19.93 31.7723 20.772 31.7723 20.772V23.428H33.0329V20.772Z" fill="#3D5088"/>
<path fill-rule="evenodd" clip-rule="evenodd" d="M35.2638 20.772C35.2638 20.772 35.3237 19.93 34.6335 19.93C33.9434 19.93 34.0033 20.772 34.0033 20.772V23.428H35.2638V20.772Z" fill="#3D5088"/>
<path fill-rule="evenodd" clip-rule="evenodd" d="M26.6513 20.772C26.6513 20.772 26.7111 19.93 26.021 19.93C25.3308 19.93 25.3907 20.772 25.3907 20.772V23.428H26.6513V20.772Z" fill="#3D5088"/>
<path fill-rule="evenodd" clip-rule="evenodd" d="M28.8825 20.772C28.8825 20.772 28.9423 19.93 28.2522 19.93C27.562 19.93 27.6219 20.772 27.6219 20.772V23.428H28.8825V20.772Z" fill="#3D5088"/>
<path fill-rule="evenodd" clip-rule="evenodd" d="M39.0551 20.772C39.0551 20.772 39.1118 19.93 38.5036 19.93C37.8954 19.93 37.949 20.772 37.949 20.772V23.428H39.0551V20.772Z" fill="#3D5088"/>
<path fill-rule="evenodd" clip-rule="evenodd" d="M41.0373 20.772C41.0373 20.772 41.0909 19.9333 40.4953 19.9333C39.8997 19.9333 39.9375 20.7752 39.9375 20.7752V23.4281H41.0468L41.0373 20.772Z" fill="#3D5088"/>
<path fill-rule="evenodd" clip-rule="evenodd" d="M3.90747 26.5258L18.823 23.4281H41.8092L56.7248 26.5194C56.7248 26.5194 34.2396 30.4178 3.90747 26.5258Z" fill="#495DA2"/>
<mask id="mask0_12_312" style="mask-type:luminance" maskUnits="userSpaceOnUse" x="3" y="23" width="54" height="6">
<path d="M3.90771 26.5258L18.8232 23.4281H41.8095L56.725 26.5194C56.725 26.5194 34.2398 30.4178 3.90771 26.5258Z" fill="white"/>
</mask>
<g mask="url(#mask0_12_312)">
<path d="M18.741 23.3169L14.2432 26.3778L14.4018 26.6148L18.8997 23.5539L18.741 23.3169Z" fill="#3D5088"/>
<path d="M41.8971 23.3299L41.7385 23.567L46.2386 26.6246L46.3972 26.3876L41.8971 23.3299Z" fill="#3D5088"/>
</g>
<path d="M30.458 23.4344H30.1746V26.5258H30.458V23.4344Z" fill="#3D5088"/>
<path d="M56.7219 26.1446H3.90771V29.9825H56.7219V26.1446Z" fill="#3D5088"/>
<path d="M5.39196 27.8793H4.0022V28.5621H5.39196V27.8793Z" fill="#344275"/>
<path d="M7.0465 27.8793H5.65674V28.5621H7.0465V27.8793Z" fill="#344275"/>
<path d="M8.69762 27.8793H7.30786V28.5621H8.69762V27.8793Z" fill="#344275"/>
<path d="M10.3522 27.8793H8.9624V28.5621H10.3522V27.8793Z" fill="#344275"/>
<path d="M12.0035 27.8793H10.6138V28.5621H12.0035V27.8793Z" fill="#344275"/>
<path d="M13.6581 27.8793H12.2683V28.5621H13.6581V27.8793Z" fill="#344275"/>
<path d="M15.3092 27.8793H13.9194V28.5621H15.3092V27.8793Z" fill="#344275"/>
<path d="M16.9637 27.8793H15.574V28.5621H16.9637V27.8793Z" fill="#344275"/>
<path d="M18.6154 27.8793H17.2256V28.5621H18.6154V27.8793Z" fill="#344275"/>
<path d="M20.2665 27.8793H18.8767V28.5621H20.2665V27.8793Z" fill="#344275"/>
<path d="M21.9208 27.8793H20.531V28.5621H21.9208V27.8793Z" fill="#344275"/>
<path d="M23.5724 27.8793H22.1826V28.5621H23.5724V27.8793Z" fill="#344275"/>
<path d="M25.2269 27.8793H23.8372V28.5621H25.2269V27.8793Z" fill="#344275"/>
<path d="M26.878 27.8793H25.4883V28.5621H26.878V27.8793Z" fill="#344275"/>
<path d="M28.5326 27.8793H27.1428V28.5621H28.5326V27.8793Z" fill="#344275"/>
<path d="M30.184 27.8793H28.7942V28.5621H30.184V27.8793Z" fill="#344275"/>
<path d="M31.8353 27.8793H30.4456V28.5621H31.8353V27.8793Z" fill="#344275"/>
<path d="M33.4896 27.8793H32.0999V28.5621H33.4896V27.8793Z" fill="#344275"/>
<path d="M35.141 27.8793H33.7512V28.5621H35.141V27.8793Z" fill="#344275"/>
<path d="M36.7955 27.8793H35.4058V28.5621H36.7955V27.8793Z" fill="#344275"/>
<path d="M38.4469 27.8793H37.0571V28.5621H38.4469V27.8793Z" fill="#344275"/>
<path d="M40.1012 27.8793H38.7114V28.5621H40.1012V27.8793Z" fill="#344275"/>
<path d="M41.7526 27.8793H40.3628V28.5621H41.7526V27.8793Z" fill="#344275"/>
<path d="M43.4071 27.8793H42.0173V28.5621H43.4071V27.8793Z" fill="#344275"/>
<path d="M45.0582 27.8793H43.6685V28.5621H45.0582V27.8793Z" fill="#344275"/>
<path d="M46.7098 27.8793H45.3201V28.5621H46.7098V27.8793Z" fill="#344275"/>
<path d="M48.3644 27.8793H46.9746V28.5621H48.3644V27.8793Z" fill="#344275"/>
<path d="M50.0155 27.8793H48.6257V28.5621H50.0155V27.8793Z" fill="#344275"/>
<path d="M51.67 27.8793H50.2803V28.5621H51.67V27.8793Z" fill="#344275"/>
<path d="M53.3214 27.8793H51.9316V28.5621H53.3214V27.8793Z" fill="#344275"/>
<path d="M54.9759 27.8793H53.5862V28.5621H54.9759V27.8793Z" fill="#344275"/>
<path d="M56.6273 27.8793H55.2375V28.5621H56.6273V27.8793Z" fill="#344275"/>
<path d="M56.7219 25.9348H3.90771V26.354H56.7219V25.9348Z" fill="#344275"/>
<path fill-rule="evenodd" clip-rule="evenodd" d="M30.3164 7.22482C19.9767 7.22482 18.8232 18.4941 18.8232 18.4941H41.8095C41.8095 18.4941 40.6561 7.22482 30.3164 7.22482Z" fill="#EAB246"/>
<path fill-rule="evenodd" clip-rule="evenodd" d="M32.4089 7.39316C32.4089 8.48291 31.974 14.6465 23.585 18.4909H41.8126C41.8126 18.4909 40.8105 8.79109 32.4089 7.39316Z" fill="#DCA638"/>
<path d="M30.3862 7.22153H30.2439V18.4876H30.3862V7.22153Z" fill="#F3C975"/>
<path fill-rule="evenodd" clip-rule="evenodd" d="M33.1021 18.4908H32.9603C32.9603 10.0143 30.2942 7.30101 30.2659 7.27559L30.3667 7.17075C30.3919 7.19934 33.1021 9.95391 33.1021 18.4908Z" fill="#F3C975"/>
<path fill-rule="evenodd" clip-rule="evenodd" d="M35.7177 18.4909H35.579C35.579 10.0334 30.3382 7.31373 30.2847 7.28831L30.3477 7.15805C30.4107 7.18664 35.7177 9.94122 35.7177 18.4909Z" fill="#F3C975"/>
<path fill-rule="evenodd" clip-rule="evenodd" d="M38.1601 18.4909H38.0183C38.0183 13.7951 35.9194 11.0024 34.1578 9.48374C33.0283 8.50161 31.7159 7.75635 30.2974 7.29153L30.3352 7.15491C31.7739 7.62577 33.1046 8.38192 34.2492 9.37889C36.0329 10.9134 38.1601 13.7411 38.1601 18.4909Z" fill="#F3C975"/>
<path fill-rule="evenodd" clip-rule="evenodd" d="M40.1802 18.4908H40.0384C40.0384 13.5631 37.3944 10.7831 35.1789 9.31847C33.6932 8.34564 32.0412 7.6594 30.3069 7.29464L30.3321 7.15167C32.0823 7.52259 33.7499 8.21509 35.2514 9.19456C37.4952 10.6815 40.1802 13.4964 40.1802 18.4908Z" fill="#F3C975"/>
<path fill-rule="evenodd" clip-rule="evenodd" d="M27.6723 18.4908H27.5305C27.5305 9.95391 30.2407 7.19934 30.2659 7.17075L30.3668 7.27559C30.3384 7.30101 27.6723 10.0238 27.6723 18.4908Z" fill="#F3C975"/>
<path fill-rule="evenodd" clip-rule="evenodd" d="M25.0535 18.4909H24.9148C24.9148 9.94122 30.2312 7.18664 30.2722 7.15805L30.3352 7.28831C30.2942 7.31373 25.0535 10.0334 25.0535 18.4909Z" fill="#F3C975"/>
<path fill-rule="evenodd" clip-rule="evenodd" d="M22.6142 18.4908H22.4724C22.4724 13.7251 24.5996 10.9134 26.3833 9.37566C27.5279 8.37869 28.8586 7.62253 30.2973 7.15167L30.3351 7.28829C28.9157 7.75469 27.6023 8.50096 26.4715 9.48368C24.7131 11.0055 22.6142 13.7982 22.6142 18.4908Z" fill="#F3C975"/>
<path fill-rule="evenodd" clip-rule="evenodd" d="M20.5974 18.4908H20.4587C20.4587 13.4964 23.1374 10.6815 25.3844 9.19456C26.8859 8.21509 28.5535 7.52259 30.3037 7.15167L30.3289 7.29464C28.5946 7.6594 26.9426 8.34564 25.4569 9.31847C23.2414 10.7831 20.5974 13.579 20.5974 18.4908Z" fill="#F3C975"/>
<path fill-rule="evenodd" clip-rule="evenodd" d="M42.4584 18.4908C42.4584 18.5666 42.4286 18.6393 42.3754 18.6929C42.3222 18.7465 42.2501 18.7766 42.1748 18.7766H18.4575C18.3822 18.7766 18.3101 18.7465 18.2569 18.6929C18.2037 18.6393 18.1738 18.5666 18.1738 18.4908C18.1738 18.415 18.2037 18.3423 18.2569 18.2887C18.3101 18.2351 18.3822 18.205 18.4575 18.205H42.1748C42.2501 18.205 42.3222 18.2351 42.3754 18.2887C42.4286 18.3423 42.4584 18.415 42.4584 18.4908Z" fill="#BE8F2F"/>
<path fill-rule="evenodd" clip-rule="evenodd" d="M30.7165 6.86573H29.916L30.1996 1.82681H30.4328L30.7165 6.86573Z" fill="#EAB246"/>
<path fill-rule="evenodd" clip-rule="evenodd" d="M31.2711 6.8656C31.2711 6.96949 31.2304 7.06918 31.1578 7.14294C31.0852 7.2167 30.9866 7.25856 30.8835 7.25939H29.749C29.6519 7.25057 29.5615 7.20544 29.4956 7.13286C29.4298 7.06028 29.3933 6.96551 29.3933 6.86718C29.3933 6.76886 29.4298 6.67409 29.4956 6.60151C29.5615 6.52893 29.6519 6.4838 29.749 6.47498H30.8835C30.9863 6.47498 31.0849 6.51613 31.1576 6.58939C31.2303 6.66264 31.2711 6.762 31.2711 6.8656Z" fill="#BE8F2F"/>
<path fill-rule="evenodd" clip-rule="evenodd" d="M30.5272 1.66164C30.3261 1.66606 30.13 1.59852 29.9736 1.47102C29.8172 1.34351 29.7107 1.16428 29.6729 0.965122C29.6352 0.765964 29.6686 0.559752 29.7673 0.383077C29.866 0.206402 30.0236 0.0706828 30.2121 0C30.0064 0.0172895 29.8102 0.0946303 29.6474 0.222563C29.4846 0.350495 29.3623 0.523478 29.2955 0.720356C29.2287 0.917233 29.2202 1.12947 29.2711 1.33112C29.322 1.53278 29.4301 1.71511 29.5822 1.85581C29.7342 1.99651 29.9237 2.08949 30.1273 2.12338C30.331 2.15728 30.54 2.13061 30.7288 2.04665C30.9177 1.96268 31.0782 1.82506 31.1907 1.6506C31.3032 1.47615 31.3628 1.27242 31.3623 1.06434C31.3623 1.01668 31.3623 0.9722 31.3623 0.92772C31.333 1.13043 31.2326 1.31587 31.0795 1.45048C30.9263 1.58509 30.7304 1.65999 30.5272 1.66164Z" fill="#BE8F2F"/>
<path fill-rule="evenodd" clip-rule="evenodd" d="M43.7033 60L34.9645 53.1946L30.1586 49.4519L29.2353 48.7371C21.7282 42.8925 12.5101 39.7235 3.02516 39.7267H1.17529L25.3685 53.2168L30.1712 55.8951L37.5266 60H43.7033Z" fill="url(#paint0_linear_12_312)"/>
<path fill-rule="evenodd" clip-rule="evenodd" d="M59.0886 34.2304C49.1522 33.6934 39.4018 37.7252 30.7796 45.9539L30.4645 46.2399L30.1651 45.9539C21.546 37.7252 11.7957 33.6966 1.85932 34.2304L0 36.4226C10.5824 35.2566 21.2561 39.3233 30.4645 48.1176C39.6729 39.3233 50.3466 35.2566 60.9321 36.4226L59.0886 34.2304Z" fill="url(#paint1_linear_12_312)"/>
<path fill-rule="evenodd" clip-rule="evenodd" d="M1.21013 34.996L0 36.4257C10.5824 35.2597 21.2561 39.3265 30.4645 48.1207C39.6729 39.3265 50.3466 35.2597 60.9321 36.4257L59.7189 34.996C49.5588 34.5576 39.5941 38.5894 30.7733 46.7355L30.4582 47.0215L30.1431 46.7355C21.3349 38.5894 11.3734 34.5481 1.21013 34.996Z" fill="url(#paint2_linear_12_312)"/>
<path fill-rule="evenodd" clip-rule="evenodd" d="M16.5195 60L25.5577 52.9754L30.3636 49.2327L31.2838 48.5179C38.7955 42.6669 48.0203 39.4934 57.5128 39.4948H59.3627L35.1663 52.9754L30.3636 55.6537L22.5923 59.9905L16.5195 60Z" fill="url(#paint3_linear_12_312)"/>
<path d="M41.8126 23.1485H18.8232V23.5677H41.8126V23.1485Z" fill="#344275"/>
<defs>
<linearGradient id="paint0_linear_12_312" x1="42.1969" y1="58.9928" x2="2.52884" y2="37.2548" gradientUnits="userSpaceOnUse">
<stop stop-color="#364A87"/>
<stop offset="1" stop-color="#5573B7"/>
</linearGradient>
<linearGradient id="paint1_linear_12_312" x1="30.4645" y1="37.4583" x2="30.4645" y2="68.3749" gradientUnits="userSpaceOnUse">
<stop stop-color="#4359A3"/>
<stop offset="1" stop-color="#364A87"/>
</linearGradient>
<linearGradient id="paint2_linear_12_312" x1="57.037" y1="41.5441" x2="5.88364" y2="41.5441" gradientUnits="userSpaceOnUse">
<stop stop-color="#5573B7"/>
<stop offset="0.52" stop-color="#364A87"/>
<stop offset="1" stop-color="#5573B7"/>
</linearGradient>
<linearGradient id="paint3_linear_12_312" x1="55.0989" y1="38.1859" x2="17.0556" y2="59.4336" gradientUnits="userSpaceOnUse">
<stop stop-color="#5573B7"/>
<stop offset="1" stop-color="#364A87"/>
</linearGradient>
</defs>
</svg>
