<svg width="154" height="154" viewBox="0 0 154 154" fill="none" xmlns="http://www.w3.org/2000/svg">
<g filter="url(#filter0_b_37_492)">
<rect width="154" height="154" rx="15" fill="white" fill-opacity="0.1"/>
</g>
<path fill-rule="evenodd" clip-rule="evenodd" d="M21.4707 79.4707V69.7852H131.904V79.1474C112.835 79.4905 94.2274 87.8302 77.6229 103.559L76.964 104.153L76.338 103.559C59.6413 87.7246 40.9085 79.3718 21.7211 79.1474L21.4707 79.4707Z" fill="#F8ECD0"/>
<path fill-rule="evenodd" clip-rule="evenodd" d="M95.229 90.0867H58.7715C46.9112 83.0138 34.4446 79.3058 21.754 79.1409L21.4707 79.4708V69.7192H131.904V79.1475C119.332 79.3718 106.958 83.0732 95.229 90.0867Z" fill="#495DA2"/>
<path d="M131.897 75.3735H21.4707V78.4547H131.897V75.3735Z" fill="#344275"/>
<path d="M77.6494 70.0947H75.7188V90.0861H77.6494V70.0947Z" fill="#3D5088"/>
<path fill-rule="evenodd" clip-rule="evenodd" d="M42.2788 82.5448V70.0947H44.2094V83.198C43.5703 82.9736 42.9245 82.7559 42.2788 82.5448Z" fill="#3D5088"/>
<path fill-rule="evenodd" clip-rule="evenodd" d="M111.095 82.7493V70.0947H109.171V83.4223C109.83 83.1848 110.45 82.967 111.095 82.7493Z" fill="#3D5088"/>
<path fill-rule="evenodd" clip-rule="evenodd" d="M75.7188 102.939V89.6641H77.6559V103.552L76.997 104.146L76.3711 103.552L75.7188 102.939Z" fill="#DCA638"/>
<path fill-rule="evenodd" clip-rule="evenodd" d="M50.8582 84.1949C50.8582 84.1949 51.0888 80.0977 48.4729 80.0977C46.3051 80.0977 46.081 82.9215 46.0679 83.8848C47.669 84.4984 49.2702 85.1714 50.8582 85.9037V84.1949Z" fill="#3D5088"/>
<path fill-rule="evenodd" clip-rule="evenodd" d="M58.4357 84.1949C58.4357 84.1949 58.6729 80.0977 56.057 80.0977C53.4412 80.0977 53.652 84.1949 53.652 84.1949V87.2629C55.2597 88.081 56.8543 88.9519 58.4357 89.902V84.1949Z" fill="#3D5088"/>
<path fill-rule="evenodd" clip-rule="evenodd" d="M66.0324 84.1949C66.0324 84.1949 66.2696 80.0977 63.6537 80.0977C61.0378 80.0977 61.2487 84.1949 61.2487 84.1949V90.0867H66.0324V84.1949Z" fill="#3D5088"/>
<path fill-rule="evenodd" clip-rule="evenodd" d="M73.59 84.1949C73.59 84.1949 73.8272 80.0977 71.2113 80.0977C68.5955 80.0977 68.8063 84.1949 68.8063 84.1949V90.0867H73.59V84.1949Z" fill="#3D5088"/>
<path fill-rule="evenodd" clip-rule="evenodd" d="M58.106 89.6909H58.436V89.895L58.106 89.6909Z" fill="#D5C099"/>
<path fill-rule="evenodd" clip-rule="evenodd" d="M61.2427 91.6241V89.6909H66.033V94.9164C64.4516 93.7552 62.8548 92.6577 61.2427 91.6241Z" fill="#D5C099"/>
<path fill-rule="evenodd" clip-rule="evenodd" d="M68.833 97.0409V89.6909H73.6232V101.052C72.0419 99.6712 70.4451 98.334 68.833 97.0409Z" fill="#D5C099"/>
<path fill-rule="evenodd" clip-rule="evenodd" d="M84.6994 84.1949C84.6994 84.1949 84.9366 80.0977 82.3207 80.0977C79.7048 80.0977 79.9157 84.1949 79.9157 84.1949V90.0867H84.6994V84.1949Z" fill="#3D5088"/>
<path fill-rule="evenodd" clip-rule="evenodd" d="M92.2902 84.1949C92.2902 84.1949 92.5274 80.0977 89.9115 80.0977C87.2957 80.0977 87.5065 84.1949 87.5065 84.1949V90.0867H92.2902V84.1949Z" fill="#3D5088"/>
<path fill-rule="evenodd" clip-rule="evenodd" d="M99.8737 84.1949C99.8737 84.1949 100.111 80.0977 97.495 80.0977C94.8792 80.0977 95.09 84.1949 95.09 84.1949V90.0867H95.2284C96.7614 89.1718 98.2989 88.3097 99.8407 87.5004L99.8737 84.1949Z" fill="#3D5088"/>
<path fill-rule="evenodd" clip-rule="evenodd" d="M107.472 84.0627C107.472 83.3435 107.412 80.104 105.086 80.104C102.451 80.104 102.681 84.2012 102.681 84.2012V86.1212C104.269 85.3756 105.877 84.6829 107.472 84.0627Z" fill="#3D5088"/>
<path fill-rule="evenodd" clip-rule="evenodd" d="M79.916 101.461V89.6909H84.7063V97.4037C83.0898 98.6881 81.493 100.041 79.916 101.461Z" fill="#D5C099"/>
<path fill-rule="evenodd" clip-rule="evenodd" d="M87.4995 95.2529V89.6909H92.2898V91.921C90.6821 92.9678 89.0853 94.0785 87.4995 95.2529Z" fill="#D5C099"/>
<path fill-rule="evenodd" clip-rule="evenodd" d="M95.0908 90.1725V89.6909H95.895L95.0908 90.1725Z" fill="#D5C099"/>
<path fill-rule="evenodd" clip-rule="evenodd" d="M115.661 81.3966C115.45 80.6778 115.088 80.0776 114.475 80.0776C113.665 80.0776 113.289 81.0801 113.111 82.0891C113.964 81.8517 114.814 81.6209 115.661 81.3966Z" fill="#3D5088"/>
<path fill-rule="evenodd" clip-rule="evenodd" d="M119.919 80.4209C119.832 80.3206 119.725 80.2398 119.604 80.1841C119.484 80.1283 119.353 80.0989 119.22 80.0977C119.018 80.1097 118.824 80.1777 118.658 80.2943C118.493 80.4108 118.363 80.5712 118.284 80.7574L119.919 80.4209Z" fill="#3D5088"/>
<path fill-rule="evenodd" clip-rule="evenodd" d="M35.1768 80.6453C35.0925 80.4856 34.9677 80.351 34.815 80.2548C34.6622 80.1587 34.4869 80.1045 34.3066 80.0977C34.0754 80.0975 33.8532 80.1874 33.687 80.3484C34.1814 80.4407 34.7154 80.5397 35.1768 80.6453Z" fill="#3D5088"/>
<path fill-rule="evenodd" clip-rule="evenodd" d="M40.3813 81.964C40.1968 81.0012 39.8212 80.0977 39.0635 80.0977C38.4837 80.0977 38.1212 80.6187 37.9038 81.2848C38.7274 81.4958 39.5511 81.72 40.3813 81.964Z" fill="#3D5088"/>
<path fill-rule="evenodd" clip-rule="evenodd" d="M94.7351 90.4028H59.266C58.7916 90.1126 58.3172 89.8356 57.8428 89.5586H96.1583C95.6839 89.8158 95.2095 90.0928 94.7351 90.4028Z" fill="#DCA638"/>
<path d="M100.724 53.2969H52.6567V63.3651H100.724V53.2969Z" fill="#495DA2"/>
<path d="M100.724 53.2969H52.6567V54.6818H100.724V53.2969Z" fill="#3D5088"/>
<path d="M77.4318 53.0996H75.936V63.3658H77.4318V53.0996Z" fill="#344275"/>
<path d="M64.0953 53.0996H62.5996V63.3658H64.0953V53.0996Z" fill="#344275"/>
<path d="M90.7677 53.0996H89.272V63.3658H90.7677V53.0996Z" fill="#344275"/>
<path fill-rule="evenodd" clip-rule="evenodd" d="M56.6825 57.8363C56.6825 57.8363 56.7945 56.0879 55.5294 56.0879C54.2643 56.0879 54.3631 57.8363 54.3631 57.8363V63.3521H56.6825V57.8363Z" fill="#3D5088"/>
<path fill-rule="evenodd" clip-rule="evenodd" d="M60.8207 57.8363C60.8207 57.8363 60.9327 56.0879 59.6676 56.0879C58.4025 56.0879 58.5013 57.8363 58.5013 57.8363V63.3521H60.8207V57.8363Z" fill="#3D5088"/>
<path fill-rule="evenodd" clip-rule="evenodd" d="M82.3664 57.8363C82.3664 57.8363 82.4916 56.0879 81.0486 56.0879C79.6056 56.0879 79.7308 57.8363 79.7308 57.8363V63.3521H82.3664V57.8363Z" fill="#3D5088"/>
<path fill-rule="evenodd" clip-rule="evenodd" d="M87.0319 57.8363C87.0319 57.8363 87.1571 56.0879 85.7141 56.0879C84.2711 56.0879 84.3963 57.8363 84.3963 57.8363V63.3521H87.0319V57.8363Z" fill="#3D5088"/>
<path fill-rule="evenodd" clip-rule="evenodd" d="M69.0241 57.8363C69.0241 57.8363 69.1493 56.0879 67.7063 56.0879C66.2633 56.0879 66.3885 57.8363 66.3885 57.8363V63.3521H69.0241V57.8363Z" fill="#3D5088"/>
<path fill-rule="evenodd" clip-rule="evenodd" d="M73.6892 57.8363C73.6892 57.8363 73.8143 56.0879 72.3713 56.0879C70.9283 56.0879 71.0535 57.8363 71.0535 57.8363V63.3521H73.6892V57.8363Z" fill="#3D5088"/>
<path fill-rule="evenodd" clip-rule="evenodd" d="M94.9588 57.8363C94.9588 57.8363 95.0774 56.0879 93.8058 56.0879C92.5341 56.0879 92.6461 57.8363 92.6461 57.8363V63.3521H94.9588V57.8363Z" fill="#3D5088"/>
<path fill-rule="evenodd" clip-rule="evenodd" d="M99.1028 57.8361C99.1028 57.8361 99.2149 56.0942 97.9695 56.0942C96.7242 56.0942 96.8032 57.8427 96.8032 57.8427V63.3518H99.1226L99.1028 57.8361Z" fill="#3D5088"/>
<path fill-rule="evenodd" clip-rule="evenodd" d="M21.4707 69.7849L52.6568 63.3521H100.718L131.904 69.7717C131.904 69.7717 84.8907 77.8672 21.4707 69.7849Z" fill="#495DA2"/>
<mask id="mask0_37_492" style="mask-type:luminance" maskUnits="userSpaceOnUse" x="21" y="63" width="111" height="11">
<path d="M21.4707 69.7849L52.6568 63.3521H100.718L131.904 69.7717C131.904 69.7717 84.8907 77.8672 21.4707 69.7849Z" fill="white"/>
</mask>
<g mask="url(#mask0_37_492)">
<path d="M52.485 63.121L43.0806 69.4775L43.4123 69.9697L52.8167 63.6132L52.485 63.121Z" fill="#3D5088"/>
<path d="M100.901 63.1478L100.569 63.6401L109.978 69.9899L110.31 69.4976L100.901 63.1478Z" fill="#3D5088"/>
</g>
<path d="M76.9836 63.3652H76.3906V69.7849H76.9836V63.3652Z" fill="#3D5088"/>
<path d="M131.897 68.9937H21.4707V76.9638H131.897V68.9937Z" fill="#3D5088"/>
<path d="M24.5738 72.5957H21.668V74.0136H24.5738V72.5957Z" fill="#344275"/>
<path d="M28.0332 72.5957H25.1274V74.0136H28.0332V72.5957Z" fill="#344275"/>
<path d="M31.4864 72.5957H28.5806V74.0136H31.4864V72.5957Z" fill="#344275"/>
<path d="M34.9453 72.5957H32.0396V74.0136H34.9453V72.5957Z" fill="#344275"/>
<path d="M38.398 72.5957H35.4922V74.0136H38.398V72.5957Z" fill="#344275"/>
<path d="M41.857 72.5957H38.9512V74.0136H41.857V72.5957Z" fill="#344275"/>
<path d="M45.3096 72.5957H42.4038V74.0136H45.3096V72.5957Z" fill="#344275"/>
<path d="M48.7686 72.5957H45.8628V74.0136H48.7686V72.5957Z" fill="#344275"/>
<path d="M52.2222 72.5957H49.3164V74.0136H52.2222V72.5957Z" fill="#344275"/>
<path d="M55.6743 72.5957H52.7686V74.0136H55.6743V72.5957Z" fill="#344275"/>
<path d="M59.1338 72.5957H56.228V74.0136H59.1338V72.5957Z" fill="#344275"/>
<path d="M62.5864 72.5957H59.6807V74.0136H62.5864V72.5957Z" fill="#344275"/>
<path d="M66.0454 72.5957H63.1396V74.0136H66.0454V72.5957Z" fill="#344275"/>
<path d="M69.4986 72.5957H66.5928V74.0136H69.4986V72.5957Z" fill="#344275"/>
<path d="M72.9575 72.5957H70.0518V74.0136H72.9575V72.5957Z" fill="#344275"/>
<path d="M76.4107 72.5957H73.5049V74.0136H76.4107V72.5957Z" fill="#344275"/>
<path d="M79.8628 72.5957H76.957V74.0136H79.8628V72.5957Z" fill="#344275"/>
<path d="M83.3218 72.5957H80.416V74.0136H83.3218V72.5957Z" fill="#344275"/>
<path d="M86.7754 72.5957H83.8696V74.0136H86.7754V72.5957Z" fill="#344275"/>
<path d="M90.2344 72.5957H87.3286V74.0136H90.2344V72.5957Z" fill="#344275"/>
<path d="M93.687 72.5957H90.7812V74.0136H93.687V72.5957Z" fill="#344275"/>
<path d="M97.146 72.5957H94.2402V74.0136H97.146V72.5957Z" fill="#344275"/>
<path d="M100.599 72.5957H97.6929V74.0136H100.599V72.5957Z" fill="#344275"/>
<path d="M104.058 72.5957H101.152V74.0136H104.058V72.5957Z" fill="#344275"/>
<path d="M107.511 72.5957H104.605V74.0136H107.511V72.5957Z" fill="#344275"/>
<path d="M110.963 72.5957H108.058V74.0136H110.963V72.5957Z" fill="#344275"/>
<path d="M114.423 72.5957H111.518V74.0136H114.423V72.5957Z" fill="#344275"/>
<path d="M117.875 72.5957H114.969V74.0136H117.875V72.5957Z" fill="#344275"/>
<path d="M121.334 72.5957H118.429V74.0136H121.334V72.5957Z" fill="#344275"/>
<path d="M124.787 72.5957H121.881V74.0136H124.787V72.5957Z" fill="#344275"/>
<path d="M128.247 72.5957H125.341V74.0136H128.247V72.5957Z" fill="#344275"/>
<path d="M131.699 72.5957H128.793V74.0136H131.699V72.5957Z" fill="#344275"/>
<path d="M131.897 68.5581H21.4707V69.4286H131.897V68.5581Z" fill="#344275"/>
<path fill-rule="evenodd" clip-rule="evenodd" d="M76.6872 29.7031C55.0684 29.7031 52.6567 53.1055 52.6567 53.1055H100.718C100.718 53.1055 98.306 29.7031 76.6872 29.7031Z" fill="#EAB246"/>
<path fill-rule="evenodd" clip-rule="evenodd" d="M81.0627 30.0532C81.0627 32.3163 80.1534 45.116 62.6133 53.0994H100.725C100.725 53.0994 98.6292 32.9563 81.0627 30.0532Z" fill="#DCA638"/>
<path d="M76.8336 29.6963H76.5356V53.0921H76.8336V29.6963Z" fill="#F3C975"/>
<path fill-rule="evenodd" clip-rule="evenodd" d="M82.5112 53.0998H82.2148C82.2148 35.4968 76.6404 29.8623 76.5811 29.8095L76.7919 29.5918C76.8446 29.6512 82.5112 35.3715 82.5112 53.0998Z" fill="#F3C975"/>
<path fill-rule="evenodd" clip-rule="evenodd" d="M87.9807 53.0988H87.6908C87.6908 35.5355 76.7331 29.8877 76.6211 29.835L76.7529 29.5645C76.8847 29.6238 87.9807 35.3441 87.9807 53.0988Z" fill="#F3C975"/>
<path fill-rule="evenodd" clip-rule="evenodd" d="M93.0872 53.0991H92.7907C92.7907 43.3475 88.4024 37.548 84.7191 34.3943C82.3574 32.3548 79.6134 30.8071 76.6475 29.8418L76.7265 29.5581C79.7346 30.5359 82.517 32.1062 84.9102 34.1766C88.6396 37.3633 93.0872 43.2354 93.0872 53.0991Z" fill="#F3C975"/>
<path fill-rule="evenodd" clip-rule="evenodd" d="M97.3111 53.0988H97.0146C97.0146 42.8656 91.4864 37.0926 86.8542 34.051C83.7477 32.0307 80.2936 30.6056 76.6675 29.8482L76.7202 29.5513C80.3796 30.3215 83.8662 31.7596 87.0058 33.7937C91.6972 36.8814 97.3111 42.7271 97.3111 53.0988Z" fill="#F3C975"/>
<path fill-rule="evenodd" clip-rule="evenodd" d="M71.1583 53.0998H70.8618C70.8618 35.3715 76.5284 29.6512 76.5811 29.5918L76.792 29.8095C76.7327 29.8623 71.1583 35.5166 71.1583 53.0998Z" fill="#F3C975"/>
<path fill-rule="evenodd" clip-rule="evenodd" d="M65.683 53.0988H65.3931C65.3931 35.3441 76.5089 29.6238 76.5945 29.5645L76.7263 29.835C76.6407 29.8877 65.683 35.5355 65.683 53.0988Z" fill="#F3C975"/>
<path fill-rule="evenodd" clip-rule="evenodd" d="M60.5831 53.0988H60.2866C60.2866 43.2021 64.7342 37.3631 68.4637 34.1697C70.8568 32.0994 73.6393 30.5291 76.6473 29.5513L76.7264 29.835C73.7585 30.8035 71.0125 32.3533 68.6482 34.3941C64.9715 37.5544 60.5831 43.3539 60.5831 53.0988Z" fill="#F3C975"/>
<path fill-rule="evenodd" clip-rule="evenodd" d="M56.3661 53.0988H56.0762C56.0762 42.7271 61.6769 36.8814 66.3749 33.7937C69.5145 31.7596 73.0011 30.3215 76.6605 29.5513L76.7132 29.8482C73.0871 30.6056 69.633 32.0307 66.5265 34.051C61.8944 37.0926 56.3661 42.8986 56.3661 53.0988Z" fill="#F3C975"/>
<path fill-rule="evenodd" clip-rule="evenodd" d="M102.075 53.0989C102.075 53.2563 102.012 53.4073 101.901 53.5186C101.79 53.6299 101.639 53.6925 101.482 53.6925H51.8924C51.7351 53.6925 51.5842 53.6299 51.473 53.5186C51.3618 53.4073 51.2993 53.2563 51.2993 53.0989C51.2993 52.9415 51.3618 52.7905 51.473 52.6792C51.5842 52.5679 51.7351 52.5054 51.8924 52.5054H101.482C101.639 52.5054 101.79 52.5679 101.901 52.6792C102.012 52.7905 102.075 52.9415 102.075 53.0989Z" fill="#BE8F2F"/>
<path fill-rule="evenodd" clip-rule="evenodd" d="M77.5242 28.9583H75.8506L76.4436 18.4941H76.9312L77.5242 28.9583Z" fill="#EAB246"/>
<path fill-rule="evenodd" clip-rule="evenodd" d="M78.6836 28.9577C78.6836 29.1734 78.5984 29.3804 78.4466 29.5336C78.2948 29.6868 78.0887 29.7737 77.8731 29.7755H75.5011C75.2979 29.7571 75.1089 29.6634 74.9713 29.5127C74.8336 29.362 74.7573 29.1652 74.7573 28.961C74.7573 28.7568 74.8336 28.56 74.9713 28.4093C75.1089 28.2585 75.2979 28.1648 75.5011 28.1465H77.8731C78.0881 28.1465 78.2942 28.2319 78.4462 28.3841C78.5982 28.5362 78.6836 28.7425 78.6836 28.9577Z" fill="#BE8F2F"/>
<path fill-rule="evenodd" clip-rule="evenodd" d="M77.1285 18.1509C76.7081 18.16 76.298 18.0198 75.9711 17.755C75.6441 17.4902 75.4214 17.118 75.3424 16.7044C75.2634 16.2908 75.3333 15.8626 75.5397 15.4957C75.746 15.1288 76.0755 14.847 76.4696 14.7002C76.0396 14.7361 75.6293 14.8967 75.2889 15.1624C74.9486 15.4281 74.6929 15.7873 74.5532 16.1961C74.4135 16.605 74.3958 17.0457 74.5022 17.4645C74.6087 17.8833 74.8347 18.2619 75.1526 18.5541C75.4706 18.8463 75.8667 19.0394 76.2925 19.1097C76.7183 19.1801 77.1553 19.1247 77.5501 18.9504C77.945 18.776 78.2805 18.4902 78.5158 18.1279C78.751 17.7656 78.8757 17.3426 78.8747 16.9105C78.8747 16.8115 78.8747 16.7191 78.8747 16.6268C78.8133 17.0477 78.6035 17.4328 78.2832 17.7123C77.963 17.9919 77.5534 18.1474 77.1285 18.1509Z" fill="#BE8F2F"/>
<path fill-rule="evenodd" clip-rule="evenodd" d="M104.678 139.299L86.4065 125.167L76.3581 117.395L74.4275 115.91C58.7314 103.773 39.4577 97.192 19.6261 97.1987H15.7583L66.3427 125.213L76.3845 130.775L91.7634 139.299H104.678Z" fill="url(#paint0_linear_37_492)"/>
<path fill-rule="evenodd" clip-rule="evenodd" d="M136.845 85.7845C116.07 84.6694 95.6832 93.0421 77.6554 110.13L76.9965 110.724L76.3705 110.13C58.3494 93.0421 37.9628 84.676 17.1874 85.7845L13.2998 90.337C35.426 87.9156 57.7432 96.3608 76.9965 114.623C96.2498 96.3608 118.567 87.9156 140.7 90.337L136.845 85.7845Z" fill="url(#paint1_linear_37_492)"/>
<path fill-rule="evenodd" clip-rule="evenodd" d="M15.83 87.3744L13.2998 90.3434C35.426 87.922 57.7432 96.3672 76.9965 114.63C96.2498 96.3672 118.567 87.922 140.7 90.3434L138.163 87.3744C116.92 86.4639 96.0851 94.8365 77.6423 111.753L76.9834 112.347L76.3244 111.753C57.9079 94.8365 37.0798 86.4441 15.83 87.3744Z" fill="url(#paint2_linear_37_492)"/>
<path fill-rule="evenodd" clip-rule="evenodd" d="M47.8398 139.3L66.7373 124.712L76.7857 116.94L78.7097 115.456C94.4156 103.305 113.703 96.7149 133.551 96.7178H137.419L86.8275 124.712L76.7857 130.274L60.537 139.28L47.8398 139.3Z" fill="url(#paint3_linear_37_492)"/>
<path d="M100.724 62.7715H52.6567V63.642H100.724V62.7715Z" fill="#344275"/>
<defs>
<filter id="filter0_b_37_492" x="-10" y="-10" width="174" height="174" filterUnits="userSpaceOnUse" color-interpolation-filters="sRGB">
<feFlood flood-opacity="0" result="BackgroundImageFix"/>
<feGaussianBlur in="BackgroundImageFix" stdDeviation="5"/>
<feComposite in2="SourceAlpha" operator="in" result="effect1_backgroundBlur_37_492"/>
<feBlend mode="normal" in="SourceGraphic" in2="effect1_backgroundBlur_37_492" result="shape"/>
</filter>
<linearGradient id="paint0_linear_37_492" x1="101.528" y1="137.208" x2="18.8502" y2="91.5908" gradientUnits="userSpaceOnUse">
<stop stop-color="#364A87"/>
<stop offset="1" stop-color="#5573B7"/>
</linearGradient>
<linearGradient id="paint1_linear_37_492" x1="76.9965" y1="92.4878" x2="76.9965" y2="156.691" gradientUnits="userSpaceOnUse">
<stop stop-color="#4359A3"/>
<stop offset="1" stop-color="#364A87"/>
</linearGradient>
<linearGradient id="paint2_linear_37_492" x1="132.556" y1="100.972" x2="25.6016" y2="100.972" gradientUnits="userSpaceOnUse">
<stop stop-color="#5573B7"/>
<stop offset="0.52" stop-color="#364A87"/>
<stop offset="1" stop-color="#5573B7"/>
</linearGradient>
<linearGradient id="paint3_linear_37_492" x1="128.503" y1="93.9995" x2="49.2193" y2="138.584" gradientUnits="userSpaceOnUse">
<stop stop-color="#5573B7"/>
<stop offset="1" stop-color="#364A87"/>
</linearGradient>
</defs>
</svg>
