<svg width="61" height="60" viewBox="0 0 61 60" fill="none" xmlns="http://www.w3.org/2000/svg">
<path fill-rule="evenodd" clip-rule="evenodd" d="M3.90747 31.1898V26.5258H56.7248V31.0342C47.6047 31.1994 38.7051 35.2153 30.7636 42.7895L30.4485 43.0755L30.1491 42.7895C22.1635 35.1644 13.2041 31.1422 4.02723 31.0342L3.90747 31.1898Z" fill="#F8ECD0"/>
<path fill-rule="evenodd" clip-rule="evenodd" d="M39.1841 36.3018H21.7475C16.075 32.896 10.1126 31.1104 4.04298 31.031L3.90747 31.1898V26.494H56.7248V31.0342C50.7119 31.1422 44.7936 32.9245 39.1841 36.3018Z" fill="#495DA2"/>
<path d="M56.7219 29.2168H3.90771V30.7005H56.7219V29.2168Z" fill="#344275"/>
<path d="M30.7764 26.6751H29.853V36.3018H30.7764V26.6751Z" fill="#3D5088"/>
<path fill-rule="evenodd" clip-rule="evenodd" d="M13.8596 32.6703V26.6751H14.783V32.9848C14.4773 32.8768 14.1685 32.772 13.8596 32.6703Z" fill="#3D5088"/>
<path fill-rule="evenodd" clip-rule="evenodd" d="M46.7727 32.7688V26.6751H45.8525V33.0929C46.1677 32.9785 46.4639 32.8736 46.7727 32.7688Z" fill="#3D5088"/>
<path fill-rule="evenodd" clip-rule="evenodd" d="M29.853 42.4909V36.0985H30.7795V42.7863L30.4644 43.0723L30.165 42.7863L29.853 42.4909Z" fill="#DCA638"/>
<path fill-rule="evenodd" clip-rule="evenodd" d="M17.9629 33.4646C17.9629 33.4646 18.0732 31.4916 16.8221 31.4916C15.7853 31.4916 15.6782 32.8514 15.6719 33.3153C16.4377 33.6108 17.2035 33.9348 17.9629 34.2875V33.4646Z" fill="#3D5088"/>
<path fill-rule="evenodd" clip-rule="evenodd" d="M21.5867 33.4646C21.5867 33.4646 21.7002 31.4916 20.4491 31.4916C19.198 31.4916 19.2988 33.4646 19.2988 33.4646V34.942C20.0678 35.336 20.8304 35.7553 21.5867 36.2128V33.4646Z" fill="#3D5088"/>
<path fill-rule="evenodd" clip-rule="evenodd" d="M25.2205 33.4646C25.2205 33.4646 25.334 31.4916 24.0829 31.4916C22.8318 31.4916 22.9326 33.4646 22.9326 33.4646V36.3018H25.2205V33.4646Z" fill="#3D5088"/>
<path fill-rule="evenodd" clip-rule="evenodd" d="M28.8353 33.4646C28.8353 33.4646 28.9487 31.4916 27.6976 31.4916C26.4465 31.4916 26.5474 33.4646 26.5474 33.4646V36.3018H28.8353V33.4646Z" fill="#3D5088"/>
<path fill-rule="evenodd" clip-rule="evenodd" d="M21.4294 36.1112H21.587V36.2094L21.4294 36.1112Z" fill="#D5C099"/>
<path fill-rule="evenodd" clip-rule="evenodd" d="M22.9294 37.0421V36.1112H25.2205V38.6275C24.4642 38.0683 23.7005 37.5399 22.9294 37.0421Z" fill="#D5C099"/>
<path fill-rule="evenodd" clip-rule="evenodd" d="M26.5598 39.6505V36.1112H28.8509V41.5822C28.0945 40.9172 27.3309 40.2733 26.5598 39.6505Z" fill="#D5C099"/>
<path fill-rule="evenodd" clip-rule="evenodd" d="M34.1485 33.4646C34.1485 33.4646 34.262 31.4916 33.0109 31.4916C31.7597 31.4916 31.8606 33.4646 31.8606 33.4646V36.3018H34.1485V33.4646Z" fill="#3D5088"/>
<path fill-rule="evenodd" clip-rule="evenodd" d="M37.7786 33.4646C37.7786 33.4646 37.8921 31.4916 36.641 31.4916C35.3899 31.4916 35.4907 33.4646 35.4907 33.4646V36.3018H37.7786V33.4646Z" fill="#3D5088"/>
<path fill-rule="evenodd" clip-rule="evenodd" d="M41.4061 33.4646C41.4061 33.4646 41.5195 31.4916 40.2684 31.4916C39.0173 31.4916 39.1182 33.4646 39.1182 33.4646V36.3018H39.1843C39.9176 35.8612 40.6529 35.4461 41.3903 35.0564L41.4061 33.4646Z" fill="#3D5088"/>
<path fill-rule="evenodd" clip-rule="evenodd" d="M45.0396 33.4011C45.0396 33.0548 45.0112 31.4948 43.8988 31.4948C42.6382 31.4948 42.7485 33.4678 42.7485 33.4678V34.3923C43.508 34.0333 44.277 33.6997 45.0396 33.4011Z" fill="#3D5088"/>
<path fill-rule="evenodd" clip-rule="evenodd" d="M31.8604 41.7792V36.1112H34.1514V39.8253C33.3783 40.4438 32.6146 41.0951 31.8604 41.7792Z" fill="#D5C099"/>
<path fill-rule="evenodd" clip-rule="evenodd" d="M35.4875 38.7896V36.1112H37.7786V37.1851C37.0097 37.6892 36.246 38.224 35.4875 38.7896Z" fill="#D5C099"/>
<path fill-rule="evenodd" clip-rule="evenodd" d="M39.1179 36.3423V36.1112H39.5024L39.1179 36.3423Z" fill="#D5C099"/>
<path fill-rule="evenodd" clip-rule="evenodd" d="M48.9566 32.1173C48.8558 31.7711 48.6825 31.4821 48.3894 31.4821C48.0018 31.4821 47.8221 31.9648 47.7371 32.4507C48.1446 32.3364 48.5512 32.2252 48.9566 32.1173Z" fill="#3D5088"/>
<path fill-rule="evenodd" clip-rule="evenodd" d="M50.9928 31.6473C50.9512 31.599 50.8999 31.5601 50.8423 31.5333C50.7847 31.5064 50.7221 31.4922 50.6586 31.4916C50.5621 31.4974 50.469 31.5302 50.3899 31.5863C50.3109 31.6425 50.2489 31.7197 50.2109 31.8094L50.9928 31.6473Z" fill="#3D5088"/>
<path fill-rule="evenodd" clip-rule="evenodd" d="M10.463 31.7544C10.4227 31.6778 10.363 31.6132 10.29 31.5671C10.2169 31.5209 10.1331 31.4949 10.0468 31.4916C9.93625 31.4916 9.82996 31.5347 9.75049 31.6119C9.98694 31.6562 10.2423 31.7037 10.463 31.7544Z" fill="#3D5088"/>
<path fill-rule="evenodd" clip-rule="evenodd" d="M12.952 32.3904C12.8638 31.9267 12.6841 31.4916 12.3217 31.4916C12.0444 31.4916 11.8711 31.7425 11.7671 32.0633C12.161 32.1649 12.5549 32.2729 12.952 32.3904Z" fill="#3D5088"/>
<path fill-rule="evenodd" clip-rule="evenodd" d="M38.9479 36.4541H21.9839C21.757 36.3144 21.5301 36.181 21.3032 36.0476H39.6286C39.4017 36.1715 39.1748 36.3048 38.9479 36.4541Z" fill="#DCA638"/>
<path d="M41.8126 18.5862H18.8232V23.4345H41.8126V18.5862Z" fill="#495DA2"/>
<path d="M41.8126 18.5862H18.8232V19.2531H41.8126V18.5862Z" fill="#3D5088"/>
<path d="M30.6724 18.4908H29.957V23.4345H30.6724V18.4908Z" fill="#344275"/>
<path d="M24.294 18.4908H23.5786V23.4345H24.294V18.4908Z" fill="#344275"/>
<path d="M37.0506 18.4908H36.3352V23.4345H37.0506V18.4908Z" fill="#344275"/>
<path fill-rule="evenodd" clip-rule="evenodd" d="M20.7488 20.772C20.7488 20.772 20.8024 19.93 20.1973 19.93C19.5923 19.93 19.6395 20.772 19.6395 20.772V23.428H20.7488V20.772Z" fill="#3D5088"/>
<path fill-rule="evenodd" clip-rule="evenodd" d="M22.7276 20.772C22.7276 20.772 22.7812 19.93 22.1761 19.93C21.571 19.93 21.6183 20.772 21.6183 20.772V23.428H22.7276V20.772Z" fill="#3D5088"/>
<path fill-rule="evenodd" clip-rule="evenodd" d="M33.0329 20.772C33.0329 20.772 33.0927 19.93 32.4026 19.93C31.7124 19.93 31.7723 20.772 31.7723 20.772V23.428H33.0329V20.772Z" fill="#3D5088"/>
<path fill-rule="evenodd" clip-rule="evenodd" d="M35.2638 20.772C35.2638 20.772 35.3237 19.93 34.6335 19.93C33.9434 19.93 34.0033 20.772 34.0033 20.772V23.428H35.2638V20.772Z" fill="#3D5088"/>
<path fill-rule="evenodd" clip-rule="evenodd" d="M26.6513 20.772C26.6513 20.772 26.7111 19.93 26.021 19.93C25.3308 19.93 25.3907 20.772 25.3907 20.772V23.428H26.6513V20.772Z" fill="#3D5088"/>
<path fill-rule="evenodd" clip-rule="evenodd" d="M28.8825 20.772C28.8825 20.772 28.9423 19.93 28.2522 19.93C27.562 19.93 27.6219 20.772 27.6219 20.772V23.428H28.8825V20.772Z" fill="#3D5088"/>
<path fill-rule="evenodd" clip-rule="evenodd" d="M39.0551 20.772C39.0551 20.772 39.1118 19.93 38.5036 19.93C37.8954 19.93 37.949 20.772 37.949 20.772V23.428H39.0551V20.772Z" fill="#3D5088"/>
<path fill-rule="evenodd" clip-rule="evenodd" d="M41.0373 20.772C41.0373 20.772 41.0909 19.9333 40.4953 19.9333C39.8997 19.9333 39.9375 20.7752 39.9375 20.7752V23.4281H41.0468L41.0373 20.772Z" fill="#3D5088"/>
<path fill-rule="evenodd" clip-rule="evenodd" d="M3.90747 26.5258L18.823 23.4281H41.8092L56.7248 26.5194C56.7248 26.5194 34.2396 30.4178 3.90747 26.5258Z" fill="#495DA2"/>
<mask id="mask0_12_311" style="mask-type:luminance" maskUnits="userSpaceOnUse" x="3" y="23" width="54" height="6">
<path d="M3.90771 26.5258L18.8232 23.4281H41.8095L56.725 26.5194C56.725 26.5194 34.2398 30.4178 3.90771 26.5258Z" fill="white"/>
</mask>
<g mask="url(#mask0_12_311)">
<path d="M18.741 23.3169L14.2432 26.3778L14.4018 26.6148L18.8997 23.5539L18.741 23.3169Z" fill="#3D5088"/>
<path d="M41.8971 23.3299L41.7385 23.567L46.2386 26.6246L46.3972 26.3876L41.8971 23.3299Z" fill="#3D5088"/>
</g>
<path d="M30.458 23.4344H30.1746V26.5258H30.458V23.4344Z" fill="#3D5088"/>
<path d="M56.7219 26.1446H3.90771V29.9825H56.7219V26.1446Z" fill="#3D5088"/>
<path d="M5.39196 27.8793H4.0022V28.5621H5.39196V27.8793Z" fill="#344275"/>
<path d="M7.0465 27.8793H5.65674V28.5621H7.0465V27.8793Z" fill="#344275"/>
<path d="M8.69762 27.8793H7.30786V28.5621H8.69762V27.8793Z" fill="#344275"/>
<path d="M10.3522 27.8793H8.9624V28.5621H10.3522V27.8793Z" fill="#344275"/>
<path d="M12.0035 27.8793H10.6138V28.5621H12.0035V27.8793Z" fill="#344275"/>
<path d="M13.6581 27.8793H12.2683V28.5621H13.6581V27.8793Z" fill="#344275"/>
<path d="M15.3092 27.8793H13.9194V28.5621H15.3092V27.8793Z" fill="#344275"/>
<path d="M16.9637 27.8793H15.574V28.5621H16.9637V27.8793Z" fill="#344275"/>
<path d="M18.6154 27.8793H17.2256V28.5621H18.6154V27.8793Z" fill="#344275"/>
<path d="M20.2665 27.8793H18.8767V28.5621H20.2665V27.8793Z" fill="#344275"/>
<path d="M21.9208 27.8793H20.531V28.5621H21.9208V27.8793Z" fill="#344275"/>
<path d="M23.5724 27.8793H22.1826V28.5621H23.5724V27.8793Z" fill="#344275"/>
<path d="M25.2269 27.8793H23.8372V28.5621H25.2269V27.8793Z" fill="#344275"/>
<path d="M26.878 27.8793H25.4883V28.5621H26.878V27.8793Z" fill="#344275"/>
<path d="M28.5326 27.8793H27.1428V28.5621H28.5326V27.8793Z" fill="#344275"/>
<path d="M30.184 27.8793H28.7942V28.5621H30.184V27.8793Z" fill="#344275"/>
<path d="M31.8353 27.8793H30.4456V28.5621H31.8353V27.8793Z" fill="#344275"/>
<path d="M33.4896 27.8793H32.0999V28.5621H33.4896V27.8793Z" fill="#344275"/>
<path d="M35.141 27.8793H33.7512V28.5621H35.141V27.8793Z" fill="#344275"/>
<path d="M36.7955 27.8793H35.4058V28.5621H36.7955V27.8793Z" fill="#344275"/>
<path d="M38.4469 27.8793H37.0571V28.5621H38.4469V27.8793Z" fill="#344275"/>
<path d="M40.1012 27.8793H38.7114V28.5621H40.1012V27.8793Z" fill="#344275"/>
<path d="M41.7526 27.8793H40.3628V28.5621H41.7526V27.8793Z" fill="#344275"/>
<path d="M43.4071 27.8793H42.0173V28.5621H43.4071V27.8793Z" fill="#344275"/>
<path d="M45.0582 27.8793H43.6685V28.5621H45.0582V27.8793Z" fill="#344275"/>
<path d="M46.7098 27.8793H45.3201V28.5621H46.7098V27.8793Z" fill="#344275"/>
<path d="M48.3644 27.8793H46.9746V28.5621H48.3644V27.8793Z" fill="#344275"/>
<path d="M50.0155 27.8793H48.6257V28.5621H50.0155V27.8793Z" fill="#344275"/>
<path d="M51.67 27.8793H50.2803V28.5621H51.67V27.8793Z" fill="#344275"/>
<path d="M53.3214 27.8793H51.9316V28.5621H53.3214V27.8793Z" fill="#344275"/>
<path d="M54.9759 27.8793H53.5862V28.5621H54.9759V27.8793Z" fill="#344275"/>
<path d="M56.6273 27.8793H55.2375V28.5621H56.6273V27.8793Z" fill="#344275"/>
<path d="M56.7219 25.9348H3.90771V26.354H56.7219V25.9348Z" fill="#344275"/>
<path fill-rule="evenodd" clip-rule="evenodd" d="M30.3164 7.22482C19.9767 7.22482 18.8232 18.4941 18.8232 18.4941H41.8095C41.8095 18.4941 40.6561 7.22482 30.3164 7.22482Z" fill="#EAB246"/>
<path fill-rule="evenodd" clip-rule="evenodd" d="M32.4089 7.39316C32.4089 8.48291 31.974 14.6465 23.585 18.4909H41.8126C41.8126 18.4909 40.8105 8.79109 32.4089 7.39316Z" fill="#DCA638"/>
<path d="M30.3862 7.22153H30.2439V18.4876H30.3862V7.22153Z" fill="#F3C975"/>
<path fill-rule="evenodd" clip-rule="evenodd" d="M33.1021 18.4908H32.9603C32.9603 10.0143 30.2942 7.30101 30.2659 7.27559L30.3667 7.17075C30.3919 7.19934 33.1021 9.95391 33.1021 18.4908Z" fill="#F3C975"/>
<path fill-rule="evenodd" clip-rule="evenodd" d="M35.7177 18.4909H35.579C35.579 10.0334 30.3382 7.31373 30.2847 7.28831L30.3477 7.15805C30.4107 7.18664 35.7177 9.94122 35.7177 18.4909Z" fill="#F3C975"/>
<path fill-rule="evenodd" clip-rule="evenodd" d="M38.1601 18.4909H38.0183C38.0183 13.7951 35.9194 11.0024 34.1578 9.48374C33.0283 8.50161 31.7159 7.75635 30.2974 7.29153L30.3352 7.15491C31.7739 7.62577 33.1046 8.38192 34.2492 9.37889C36.0329 10.9134 38.1601 13.7411 38.1601 18.4909Z" fill="#F3C975"/>
<path fill-rule="evenodd" clip-rule="evenodd" d="M40.1802 18.4908H40.0384C40.0384 13.5631 37.3944 10.7831 35.1789 9.31847C33.6932 8.34564 32.0412 7.6594 30.3069 7.29464L30.3321 7.15167C32.0823 7.52259 33.7499 8.21509 35.2514 9.19456C37.4952 10.6815 40.1802 13.4964 40.1802 18.4908Z" fill="#F3C975"/>
<path fill-rule="evenodd" clip-rule="evenodd" d="M27.6723 18.4908H27.5305C27.5305 9.95391 30.2407 7.19934 30.2659 7.17075L30.3668 7.27559C30.3384 7.30101 27.6723 10.0238 27.6723 18.4908Z" fill="#F3C975"/>
<path fill-rule="evenodd" clip-rule="evenodd" d="M25.0535 18.4909H24.9148C24.9148 9.94122 30.2312 7.18664 30.2722 7.15805L30.3352 7.28831C30.2942 7.31373 25.0535 10.0334 25.0535 18.4909Z" fill="#F3C975"/>
<path fill-rule="evenodd" clip-rule="evenodd" d="M22.6142 18.4908H22.4724C22.4724 13.7251 24.5996 10.9134 26.3833 9.37566C27.5279 8.37869 28.8586 7.62253 30.2973 7.15167L30.3351 7.28829C28.9157 7.75469 27.6023 8.50096 26.4715 9.48368C24.7131 11.0055 22.6142 13.7982 22.6142 18.4908Z" fill="#F3C975"/>
<path fill-rule="evenodd" clip-rule="evenodd" d="M20.5974 18.4908H20.4587C20.4587 13.4964 23.1374 10.6815 25.3844 9.19456C26.8859 8.21509 28.5535 7.52259 30.3037 7.15167L30.3289 7.29464C28.5946 7.6594 26.9426 8.34564 25.4569 9.31847C23.2414 10.7831 20.5974 13.579 20.5974 18.4908Z" fill="#F3C975"/>
<path fill-rule="evenodd" clip-rule="evenodd" d="M42.4584 18.4908C42.4584 18.5666 42.4286 18.6393 42.3754 18.6929C42.3222 18.7465 42.2501 18.7766 42.1748 18.7766H18.4575C18.3822 18.7766 18.3101 18.7465 18.2569 18.6929C18.2037 18.6393 18.1738 18.5666 18.1738 18.4908C18.1738 18.415 18.2037 18.3423 18.2569 18.2887C18.3101 18.2351 18.3822 18.205 18.4575 18.205H42.1748C42.2501 18.205 42.3222 18.2351 42.3754 18.2887C42.4286 18.3423 42.4584 18.415 42.4584 18.4908Z" fill="#BE8F2F"/>
<path fill-rule="evenodd" clip-rule="evenodd" d="M30.7165 6.86573H29.916L30.1996 1.82681H30.4328L30.7165 6.86573Z" fill="#EAB246"/>
<path fill-rule="evenodd" clip-rule="evenodd" d="M31.2711 6.8656C31.2711 6.96949 31.2304 7.06918 31.1578 7.14294C31.0852 7.2167 30.9866 7.25856 30.8835 7.25939H29.749C29.6519 7.25057 29.5615 7.20544 29.4956 7.13286C29.4298 7.06028 29.3933 6.96551 29.3933 6.86718C29.3933 6.76886 29.4298 6.67409 29.4956 6.60151C29.5615 6.52893 29.6519 6.4838 29.749 6.47498H30.8835C30.9863 6.47498 31.0849 6.51613 31.1576 6.58939C31.2303 6.66264 31.2711 6.762 31.2711 6.8656Z" fill="#BE8F2F"/>
<path fill-rule="evenodd" clip-rule="evenodd" d="M30.5272 1.66164C30.3261 1.66606 30.13 1.59852 29.9736 1.47102C29.8172 1.34351 29.7107 1.16428 29.6729 0.965122C29.6352 0.765964 29.6686 0.559752 29.7673 0.383077C29.866 0.206402 30.0236 0.0706828 30.2121 0C30.0064 0.0172895 29.8102 0.0946303 29.6474 0.222563C29.4846 0.350495 29.3623 0.523478 29.2955 0.720356C29.2287 0.917233 29.2202 1.12947 29.2711 1.33112C29.322 1.53278 29.4301 1.71511 29.5822 1.85581C29.7342 1.99651 29.9237 2.08949 30.1273 2.12338C30.331 2.15728 30.54 2.13061 30.7288 2.04665C30.9177 1.96268 31.0782 1.82506 31.1907 1.6506C31.3032 1.47615 31.3628 1.27242 31.3623 1.06434C31.3623 1.01668 31.3623 0.9722 31.3623 0.92772C31.333 1.13043 31.2326 1.31587 31.0795 1.45048C30.9263 1.58509 30.7304 1.65999 30.5272 1.66164Z" fill="#BE8F2F"/>
<path fill-rule="evenodd" clip-rule="evenodd" d="M43.7033 60L34.9645 53.1946L30.1586 49.4519L29.2353 48.7371C21.7282 42.8925 12.5101 39.7235 3.02516 39.7267H1.17529L25.3685 53.2168L30.1712 55.8951L37.5266 60H43.7033Z" fill="url(#paint0_linear_12_311)"/>
<path fill-rule="evenodd" clip-rule="evenodd" d="M59.0886 34.2304C49.1522 33.6934 39.4018 37.7252 30.7796 45.9539L30.4645 46.2399L30.1651 45.9539C21.546 37.7252 11.7957 33.6966 1.85932 34.2304L0 36.4226C10.5824 35.2566 21.2561 39.3233 30.4645 48.1176C39.6729 39.3233 50.3466 35.2566 60.9321 36.4226L59.0886 34.2304Z" fill="url(#paint1_linear_12_311)"/>
<path fill-rule="evenodd" clip-rule="evenodd" d="M1.21013 34.996L0 36.4257C10.5824 35.2597 21.2561 39.3265 30.4645 48.1207C39.6729 39.3265 50.3466 35.2597 60.9321 36.4257L59.7189 34.996C49.5588 34.5576 39.5941 38.5894 30.7733 46.7355L30.4582 47.0215L30.1431 46.7355C21.3349 38.5894 11.3734 34.5481 1.21013 34.996Z" fill="url(#paint2_linear_12_311)"/>
<path fill-rule="evenodd" clip-rule="evenodd" d="M16.5195 60L25.5577 52.9754L30.3636 49.2327L31.2838 48.5179C38.7955 42.6669 48.0203 39.4934 57.5128 39.4948H59.3627L35.1663 52.9754L30.3636 55.6537L22.5923 59.9905L16.5195 60Z" fill="url(#paint3_linear_12_311)"/>
<path d="M41.8126 23.1485H18.8232V23.5677H41.8126V23.1485Z" fill="#344275"/>
<defs>
<linearGradient id="paint0_linear_12_311" x1="42.1969" y1="58.9928" x2="2.52884" y2="37.2548" gradientUnits="userSpaceOnUse">
<stop stop-color="#364A87"/>
<stop offset="1" stop-color="#5573B7"/>
</linearGradient>
<linearGradient id="paint1_linear_12_311" x1="30.4645" y1="37.4583" x2="30.4645" y2="68.3749" gradientUnits="userSpaceOnUse">
<stop stop-color="#4359A3"/>
<stop offset="1" stop-color="#364A87"/>
</linearGradient>
<linearGradient id="paint2_linear_12_311" x1="57.037" y1="41.5441" x2="5.88364" y2="41.5441" gradientUnits="userSpaceOnUse">
<stop stop-color="#5573B7"/>
<stop offset="0.52" stop-color="#364A87"/>
<stop offset="1" stop-color="#5573B7"/>
</linearGradient>
<linearGradient id="paint3_linear_12_311" x1="55.0989" y1="38.1859" x2="17.0556" y2="59.4336" gradientUnits="userSpaceOnUse">
<stop stop-color="#5573B7"/>
<stop offset="1" stop-color="#364A87"/>
</linearGradient>
</defs>
</svg>
