<svg width="235" height="55" viewBox="0 0 235 55" fill="none" xmlns="http://www.w3.org/2000/svg">
<path fill-rule="evenodd" clip-rule="evenodd" d="M54.2525 50.3225H54.5662V51.991H52.6055V44.0459H51.4487C51.2972 44.0411 51.1465 44.0687 51.0063 44.1269C50.8661 44.1851 50.7396 44.2726 50.635 44.3836C50.5322 44.488 50.4507 44.6119 50.3952 44.7482C50.3397 44.8845 50.3112 45.0306 50.3115 45.1781V50.3225H51.929L51.331 51.991H48.6841V45.1781C48.6854 44.809 48.7584 44.4438 48.899 44.1033C49.0396 43.7628 49.2451 43.4537 49.5036 43.1936C49.7622 42.9336 50.0687 42.7276 50.4058 42.5876C50.7429 42.4475 51.1039 42.3762 51.4683 42.3775H54.2427L54.2525 50.3225Z" fill="white"/>
<path fill-rule="evenodd" clip-rule="evenodd" d="M59.4288 50.3518H59.6347V51.9905H54.2231V50.3518H57.821V39.6756L59.4288 39.0698V50.3518Z" fill="white"/>
<path fill-rule="evenodd" clip-rule="evenodd" d="M62.8405 39.6463L64.4777 39.0405V51.991H59.125V50.3225H62.8405V39.6463Z" fill="white"/>
<path fill-rule="evenodd" clip-rule="evenodd" d="M68.105 39.0698V51.9905H66.458V39.6458L68.105 39.0698Z" fill="white"/>
<path fill-rule="evenodd" clip-rule="evenodd" d="M82.3692 45.9329V51.991H77.6047C76.9821 51.9897 76.3658 51.864 75.7912 51.6211C75.2165 51.3782 74.6948 51.0229 74.2559 50.5755C73.817 50.1281 73.4695 49.5974 73.2333 49.0138C72.9971 48.4301 72.8769 47.805 72.8794 47.1743V42.9832L74.5166 42.3774V47.1743C74.5095 47.5901 74.5869 48.003 74.7437 48.3874C74.9005 48.7717 75.1336 49.1194 75.4284 49.4088C75.7094 49.7049 76.0478 49.9388 76.4223 50.0961C76.7968 50.2533 77.1994 50.3304 77.6047 50.3225H80.732V42.3774H82.3692V45.9329ZM78.7419 54.9803L77.5753 53.7886L78.7419 52.6365L79.8693 53.7886L78.7419 54.9803Z" fill="white"/>
<path fill-rule="evenodd" clip-rule="evenodd" d="M85.9664 50.322V51.9905H84.1724V39.6458L85.8194 39.0698V50.322H85.9664Z" fill="white"/>
<path fill-rule="evenodd" clip-rule="evenodd" d="M91.5158 50.323V51.9915H89.4178V50.8097C89.15 51.0437 88.8574 51.2469 88.5453 51.4155C88.0972 51.6531 87.6189 51.8269 87.1238 51.9319C86.8545 51.9726 86.5824 51.9925 86.3101 51.9915H85.5454V50.323H85.9376C86.3377 50.319 86.7372 50.2892 87.1336 50.2337C87.7874 50.0472 88.3642 49.6514 88.7777 49.1055C89.1912 48.5595 89.4192 47.8927 89.4276 47.2046V42.9837L91.0452 42.378V50.323H91.5158ZM91.2511 40.2427L90.0942 41.4245L88.9571 40.2725L88.6041 40.63L87.8003 41.4245L86.6336 40.2427L87.3591 39.5277L87.8003 39.1006L88.0061 39.3092L88.6041 39.915L88.9571 40.2427L90.0942 39.1006L91.2511 40.2427Z" fill="white"/>
<path fill-rule="evenodd" clip-rule="evenodd" d="M94.6626 48.018V45.1975C94.658 44.8278 94.7277 44.461 94.8676 44.1195C95.0075 43.778 95.2146 43.4689 95.4763 43.2112C95.7284 42.9424 96.0328 42.7294 96.3703 42.5859C96.7078 42.4423 97.071 42.3712 97.437 42.377H100.731C101.002 42.3452 101.253 42.2146 101.437 42.0095C101.625 41.8051 101.727 41.5343 101.721 41.2548V39.0698H104.496C104.86 39.0685 105.222 39.1403 105.559 39.2811C105.896 39.4219 106.202 39.6289 106.46 39.8901C106.718 40.1514 106.922 40.4617 107.061 40.8033C107.2 41.1449 107.271 41.511 107.27 41.8804V44.6711L105.652 44.0951V41.8705C105.656 41.6103 105.57 41.357 105.407 41.1554C105.264 40.9515 105.051 40.8096 104.809 40.7582C104.71 40.7165 104.603 40.6962 104.496 40.6986H103.358V41.2746C103.345 41.6141 103.279 41.9493 103.162 42.2677C102.962 42.7645 102.621 43.1898 102.182 43.4893C101.749 43.8111 101.237 44.0038 100.702 44.0455H97.437C97.2858 44.0425 97.1356 44.0709 96.9957 44.129C96.8558 44.1871 96.729 44.2736 96.6233 44.3831C96.5129 44.4832 96.4244 44.6056 96.3637 44.7425C96.3029 44.8793 96.2711 45.0275 96.2704 45.1776V46.3595H107.24V50.332H107.299V52.0005H91.1235V50.332H105.643V48.0081L94.6626 48.018Z" fill="white"/>
<path fill-rule="evenodd" clip-rule="evenodd" d="M110.613 39.6463L112.24 39.0405V51.991H106.888V50.3225H110.613V39.6463Z" fill="white"/>
<path fill-rule="evenodd" clip-rule="evenodd" d="M118.289 39.5875H119.417V40.0741H117.779V39.8854C117.777 39.7003 117.811 39.5166 117.879 39.3449C117.948 39.1733 118.049 39.0172 118.178 38.8858C118.307 38.7545 118.46 38.6505 118.629 38.58C118.798 38.5094 118.979 38.4738 119.162 38.4751H119.593L119.417 38.932H119.162C118.963 38.9315 118.771 39.0058 118.623 39.1405C118.467 39.262 118.351 39.4281 118.289 39.6173V39.5875ZM130.416 42.3782V50.7305L128.799 50.1246V44.0466H127.632C127.482 44.0439 127.334 44.0724 127.195 44.1305C127.057 44.1886 126.932 44.275 126.828 44.3843C126.722 44.4927 126.638 44.6214 126.58 44.7628C126.523 44.9043 126.494 45.0557 126.495 45.2086V51.9917H121.72C120.468 51.9865 119.268 51.4808 118.381 50.5845C117.495 49.6882 116.993 48.4737 116.985 47.2048V42.3782H117.819C118.442 42.3683 119.062 42.4894 119.637 42.7338C120.212 42.9783 120.731 43.3407 121.162 43.7984C121.61 44.2403 121.965 44.7704 122.205 45.3561C122.444 45.9418 122.563 46.5709 122.554 47.2048V48.6051L120.936 48.0192V47.2048C120.944 46.5019 120.712 45.8177 120.279 45.2682C119.862 44.7281 119.285 44.3382 118.632 44.1559V47.2048C118.632 47.6152 118.712 48.0215 118.868 48.4005C119.023 48.7795 119.251 49.1237 119.537 49.4134C119.824 49.7031 120.165 49.9326 120.539 50.0887C120.914 50.2449 121.315 50.3246 121.72 50.3233H124.848V45.1192C124.863 44.3868 125.161 43.6897 125.678 43.1773C126.195 42.6649 126.889 42.378 127.612 42.3782H130.416Z" fill="white"/>
<path fill-rule="evenodd" clip-rule="evenodd" d="M134.562 42.3774V52.1598C134.568 52.5305 134.497 52.8983 134.355 53.2401C134.214 53.5819 134.004 53.8903 133.739 54.1461C133.482 54.4076 133.176 54.615 132.84 54.7565C132.503 54.8979 132.143 54.9706 131.778 54.9704H131.298L131.749 53.3019C131.902 53.3057 132.053 53.2776 132.195 53.2196C132.337 53.1615 132.465 53.0746 132.572 52.9643C132.682 52.8602 132.768 52.7338 132.825 52.5934C132.883 52.453 132.91 52.3018 132.906 52.1499V43.0627L134.562 42.3774Z" fill="white"/>
<path fill-rule="evenodd" clip-rule="evenodd" d="M137.749 50.322V51.9905H135.965V39.6458L137.612 39.0698V50.322H137.749Z" fill="white"/>
<path fill-rule="evenodd" clip-rule="evenodd" d="M142.514 47.532H144.808V44.0759H143.592C143.297 44.0869 143.019 44.2154 142.818 44.4334C142.719 44.5358 142.641 44.6569 142.589 44.7899C142.537 44.9229 142.511 45.065 142.514 45.208V47.532ZM143.641 42.3776H146.455V51.9912H137.21V50.3227H144.808V49.1707H140.886V45.1186C140.902 44.3862 141.2 43.6891 141.716 43.1767C142.233 42.6643 142.928 42.3775 143.651 42.3776H143.641ZM142.514 41.3845L141.347 40.2126L142.514 39.0605L143.641 40.2126L144.808 39.0605L145.945 40.2126L144.808 41.3845L143.641 40.2324L142.514 41.3845Z" fill="white"/>
<path fill-rule="evenodd" clip-rule="evenodd" d="M160.689 54.9799H155.925C154.671 54.9772 153.469 54.4707 152.583 53.5714C151.697 52.6721 151.2 51.4535 151.2 50.183V42.4068H151.347L152.837 42.9629V50.1632C152.833 50.5771 152.912 50.9876 153.068 51.3699C153.225 51.7522 153.456 52.0984 153.749 52.3878C154.029 52.6856 154.367 52.9214 154.741 53.0804C155.116 53.2394 155.519 53.318 155.925 53.3114H159.052V42.3869H160.689V54.9799ZM156.523 41.3938L155.396 40.2417L156.523 39.0698L157.69 40.2417L156.523 41.3938Z" fill="white"/>
<path fill-rule="evenodd" clip-rule="evenodd" d="M164.169 45.4162V50.5507H166.434V44.2343H165.345C165.193 44.2315 165.042 44.2609 164.902 44.3208C164.762 44.3806 164.636 44.4696 164.532 44.5819C164.426 44.6924 164.343 44.823 164.287 44.9662C164.232 45.1094 164.205 45.2624 164.208 45.4162H164.169ZM168.306 50.3819V52.0205H168.09V54.9999H162.522L163.12 53.3315H166.463V51.9907H162.542V45.2076C162.536 44.8368 162.606 44.4689 162.748 44.127C162.89 43.7851 163.1 43.4767 163.365 43.2213C163.621 42.9589 163.927 42.7516 164.263 42.6116C164.6 42.4717 164.962 42.4021 165.326 42.407H168.11V50.3521L168.306 50.3819Z" fill="white"/>
<path fill-rule="evenodd" clip-rule="evenodd" d="M173.493 50.3225V51.991H171.679V50.8092C171.41 51.0456 171.113 51.249 170.797 51.4149C170.353 51.654 169.877 51.8279 169.385 51.9314C169.116 51.9714 168.844 51.9913 168.571 51.991H167.797V50.3225H168.199C168.596 50.3181 168.992 50.2883 169.385 50.2331C170.037 50.0425 170.611 49.6455 171.023 49.1005C171.436 48.5555 171.666 47.8909 171.679 47.2041V42.9832L173.297 42.3774V50.3225H173.493ZM169.816 54.9803L168.65 53.7886L169.816 52.6365L170.944 53.7588L172.081 52.6365L173.189 53.7886L172.052 54.9704L170.944 53.7886L169.816 54.9803Z" fill="white"/>
<path fill-rule="evenodd" clip-rule="evenodd" d="M178.384 50.3518H178.59V51.9905H173.188V50.3518H176.786V39.6756L178.384 39.0698V50.3518Z" fill="white"/>
<path fill-rule="evenodd" clip-rule="evenodd" d="M185.934 50.323V45.1786C185.936 45.0276 185.906 44.8779 185.847 44.7393C185.788 44.6006 185.7 44.4762 185.591 44.3741C185.378 44.165 185.093 44.0476 184.797 44.0464H183.64V50.323H185.934ZM184.797 42.378C185.163 42.3721 185.526 42.4432 185.863 42.5868C186.201 42.7304 186.505 42.9433 186.757 43.2122C187.019 43.4699 187.226 43.7789 187.366 44.1204C187.506 44.4619 187.576 44.8287 187.571 45.1985V52.0113H182.012V50.8097C181.372 51.3856 180.583 51.7646 179.738 51.9021H179.493H179.179H178.199V50.2337H178.934C179.188 50.2141 179.441 50.1743 179.689 50.1145C180.312 49.9685 180.87 49.6211 181.281 49.1247C181.691 48.6284 181.931 48.0101 181.963 47.3635V42.2886L184.797 42.378Z" fill="white"/>
<path fill-rule="evenodd" clip-rule="evenodd" d="M23.7637 10.5779V27.6201H21.0481L20.8913 13.5275H18.8325C18.5667 13.5272 18.3037 13.5816 18.0593 13.6875C17.815 13.7933 17.5944 13.9484 17.411 14.1433C17.2186 14.3342 17.067 14.5632 16.9658 14.8161C16.8646 15.069 16.8159 15.3403 16.8228 15.6131V27.6201H8.39179C6.16695 27.6175 4.03398 26.721 2.46078 25.1273C0.887573 23.5335 0.00259457 21.3727 0 19.1189V10.5779H1.47052C2.56909 10.5689 3.65784 10.7881 4.66953 11.222C5.68121 11.6558 6.59436 12.2952 7.35262 13.1005C8.14526 13.8819 8.77296 14.8183 9.19763 15.8528C9.6223 16.8874 9.83507 17.9985 9.82309 19.1189V21.6017L6.95068 20.6086V19.1387C6.97006 17.9012 6.56074 16.6958 5.79387 15.7323C5.0601 14.7559 4.02469 14.0567 2.85282 13.746V19.1288C2.85541 20.6004 3.43362 22.0109 4.46079 23.0515C5.48796 24.0921 6.88034 24.6778 8.33297 24.6804H13.8719V15.4542C13.8976 14.1545 14.4253 12.9168 15.3418 12.007C16.2583 11.0971 17.4905 10.5876 18.7737 10.5878L23.7637 10.5779Z" fill="white"/>
<path fill-rule="evenodd" clip-rule="evenodd" d="M32.7145 24.6701V24.7197H43.7042V15.6127C43.7099 15.3392 43.6596 15.0674 43.5567 14.8145C43.4538 14.5616 43.3004 14.3329 43.1062 14.1428C42.924 13.9492 42.705 13.7948 42.4624 13.689C42.2198 13.5832 41.9586 13.5281 41.6945 13.5271H39.6358V15.7219C39.6101 17.0216 39.0824 18.2593 38.1659 19.1692C37.2494 20.079 36.0172 20.5886 34.734 20.5883H32.7733V24.6701H32.7145ZM46.6257 24.6105H47.2139V27.5899H23.1953V24.6105H29.7931V10.5278H32.7341V17.589H34.8419C35.3497 17.5606 35.8287 17.341 36.1849 16.9733C36.5496 16.6135 36.7666 16.1276 36.7928 15.6127V10.5278H41.6945C42.9875 10.5508 44.2211 11.0813 45.1355 12.0077C46.0499 12.934 46.5736 14.1837 46.5963 15.4935L46.6257 24.6105Z" fill="white"/>
<path fill-rule="evenodd" clip-rule="evenodd" d="M55.547 19.6744H59.6154V13.5269H57.5077C56.9902 13.5556 56.503 13.7829 56.145 14.1625C55.7899 14.5357 55.5929 15.0346 55.596 15.5529V19.6744H55.547ZM57.5567 10.5276H62.5369V27.5698H46.165V24.5904H59.6252V22.6042H52.6549V15.4138C52.6622 14.7684 52.7969 14.131 53.0512 13.5391C53.3054 12.9473 53.674 12.413 54.1353 11.9677C54.5818 11.507 55.1164 11.1435 55.7064 10.8993C56.2964 10.6551 56.9293 10.5354 57.5665 10.5475L57.5567 10.5276ZM55.547 8.78965L53.4883 6.70406L55.547 4.6582L57.5567 6.70406L59.6154 4.6582L61.635 6.70406L59.6154 8.78965L57.5567 6.74379L55.547 8.78965Z" fill="white"/>
<path fill-rule="evenodd" clip-rule="evenodd" d="M66.9581 2.08614H68.9678V2.95017H66.0267V2.52312C66.0154 2.19208 66.0753 1.86249 66.2023 1.55724C66.3293 1.25198 66.5202 0.978376 66.762 0.755345C66.9892 0.524476 67.2599 0.342212 67.5579 0.219377C67.856 0.0965415 68.1755 0.0356384 68.4972 0.0402864H69.2717L68.9776 0.91425H68.5364C68.1846 0.912055 67.8413 1.02334 67.5561 1.23203C67.2756 1.44436 67.0722 1.74464 66.9776 2.08614H66.9581ZM69.3305 24.6104H72.9872C72.7187 23.4797 72.0793 22.4748 71.1736 21.7602C70.2626 22.4754 69.6138 23.4787 69.3305 24.6104ZM73.1931 5.68129L76.1341 4.61863V27.57H66.3306V26.0803C66.2895 24.0517 66.9875 22.0788 68.2913 20.5386C68.1022 20.5206 67.9118 20.5206 67.7227 20.5386H66.2816V5.68129L69.1246 4.61863V17.7082C69.8401 17.8122 70.535 18.03 71.1834 18.3537C71.9089 18.673 72.5728 19.1202 73.1441 19.6746L73.1931 5.68129Z" fill="white"/>
<path fill-rule="evenodd" clip-rule="evenodd" d="M82.5259 4.6582V27.5698H79.6143V5.68113L82.5259 4.6582Z" fill="white"/>
<path fill-rule="evenodd" clip-rule="evenodd" d="M101.143 24.6098V27.5892H90.9863V24.6098H97.9271V13.4073H95.9174C95.6471 13.4018 95.3787 13.4548 95.1302 13.5626C94.8817 13.6705 94.6588 13.8309 94.4763 14.0329C94.1036 14.4243 93.8992 14.9492 93.9077 15.4929V21.5609L90.9666 20.4883V15.5226C90.9547 14.8671 91.0755 14.216 91.3217 13.6096C91.5679 13.0032 91.9342 12.4544 92.398 11.997C92.855 11.5298 93.4007 11.1614 94.0023 10.9138C94.6038 10.6663 95.2486 10.5449 95.8978 10.557H100.8V24.6396L101.143 24.6098Z" fill="white"/>
<path fill-rule="evenodd" clip-rule="evenodd" d="M117.064 24.6702V27.6496H100.28V24.6702H113.848V13.5272H111.79C111.265 13.5306 110.762 13.7408 110.388 14.1132C110.19 14.2951 110.034 14.5179 109.929 14.7663C109.824 15.0148 109.773 15.2831 109.78 15.5532V21.6014L106.839 20.5388V15.5731C106.857 14.2617 107.379 13.0091 108.294 12.0817C109.21 11.1544 110.446 10.6254 111.741 10.6074H116.721V24.7L117.064 24.6702ZM113.74 32.8636L111.682 30.7681L113.74 28.7321L115.76 30.7681L113.74 32.8636Z" fill="white"/>
<path fill-rule="evenodd" clip-rule="evenodd" d="M140.778 24.6103V27.5897H137.748L137.66 25.5041C136.133 26.864 134.164 27.6064 132.131 27.5897H130.67V25.5041C129.149 26.8748 127.177 27.6188 125.141 27.5897H123.749V25.5041C122.213 26.8629 120.239 27.6048 118.2 27.5897H116.416V24.6103H118.2C118.929 24.6242 119.653 24.4868 120.327 24.2067C121.002 23.9266 121.612 23.5097 122.122 22.9816C122.649 22.4829 123.068 21.8781 123.352 21.2061C123.635 20.534 123.777 19.8094 123.769 19.0785V11.6002L126.612 10.5277V24.4316C127.779 24.11 128.811 23.4129 129.553 22.4453C130.312 21.4888 130.72 20.2957 130.709 19.0686V11.5903L133.651 10.5177V24.4216C134.817 24.1 135.85 23.4029 136.592 22.4353C137.351 21.4789 137.759 20.2858 137.748 19.0587V11.5804L140.611 10.5078V24.5905L140.778 24.6103Z" fill="white"/>
<path fill-rule="evenodd" clip-rule="evenodd" d="M156.64 24.6108H156.954V27.5902H146.719V25.6039C145.578 26.5978 144.186 27.2511 142.7 27.4909C142.556 27.5292 142.407 27.546 142.259 27.5405C142.075 27.5809 141.887 27.5976 141.7 27.5902H140.033V24.6108H141.357C141.808 24.6114 142.259 24.5615 142.7 24.4618C143.807 24.1746 144.796 23.5381 145.523 22.6444C146.25 21.7823 146.671 20.6984 146.719 19.5657V10.5281H151.699C152.346 10.5208 152.986 10.6484 153.582 10.903C154.177 11.1576 154.714 11.5337 155.16 12.0079C155.627 12.468 155.996 13.0197 156.246 13.6293C156.495 14.2389 156.62 14.8936 156.611 15.5534V24.6108H156.64ZM153.797 24.6108V15.4938C153.802 15.2245 153.749 14.9574 153.642 14.7106C153.536 14.4639 153.378 14.2432 153.18 14.0637C152.997 13.8778 152.78 13.7303 152.541 13.6298C152.303 13.5292 152.046 13.4775 151.788 13.4777H149.729V24.6108H153.797Z" fill="white"/>
<path fill-rule="evenodd" clip-rule="evenodd" d="M162.679 5.68083L165.571 4.61816V27.5695H156.081V24.6199H162.679V5.68083Z" fill="white"/>
<path fill-rule="evenodd" clip-rule="evenodd" d="M171.992 4.6582V27.5698H169.081V5.68113L171.992 4.6582Z" fill="white"/>
<path fill-rule="evenodd" clip-rule="evenodd" d="M183.365 24.6701H187.443V13.5271H185.384C185.115 13.5241 184.848 13.5772 184.601 13.6831C184.353 13.789 184.129 13.9455 183.943 14.1429C183.76 14.3276 183.614 14.5474 183.515 14.7894C183.416 15.0315 183.365 15.291 183.365 15.5531V24.6701ZM185.384 10.5279H190.286V27.5701H180.453V15.4935C180.453 14.1766 180.97 12.9135 181.889 11.9823C182.808 11.051 184.055 10.5279 185.355 10.5279H185.384ZM183.669 8.64091L181.708 6.55532L183.669 4.46973L185.727 6.55532L187.737 4.46973L189.796 6.55532L187.737 8.64091L185.727 6.55532L183.669 8.64091Z" fill="white"/>
<path fill-rule="evenodd" clip-rule="evenodd" d="M194.07 2.08611H196.079V2.95013H193.138V2.48336C193.132 2.15441 193.194 1.82775 193.32 1.52481C193.447 1.22186 193.635 0.949467 193.873 0.72552C194.098 0.490034 194.368 0.30407 194.666 0.179308C194.965 0.0545452 195.286 -0.00633168 195.609 0.000520414H196.295L196.001 0.864543H195.609C195.257 0.862348 194.914 0.973664 194.628 1.18235C194.338 1.4062 194.133 1.72583 194.05 2.08611H194.07ZM196.079 4.65833V27.57H193.138V5.72099L196.079 4.65833Z" fill="white"/>
<path fill-rule="evenodd" clip-rule="evenodd" d="M203.413 24.6702V27.5702H203.118V27.8681C203.118 29.1851 202.602 30.4482 201.683 31.3794C200.764 32.3107 199.517 32.8338 198.217 32.8338H197.364L198.168 29.9239C198.439 29.9266 198.708 29.8744 198.959 29.7706C199.21 29.6667 199.438 29.5132 199.629 29.319C199.821 29.1248 199.973 28.8938 200.075 28.6396C200.178 28.3854 200.229 28.113 200.226 27.8383V11.7893L203.099 10.5776V24.6702H203.413Z" fill="white"/>
<path fill-rule="evenodd" clip-rule="evenodd" d="M211.903 19.6744H215.971V13.5269H213.814C213.297 13.5556 212.809 13.7829 212.451 14.1625C212.096 14.5357 211.899 15.0346 211.903 15.5529V19.6744ZM213.863 10.5276H218.843V27.5698H202.511V24.5904H215.971V22.6042H209.001V15.4138C209.008 14.7694 209.142 14.1329 209.395 13.5413C209.647 12.9497 210.013 12.4149 210.471 11.9677C210.92 11.5077 211.457 11.1447 212.048 10.9006C212.64 10.6565 213.274 10.5364 213.912 10.5475L213.863 10.5276ZM211.903 8.78965L209.844 6.70406L211.903 4.6582L213.961 6.70406L211.903 8.78965ZM216.069 8.78965L214.01 6.70406L216.069 4.6582L218.128 6.70406L216.069 8.78965Z" fill="white"/>
<path fill-rule="evenodd" clip-rule="evenodd" d="M232.059 24.6103V15.4933C232.063 15.225 232.011 14.9587 231.906 14.7122C231.801 14.4657 231.646 14.2445 231.451 14.0632C231.267 13.8761 231.049 13.728 230.808 13.6274C230.567 13.5268 230.309 13.4758 230.049 13.4773H227.99V24.6103H232.059ZM230.098 10.5277C231.394 10.5406 232.633 11.0679 233.55 11.9964C234.466 12.9248 234.987 14.1804 235 15.4933V27.5699H225.069V25.5339C223.939 26.5558 222.544 27.228 221.049 27.4706C220.901 27.474 220.754 27.4906 220.608 27.5202C220.421 27.5253 220.234 27.5419 220.049 27.5699H218.393V24.5905H219.706C220.158 24.5593 220.607 24.4929 221.049 24.3918C222.155 24.1311 223.145 23.5116 223.871 22.6277C224.596 21.7439 225.017 20.6441 225.069 19.4957V10.5078L230.098 10.5277Z" fill="white"/>
</svg>
