<svg width="173" height="187" viewBox="0 0 173 187" fill="none" xmlns="http://www.w3.org/2000/svg">
<path fill-rule="evenodd" clip-rule="evenodd" d="M39.939 183.586H40.1699V184.804H38.7265V179.004H37.8749C37.7635 179.001 37.6525 179.021 37.5493 179.063C37.4461 179.106 37.3529 179.17 37.2759 179.251C37.2002 179.327 37.1402 179.417 37.0994 179.517C37.0585 179.616 37.0376 179.723 37.0378 179.831V183.586H38.2286L37.7883 184.804H35.8397V179.831C35.8407 179.561 35.8944 179.295 35.9979 179.046C36.1015 178.797 36.2527 178.572 36.443 178.382C36.6334 178.192 36.8591 178.042 37.1072 177.94C37.3554 177.837 37.6211 177.785 37.8894 177.786H39.9318L39.939 183.586Z" fill="#5976B7"/>
<path fill-rule="evenodd" clip-rule="evenodd" d="M43.7496 183.607H43.9012V184.803H39.9174V183.607H42.566V175.814L43.7496 175.372V183.607Z" fill="#5976B7"/>
<path fill-rule="evenodd" clip-rule="evenodd" d="M46.2612 175.793L47.4664 175.351V184.803H43.5259V183.586H46.2612V175.793Z" fill="#5976B7"/>
<path fill-rule="evenodd" clip-rule="evenodd" d="M50.1367 175.372V184.803H48.9243V175.793L50.1367 175.372Z" fill="#5976B7"/>
<path fill-rule="evenodd" clip-rule="evenodd" d="M60.6376 180.381V184.803H57.1301C56.6717 184.803 56.218 184.711 55.795 184.534C55.372 184.356 54.9879 184.097 54.6648 183.77C54.3417 183.444 54.0858 183.056 53.912 182.63C53.7381 182.204 53.6496 181.748 53.6515 181.288V178.228L54.8567 177.786V181.288C54.8515 181.591 54.9084 181.893 55.0239 182.173C55.1393 182.454 55.3109 182.707 55.5279 182.919C55.7348 183.135 55.9839 183.306 56.2596 183.42C56.5353 183.535 56.8317 183.591 57.1301 183.586H59.4323V177.786H60.6376V180.381ZM57.9672 186.986L57.1084 186.116L57.9672 185.275L58.7972 186.116L57.9672 186.986Z" fill="#5976B7"/>
<path fill-rule="evenodd" clip-rule="evenodd" d="M63.2861 183.586V184.803H61.9654V175.793L63.1778 175.372V183.586H63.2861Z" fill="#5976B7"/>
<path fill-rule="evenodd" clip-rule="evenodd" d="M67.371 183.586V184.804H65.8266V183.941C65.6294 184.112 65.414 184.26 65.1842 184.383C64.8544 184.557 64.5023 184.683 64.1378 184.76C63.9395 184.79 63.7393 184.804 63.5388 184.804H62.9758V183.586H63.2645C63.5591 183.583 63.8532 183.561 64.145 183.52C64.6263 183.384 65.0509 183.095 65.3553 182.697C65.6597 182.298 65.8276 181.812 65.8338 181.309V178.229L67.0246 177.786V183.586H67.371ZM67.1762 176.228L66.3245 177.09L65.4874 176.25L65.2275 176.51L64.6358 177.09L63.777 176.228L64.311 175.706L64.6358 175.394L64.7873 175.546L65.2275 175.989L65.4874 176.228L66.3245 175.394L67.1762 176.228Z" fill="#5976B7"/>
<path fill-rule="evenodd" clip-rule="evenodd" d="M69.6879 181.904V179.845C69.6844 179.575 69.7358 179.307 69.8387 179.058C69.9417 178.809 70.0942 178.583 70.2869 178.395C70.4725 178.199 70.6966 178.044 70.945 177.939C71.1934 177.834 71.4608 177.782 71.7303 177.786H74.1552C74.3551 177.763 74.5397 177.668 74.6748 177.518C74.8134 177.369 74.8885 177.171 74.8841 176.967V175.372H76.9266C77.195 175.371 77.461 175.424 77.7093 175.526C77.9575 175.629 78.1831 175.78 78.3729 175.971C78.5628 176.162 78.7131 176.388 78.8154 176.638C78.9177 176.887 78.9699 177.154 78.969 177.424V179.461L77.7782 179.04V177.417C77.7812 177.227 77.7173 177.042 77.5977 176.895C77.4926 176.746 77.3354 176.642 77.1575 176.605C77.0844 176.574 77.0057 176.559 76.9266 176.561H76.0894V176.982C76.0798 177.229 76.0311 177.474 75.945 177.707C75.7979 178.069 75.5467 178.38 75.2233 178.598C74.905 178.833 74.5274 178.974 74.1336 179.004H71.7303C71.619 179.002 71.5084 179.023 71.4054 179.065C71.3024 179.107 71.2091 179.171 71.1313 179.251C71.05 179.324 70.9849 179.413 70.9401 179.513C70.8954 179.613 70.8719 179.721 70.8714 179.831V180.693H78.9473V183.593H78.9906V184.811H67.0825V183.593H77.7709V181.897L69.6879 181.904Z" fill="#5976B7"/>
<path fill-rule="evenodd" clip-rule="evenodd" d="M81.43 175.793L82.628 175.351V184.803H78.6875V183.586H81.43V175.793Z" fill="#5976B7"/>
<path fill-rule="evenodd" clip-rule="evenodd" d="M87.0808 175.749H87.9108V176.104H86.7055V175.967C86.7036 175.832 86.7286 175.697 86.7789 175.572C86.8293 175.447 86.904 175.333 86.9988 175.237C87.0936 175.141 87.2065 175.065 87.3309 175.014C87.4552 174.962 87.5886 174.936 87.7231 174.937H88.0407L87.9108 175.271H87.7231C87.5766 175.27 87.4352 175.325 87.3262 175.423C87.2115 175.512 87.126 175.633 87.0808 175.771V175.749ZM96.0083 177.786V183.883L94.8174 183.441V179.004H93.9587C93.8484 179.002 93.739 179.023 93.6371 179.065C93.5353 179.108 93.4433 179.171 93.3669 179.251C93.2886 179.33 93.2266 179.424 93.1844 179.527C93.1423 179.63 93.1209 179.741 93.1215 179.852V184.803H89.6068C88.6847 184.8 87.8013 184.431 87.1486 183.776C86.4959 183.122 86.1266 182.236 86.1209 181.309V177.786H86.7344C87.1936 177.779 87.6493 177.867 88.0729 178.046C88.4964 178.224 88.8786 178.489 89.1954 178.823C89.5257 179.145 89.7869 179.532 89.9632 179.96C90.1394 180.387 90.2268 180.847 90.2202 181.309V182.331L89.0294 181.904V181.309C89.0353 180.796 88.8645 180.297 88.5459 179.896C88.2388 179.502 87.8137 179.217 87.3334 179.084V181.309C87.3334 181.609 87.3922 181.905 87.5066 182.182C87.6209 182.459 87.7885 182.71 87.9997 182.921C88.2109 183.133 88.4615 183.3 88.7373 183.414C89.0131 183.528 89.3086 183.587 89.6068 183.586H91.909V179.787C91.9203 179.252 92.1397 178.744 92.5202 178.37C92.9006 177.996 93.4119 177.786 93.9442 177.786H96.0083Z" fill="#5976B7"/>
<path fill-rule="evenodd" clip-rule="evenodd" d="M99.0611 177.786V184.927C99.065 185.197 99.0131 185.466 98.9088 185.715C98.8045 185.965 98.6499 186.19 98.4549 186.377C98.2657 186.567 98.0407 186.719 97.793 186.822C97.5453 186.925 97.2797 186.978 97.0115 186.978H96.6579L96.9899 185.76C97.1023 185.763 97.2141 185.743 97.3184 185.7C97.4227 185.658 97.5172 185.594 97.5961 185.514C97.6766 185.438 97.7401 185.346 97.7824 185.243C97.8247 185.141 97.8448 185.03 97.8415 184.919V178.286L99.0611 177.786Z" fill="#5976B7"/>
<path fill-rule="evenodd" clip-rule="evenodd" d="M101.407 183.586V184.803H100.093V175.793L101.306 175.372V183.586H101.407Z" fill="#5976B7"/>
<path fill-rule="evenodd" clip-rule="evenodd" d="M104.914 181.549H106.603V179.026H105.708C105.491 179.034 105.286 179.128 105.138 179.287C105.065 179.362 105.008 179.45 104.97 179.547C104.931 179.644 104.912 179.748 104.914 179.852V181.549ZM105.744 177.786H107.815V184.803H101.01V183.586H106.603V182.745H103.716V179.787C103.727 179.252 103.947 178.744 104.327 178.37C104.708 177.995 105.219 177.786 105.751 177.786H105.744ZM104.914 177.061L104.055 176.206L104.914 175.365L105.744 176.206L106.603 175.365L107.44 176.206L106.603 177.061L105.744 176.22L104.914 177.061Z" fill="#5976B7"/>
<path fill-rule="evenodd" clip-rule="evenodd" d="M118.295 186.985H114.787C113.864 186.984 112.979 186.614 112.327 185.957C111.675 185.301 111.308 184.411 111.308 183.484V177.808H111.417L112.514 178.214V183.47C112.511 183.772 112.569 184.071 112.684 184.35C112.799 184.629 112.97 184.882 113.185 185.093C113.391 185.311 113.64 185.483 113.916 185.599C114.191 185.715 114.488 185.772 114.787 185.768H117.089V177.793H118.295V186.985ZM115.227 177.069L114.397 176.228L115.227 175.372L116.086 176.228L115.227 177.069Z" fill="#5976B7"/>
<path fill-rule="evenodd" clip-rule="evenodd" d="M120.857 180.005V183.752H122.524V179.142H121.723C121.611 179.14 121.5 179.161 121.396 179.205C121.293 179.249 121.2 179.314 121.124 179.396C121.046 179.476 120.985 179.572 120.944 179.676C120.903 179.781 120.883 179.892 120.885 180.005H120.857ZM123.902 183.629V184.825H123.743V187H119.644L120.084 185.782H122.545V184.803H119.659V179.852C119.654 179.582 119.706 179.313 119.81 179.064C119.915 178.814 120.069 178.589 120.265 178.402C120.453 178.211 120.678 178.06 120.926 177.957C121.174 177.855 121.44 177.804 121.708 177.808H123.758V183.607L123.902 183.629Z" fill="#5976B7"/>
<path fill-rule="evenodd" clip-rule="evenodd" d="M127.72 183.586V184.803H126.385V183.941C126.186 184.113 125.968 184.262 125.735 184.383C125.408 184.558 125.058 184.684 124.696 184.76C124.498 184.789 124.297 184.804 124.097 184.803H123.527V183.586H123.823C124.115 183.582 124.407 183.561 124.696 183.52C125.176 183.381 125.598 183.091 125.902 182.694C126.206 182.296 126.375 181.811 126.385 181.309V178.228L127.576 177.786V183.586H127.72ZM125.014 186.986L124.155 186.116L125.014 185.275L125.844 186.094L126.681 185.275L127.496 186.116L126.659 186.978L125.844 186.116L125.014 186.986Z" fill="#5976B7"/>
<path fill-rule="evenodd" clip-rule="evenodd" d="M131.321 183.607H131.473V184.803H127.496V183.607H130.145V175.814L131.321 175.372V183.607Z" fill="#5976B7"/>
<path fill-rule="evenodd" clip-rule="evenodd" d="M136.879 183.586V179.831C136.88 179.72 136.858 179.611 136.815 179.51C136.771 179.409 136.707 179.318 136.626 179.243C136.469 179.091 136.26 179.005 136.041 179.004H135.19V183.586H136.879ZM136.041 177.786C136.311 177.782 136.578 177.834 136.827 177.939C137.075 178.044 137.299 178.199 137.485 178.395C137.678 178.583 137.83 178.809 137.933 179.058C138.036 179.307 138.087 179.575 138.084 179.845V184.818H133.992V183.941C133.521 184.361 132.94 184.638 132.317 184.738H132.137H131.906H131.184V183.52H131.726C131.913 183.506 132.099 183.477 132.281 183.433C132.74 183.327 133.151 183.073 133.453 182.711C133.755 182.349 133.932 181.897 133.956 181.425V177.721L136.041 177.786Z" fill="#5976B7"/>
<path fill-rule="evenodd" clip-rule="evenodd" d="M17.4941 154.574V167.014H15.495L15.3795 156.727H13.8639C13.6683 156.727 13.4747 156.767 13.2948 156.844C13.1149 156.921 12.9525 157.035 12.8175 157.177C12.6758 157.316 12.5642 157.483 12.4897 157.668C12.4152 157.853 12.3794 158.051 12.3845 158.25V167.014H6.17779C4.53992 167.012 2.9697 166.358 1.81155 165.194C0.653405 164.031 0.00191005 162.454 0 160.809V154.574H1.08256C1.89129 154.568 2.6928 154.728 3.43757 155.045C4.18234 155.361 4.85457 155.828 5.41279 156.416C5.9963 156.986 6.4584 157.67 6.77102 158.425C7.08365 159.18 7.24029 159.991 7.23147 160.809V162.621L5.11688 161.896V160.823C5.13115 159.92 4.82983 159.04 4.26528 158.337C3.72509 157.624 2.96286 157.114 2.10016 156.887V160.816C2.10207 161.89 2.52773 162.92 3.2839 163.679C4.04007 164.439 5.0651 164.866 6.13449 164.868H10.2121V158.134C10.231 157.185 10.6195 156.282 11.2942 155.618C11.9689 154.953 12.876 154.581 13.8206 154.582L17.4941 154.574Z" fill="#DCA638"/>
<path fill-rule="evenodd" clip-rule="evenodd" d="M24.0832 164.861V164.897H32.1735V158.25C32.1777 158.05 32.1407 157.852 32.0649 157.667C31.9892 157.482 31.8763 157.316 31.7333 157.177C31.5991 157.035 31.4379 156.923 31.2593 156.846C31.0808 156.768 30.8885 156.728 30.694 156.727H29.1785V158.329C29.1596 159.278 28.771 160.181 28.0964 160.846C27.4217 161.51 26.5146 161.882 25.5699 161.882H24.1265V164.861H24.0832ZM34.3242 164.817H34.7572V166.992H17.0755V164.817H21.9326V154.538H24.0977V159.692H25.6493C26.0232 159.672 26.3758 159.511 26.6381 159.243C26.9065 158.98 27.0663 158.626 27.0855 158.25V154.538H30.694C31.6459 154.555 32.554 154.942 33.2272 155.618C33.9003 156.294 34.2859 157.207 34.3026 158.163L34.3242 164.817Z" fill="#DCA638"/>
<path fill-rule="evenodd" clip-rule="evenodd" d="M40.8918 161.215H43.8869V156.727H42.3352C41.9543 156.748 41.5956 156.914 41.3321 157.191C41.0707 157.464 40.9256 157.828 40.9279 158.206V161.215H40.8918ZM42.3713 154.538H46.0376V166.978H33.9851V164.803H43.8941V163.353H38.7628V158.105C38.7681 157.634 38.8673 157.168 39.0545 156.736C39.2416 156.304 39.513 155.914 39.8526 155.589C40.1813 155.253 40.5749 154.988 41.0092 154.809C41.4435 154.631 41.9094 154.544 42.3785 154.553L42.3713 154.538ZM40.8918 153.27L39.3762 151.747L40.8918 150.254L42.3713 151.747L43.8869 150.254L45.3736 151.747L43.8869 153.27L42.3713 151.776L40.8918 153.27Z" fill="#DCA638"/>
<path fill-rule="evenodd" clip-rule="evenodd" d="M49.2925 148.376H50.7719V149.007H48.6068V148.695C48.5985 148.454 48.6426 148.213 48.7361 147.99C48.8295 147.767 48.9701 147.568 49.1481 147.405C49.3154 147.236 49.5146 147.103 49.734 147.014C49.9535 146.924 50.1887 146.88 50.4255 146.883H50.9957L50.7792 147.521H50.4544C50.1954 147.519 49.9426 147.601 49.7327 147.753C49.5262 147.908 49.3765 148.127 49.3069 148.376H49.2925ZM51.039 164.817H53.7309C53.5333 163.992 53.0626 163.259 52.3958 162.737C51.7251 163.259 51.2475 163.991 51.039 164.817ZM53.8825 151.001L56.0476 150.225V166.978H48.8306V165.89C48.8003 164.41 49.3141 162.97 50.274 161.845C50.1347 161.832 49.9946 161.832 49.8554 161.845H48.7945V151.001L50.8874 150.225V159.779C51.4141 159.855 51.9257 160.014 52.403 160.25C52.9371 160.484 53.4258 160.81 53.8464 161.215L53.8825 151.001Z" fill="#DCA638"/>
<path fill-rule="evenodd" clip-rule="evenodd" d="M60.7533 150.254V166.978H58.6098V151.001L60.7533 150.254Z" fill="#DCA638"/>
<path fill-rule="evenodd" clip-rule="evenodd" d="M74.4583 164.817V166.992H66.9814V164.817H72.091V156.64H70.6116C70.4126 156.636 70.215 156.675 70.0321 156.754C69.8492 156.833 69.685 156.95 69.5507 157.097C69.2763 157.383 69.1258 157.766 69.1321 158.163V162.592L66.967 161.809V158.184C66.9582 157.706 67.0471 157.231 67.2284 156.788C67.4096 156.345 67.6793 155.945 68.0207 155.611C68.3571 155.27 68.7589 155.001 69.2017 154.82C69.6446 154.64 70.1192 154.551 70.5971 154.56H74.2056V164.839L74.4583 164.817Z" fill="#DCA638"/>
<path fill-rule="evenodd" clip-rule="evenodd" d="M86.1788 164.861V167.036H73.8232V164.861H83.8115V156.727H82.296C81.9097 156.73 81.5396 156.883 81.264 157.155C81.1188 157.288 81.0037 157.45 80.9265 157.632C80.8493 157.813 80.8118 158.009 80.8165 158.206V162.621L78.6514 161.845V158.221C78.6645 157.263 79.0488 156.349 79.7228 155.672C80.3967 154.995 81.3069 154.609 82.2599 154.596H85.9262V164.883L86.1788 164.861ZM83.7322 170.842L82.2166 169.312L83.7322 167.826L85.2189 169.312L83.7322 170.842Z" fill="#DCA638"/>
<path fill-rule="evenodd" clip-rule="evenodd" d="M103.637 164.817V166.992H101.407L101.342 165.47C100.217 166.462 98.7681 167.004 97.2712 166.992H96.1958V165.47C95.0761 166.47 93.6239 167.013 92.1254 166.992H91.1006V165.47C89.97 166.462 88.5168 167.003 87.0157 166.992H85.7023V164.817H87.0157C87.5522 164.828 88.0851 164.727 88.5816 164.523C89.078 164.318 89.5275 164.014 89.9026 163.629C90.2908 163.265 90.5992 162.823 90.808 162.333C91.0168 161.842 91.1214 161.313 91.1151 160.78V155.321L93.208 154.538V164.687C94.0671 164.452 94.8269 163.943 95.3731 163.237C95.9318 162.539 96.2327 161.668 96.2247 160.772V155.314L98.3898 154.531V164.68C99.2489 164.445 100.009 163.936 100.555 163.23C101.114 162.532 101.415 161.661 101.407 160.765V155.307L103.514 154.524V164.803L103.637 164.817Z" fill="#DCA638"/>
<path fill-rule="evenodd" clip-rule="evenodd" d="M115.314 164.817H115.545V166.992H108.01V165.542C107.17 166.268 106.146 166.745 105.051 166.92C104.945 166.948 104.836 166.96 104.726 166.956C104.591 166.985 104.453 166.998 104.315 166.992H103.088V164.817H104.063C104.395 164.818 104.727 164.781 105.051 164.709C105.867 164.499 106.594 164.034 107.13 163.382C107.665 162.753 107.975 161.962 108.01 161.135V154.538H111.676C112.152 154.533 112.624 154.626 113.062 154.812C113.501 154.998 113.896 155.272 114.224 155.618C114.568 155.954 114.84 156.357 115.023 156.802C115.207 157.247 115.299 157.725 115.292 158.206V164.817H115.314ZM113.221 164.817V158.163C113.224 157.966 113.185 157.771 113.107 157.591C113.028 157.411 112.912 157.25 112.766 157.119C112.632 156.983 112.472 156.876 112.296 156.802C112.121 156.729 111.932 156.691 111.741 156.691H110.226V164.817H113.221Z" fill="#DCA638"/>
<path fill-rule="evenodd" clip-rule="evenodd" d="M119.76 151.001L121.889 150.225V166.978H114.903V164.825H119.76V151.001Z" fill="#DCA638"/>
<path fill-rule="evenodd" clip-rule="evenodd" d="M126.616 150.254V166.978H124.472V151.001L126.616 150.254Z" fill="#DCA638"/>
<path fill-rule="evenodd" clip-rule="evenodd" d="M134.987 164.861H137.99V156.727H136.474C136.276 156.725 136.08 156.764 135.897 156.841C135.715 156.919 135.55 157.033 135.413 157.177C135.278 157.312 135.171 157.472 135.098 157.649C135.025 157.826 134.987 158.015 134.987 158.206V164.861ZM136.474 154.538H140.083V166.978H132.844V158.163C132.844 157.202 133.224 156.28 133.901 155.6C134.578 154.92 135.495 154.538 136.453 154.538H136.474ZM135.211 153.161L133.768 151.639L135.211 150.116L136.727 151.639L138.206 150.116L139.722 151.639L138.206 153.161L136.727 151.639L135.211 153.161Z" fill="#DCA638"/>
<path fill-rule="evenodd" clip-rule="evenodd" d="M142.869 148.376H144.348V149.007H142.183V148.666C142.178 148.426 142.224 148.188 142.317 147.967C142.41 147.745 142.549 147.547 142.724 147.383C142.889 147.211 143.088 147.076 143.308 146.984C143.528 146.893 143.764 146.849 144.002 146.854H144.507L144.291 147.485H144.002C143.743 147.483 143.49 147.564 143.28 147.717C143.066 147.88 142.915 148.113 142.854 148.376H142.869ZM144.348 150.254V166.978H142.183V151.029L144.348 150.254Z" fill="#DCA638"/>
<path fill-rule="evenodd" clip-rule="evenodd" d="M149.746 164.861V166.978H149.53V167.195C149.53 168.157 149.15 169.078 148.473 169.758C147.796 170.438 146.878 170.82 145.921 170.82H145.294L145.885 168.696C146.085 168.698 146.283 168.66 146.468 168.584C146.652 168.508 146.82 168.396 146.961 168.254C147.102 168.112 147.214 167.944 147.289 167.758C147.365 167.573 147.403 167.374 147.401 167.173V155.459L149.516 154.574V164.861H149.746Z" fill="#DCA638"/>
<path fill-rule="evenodd" clip-rule="evenodd" d="M155.996 161.215H158.991V156.727H157.404C157.023 156.748 156.664 156.914 156.4 157.191C156.139 157.464 155.994 157.828 155.996 158.206V161.215ZM157.44 154.538H161.106V166.978H149.082V164.803H158.991V163.353H153.86V158.105C153.866 157.634 153.964 157.17 154.15 156.738C154.336 156.306 154.605 155.916 154.943 155.589C155.273 155.253 155.668 154.989 156.104 154.81C156.539 154.632 157.006 154.544 157.476 154.553L157.44 154.538ZM155.996 153.27L154.481 151.747L155.996 150.254L157.512 151.747L155.996 153.27ZM159.064 153.27L157.548 151.747L159.064 150.254L160.579 151.747L159.064 153.27Z" fill="#DCA638"/>
<path fill-rule="evenodd" clip-rule="evenodd" d="M170.835 164.817V158.163C170.838 157.967 170.8 157.772 170.723 157.593C170.646 157.413 170.531 157.251 170.387 157.119C170.252 156.982 170.091 156.874 169.914 156.801C169.737 156.727 169.547 156.69 169.355 156.691H167.84V164.817H170.835ZM169.391 154.538C170.346 154.548 171.258 154.932 171.933 155.61C172.607 156.288 172.991 157.204 173 158.163V166.978H165.689V165.492C164.858 166.238 163.831 166.728 162.73 166.905C162.621 166.908 162.512 166.92 162.405 166.941C162.268 166.945 162.13 166.957 161.994 166.978H160.774V164.803H161.741C162.074 164.78 162.405 164.732 162.73 164.658C163.544 164.468 164.273 164.015 164.807 163.37C165.341 162.725 165.651 161.922 165.689 161.084V154.524L169.391 154.538Z" fill="#DCA638"/>
<path fill-rule="evenodd" clip-rule="evenodd" d="M25.6639 71.1652V60.5234H146.622V70.81C125.735 71.187 105.354 80.3499 87.1675 97.632L86.4458 98.2844L85.7602 97.632C67.4722 80.2339 46.9542 71.0565 25.9381 70.81L25.6639 71.1652Z" fill="#F8ECD0"/>
<path fill-rule="evenodd" clip-rule="evenodd" d="M106.451 82.8292H66.5196C53.5289 75.0581 39.8742 70.9841 25.9742 70.8028L25.6639 71.1653V60.451H146.622V70.8101C132.851 71.0566 119.298 75.1233 106.451 82.8292Z" fill="#495DA2"/>
<path d="M146.614 66.6634H25.664V70.0488H146.614V66.6634Z" fill="#344275"/>
<path d="M87.1966 60.8641H85.082V82.8291H87.1966V60.8641Z" fill="#3D5088"/>
<path fill-rule="evenodd" clip-rule="evenodd" d="M48.4554 74.5433V60.8641H50.57V75.2609C49.8699 75.0145 49.1627 74.7753 48.4554 74.5433Z" fill="#3D5088"/>
<path fill-rule="evenodd" clip-rule="evenodd" d="M123.83 74.768V60.8641H121.723V75.5074C122.444 75.2465 123.123 75.0072 123.83 74.768Z" fill="#3D5088"/>
<path fill-rule="evenodd" clip-rule="evenodd" d="M85.082 96.9506V82.3653H87.2038V97.6248L86.4821 98.2772L85.7965 97.6248L85.082 96.9506Z" fill="#DCA638"/>
<path fill-rule="evenodd" clip-rule="evenodd" d="M57.8519 76.3556C57.8519 76.3556 58.1045 71.8539 55.2394 71.8539C52.865 71.8539 52.6196 74.9566 52.6051 76.0149C54.3589 76.6891 56.1126 77.4285 57.8519 78.2332V76.3556Z" fill="#3D5088"/>
<path fill-rule="evenodd" clip-rule="evenodd" d="M66.1513 76.3556C66.1513 76.3556 66.4111 71.8539 63.5459 71.8539C60.6807 71.8539 60.9117 76.3556 60.9117 76.3556V79.7265C62.6726 80.6254 64.4192 81.5823 66.1513 82.6262V76.3556Z" fill="#3D5088"/>
<path fill-rule="evenodd" clip-rule="evenodd" d="M74.4726 76.3556C74.4726 76.3556 74.7324 71.8539 71.8673 71.8539C69.0021 71.8539 69.2331 76.3556 69.2331 76.3556V82.8292H74.4726V76.3556Z" fill="#3D5088"/>
<path fill-rule="evenodd" clip-rule="evenodd" d="M82.7505 76.3556C82.7505 76.3556 83.0103 71.8539 80.1452 71.8539C77.28 71.8539 77.5109 76.3556 77.5109 76.3556V82.8292H82.7505V76.3556Z" fill="#3D5088"/>
<path fill-rule="evenodd" clip-rule="evenodd" d="M65.7907 82.3943H66.1516V82.619L65.7907 82.3943Z" fill="#D5C099"/>
<path fill-rule="evenodd" clip-rule="evenodd" d="M69.226 84.5183V82.3943H74.4728V88.1356C72.7407 86.8597 70.9918 85.654 69.226 84.5183Z" fill="#D5C099"/>
<path fill-rule="evenodd" clip-rule="evenodd" d="M77.54 90.4698V82.3943H82.7867V94.8774C81.0547 93.3599 79.3057 91.8907 77.54 90.4698Z" fill="#D5C099"/>
<path fill-rule="evenodd" clip-rule="evenodd" d="M94.9185 76.3556C94.9185 76.3556 95.1783 71.8539 92.3131 71.8539C89.448 71.8539 89.6789 76.3556 89.6789 76.3556V82.8292H94.9185V76.3556Z" fill="#3D5088"/>
<path fill-rule="evenodd" clip-rule="evenodd" d="M103.232 76.3556C103.232 76.3556 103.492 71.8539 100.627 71.8539C97.762 71.8539 97.9929 76.3556 97.9929 76.3556V82.8292H103.232V76.3556Z" fill="#3D5088"/>
<path fill-rule="evenodd" clip-rule="evenodd" d="M111.539 76.3556C111.539 76.3556 111.799 71.8539 108.934 71.8539C106.069 71.8539 106.3 76.3556 106.3 76.3556V82.8292H106.451C108.13 81.8239 109.814 80.8767 111.503 79.9875L111.539 76.3556Z" fill="#3D5088"/>
<path fill-rule="evenodd" clip-rule="evenodd" d="M119.861 76.2106C119.861 75.4204 119.796 71.8611 117.248 71.8611C114.361 71.8611 114.614 76.3628 114.614 76.3628V78.4723C116.353 77.6532 118.114 76.892 119.861 76.2106Z" fill="#3D5088"/>
<path fill-rule="evenodd" clip-rule="evenodd" d="M89.6789 95.3268V82.3943H94.9257V90.8685C93.1551 92.2797 91.4062 93.7658 89.6789 95.3268Z" fill="#D5C099"/>
<path fill-rule="evenodd" clip-rule="evenodd" d="M97.9857 88.5053V82.3943H103.233V84.8445C101.472 85.9947 99.7226 87.215 97.9857 88.5053Z" fill="#D5C099"/>
<path fill-rule="evenodd" clip-rule="evenodd" d="M106.3 82.9234V82.3943H107.18L106.3 82.9234Z" fill="#D5C099"/>
<path fill-rule="evenodd" clip-rule="evenodd" d="M128.831 73.2813C128.6 72.4915 128.204 71.8321 127.532 71.8321C126.645 71.8321 126.233 72.9335 126.038 74.0422C126.972 73.7813 127.903 73.5277 128.831 73.2813Z" fill="#3D5088"/>
<path fill-rule="evenodd" clip-rule="evenodd" d="M133.494 72.2091C133.399 72.0988 133.282 72.0101 133.15 71.9489C133.018 71.8876 132.874 71.8553 132.729 71.8539C132.508 71.8671 132.295 71.9419 132.114 72.07C131.933 72.198 131.791 72.3742 131.704 72.5788L133.494 72.2091Z" fill="#3D5088"/>
<path fill-rule="evenodd" clip-rule="evenodd" d="M40.6761 72.4556C40.5838 72.2802 40.4471 72.1322 40.2798 72.0266C40.1125 71.921 39.9205 71.8614 39.7231 71.8539C39.4698 71.8537 39.2264 71.9525 39.0444 72.1294C39.5859 72.2309 40.1707 72.3396 40.6761 72.4556Z" fill="#3D5088"/>
<path fill-rule="evenodd" clip-rule="evenodd" d="M46.3766 73.9046C46.1745 72.8466 45.7631 71.8539 44.9332 71.8539C44.2981 71.8539 43.9011 72.4263 43.663 73.1582C44.5651 73.3901 45.4672 73.6364 46.3766 73.9046Z" fill="#3D5088"/>
<path fill-rule="evenodd" clip-rule="evenodd" d="M105.91 83.1767H67.0609C66.5412 82.8578 66.0216 82.5535 65.502 82.2492H107.469C106.949 82.5318 106.43 82.8361 105.91 83.1767Z" fill="#DCA638"/>
<path d="M112.471 42.4077H59.8222V53.4699H112.471V42.4077Z" fill="#495DA2"/>
<path d="M112.471 42.4077H59.8222V43.9294H112.471V42.4077Z" fill="#3D5088"/>
<path d="M86.9583 42.1902H85.3201V53.47H86.9583V42.1902Z" fill="#344275"/>
<path d="M72.3509 42.1902H70.7126V53.47H72.3509V42.1902Z" fill="#344275"/>
<path d="M101.565 42.1902H99.927V53.47H101.565V42.1902Z" fill="#344275"/>
<path fill-rule="evenodd" clip-rule="evenodd" d="M64.2319 47.395C64.2319 47.395 64.3546 45.474 62.9689 45.474C61.5832 45.474 61.6915 47.395 61.6915 47.395V53.4553H64.2319V47.395Z" fill="#3D5088"/>
<path fill-rule="evenodd" clip-rule="evenodd" d="M68.764 47.395C68.764 47.395 68.8867 45.474 67.5011 45.474C66.1154 45.474 66.2236 47.395 66.2236 47.395V53.4553H68.764V47.395Z" fill="#3D5088"/>
<path fill-rule="evenodd" clip-rule="evenodd" d="M92.3636 47.395C92.3636 47.395 92.5008 45.474 90.9202 45.474C89.3397 45.474 89.4768 47.395 89.4768 47.395V53.4553H92.3636V47.395Z" fill="#3D5088"/>
<path fill-rule="evenodd" clip-rule="evenodd" d="M97.4733 47.395C97.4733 47.395 97.6104 45.474 96.0299 45.474C94.4494 45.474 94.5865 47.395 94.5865 47.395V53.4553H97.4733V47.395Z" fill="#3D5088"/>
<path fill-rule="evenodd" clip-rule="evenodd" d="M77.7492 47.395C77.7492 47.395 77.8863 45.474 76.3058 45.474C74.7253 45.474 74.8624 47.395 74.8624 47.395V53.4553H77.7492V47.395Z" fill="#3D5088"/>
<path fill-rule="evenodd" clip-rule="evenodd" d="M82.859 47.395C82.859 47.395 82.9961 45.474 81.4156 45.474C79.835 45.474 79.9721 47.395 79.9721 47.395V53.4553H82.859V47.395Z" fill="#3D5088"/>
<path fill-rule="evenodd" clip-rule="evenodd" d="M106.156 47.395C106.156 47.395 106.285 45.474 104.893 45.474C103.5 45.474 103.622 47.395 103.622 47.395V53.4553H106.156V47.395Z" fill="#3D5088"/>
<path fill-rule="evenodd" clip-rule="evenodd" d="M110.695 47.3952C110.695 47.3952 110.818 45.4814 109.454 45.4814C108.09 45.4814 108.176 47.4024 108.176 47.4024V53.4555H110.717L110.695 47.3952Z" fill="#3D5088"/>
<path fill-rule="evenodd" clip-rule="evenodd" d="M25.6639 60.5235L59.8221 53.4555H112.463L146.622 60.509C146.622 60.509 95.1279 69.4037 25.6639 60.5235Z" fill="#495DA2"/>
<mask id="mask0_1_114" style="mask-type:luminance" maskUnits="userSpaceOnUse" x="25" y="53" width="122" height="12">
<path d="M25.664 60.5235L59.8223 53.4555H112.463L146.622 60.509C146.622 60.509 95.1281 69.4037 25.664 60.5235Z" fill="white"/>
</mask>
<g mask="url(#mask0_1_114)">
<path d="M59.6338 53.2016L49.3331 60.1857L49.6965 60.7265L59.9972 53.7424L59.6338 53.2016Z" fill="#3D5088"/>
<path d="M112.664 53.2314L112.301 53.7723L122.607 60.7489L122.97 60.208L112.664 53.2314Z" fill="#3D5088"/>
</g>
<path d="M86.467 53.47H85.8178V60.5234H86.467V53.47Z" fill="#3D5088"/>
<path d="M146.614 59.6536H25.664V68.4106H146.614V59.6536Z" fill="#3D5088"/>
<path d="M29.0631 63.6117H25.8804V65.1696H29.0631V63.6117Z" fill="#344275"/>
<path d="M32.8521 63.6117H29.6693V65.1696H32.8521V63.6117Z" fill="#344275"/>
<path d="M36.6336 63.6117H33.4509V65.1696H36.6336V63.6117Z" fill="#344275"/>
<path d="M40.4227 63.6117H37.24V65.1696H40.4227V63.6117Z" fill="#344275"/>
<path d="M44.2044 63.6117H41.0217V65.1696H44.2044V63.6117Z" fill="#344275"/>
<path d="M47.9933 63.6117H44.8106V65.1696H47.9933V63.6117Z" fill="#344275"/>
<path d="M51.7751 63.6117H48.5923V65.1696H51.7751V63.6117Z" fill="#344275"/>
<path d="M55.5639 63.6117H52.3812V65.1696H55.5639V63.6117Z" fill="#344275"/>
<path d="M59.3458 63.6117H56.1631V65.1696H59.3458V63.6117Z" fill="#344275"/>
<path d="M63.1276 63.6117H59.9449V65.1696H63.1276V63.6117Z" fill="#344275"/>
<path d="M66.9164 63.6117H63.7337V65.1696H66.9164V63.6117Z" fill="#344275"/>
<path d="M70.6982 63.6117H67.5155V65.1696H70.6982V63.6117Z" fill="#344275"/>
<path d="M74.4872 63.6117H71.3044V65.1696H74.4872V63.6117Z" fill="#344275"/>
<path d="M78.2688 63.6117H75.0861V65.1696H78.2688V63.6117Z" fill="#344275"/>
<path d="M82.0578 63.6117H78.8751V65.1696H82.0578V63.6117Z" fill="#344275"/>
<path d="M85.8396 63.6117H82.6569V65.1696H85.8396V63.6117Z" fill="#344275"/>
<path d="M89.6212 63.6117H86.4385V65.1696H89.6212V63.6117Z" fill="#344275"/>
<path d="M93.4103 63.6117H90.2275V65.1696H93.4103V63.6117Z" fill="#344275"/>
<path d="M97.192 63.6117H94.0093V65.1696H97.192V63.6117Z" fill="#344275"/>
<path d="M100.981 63.6117H97.7982V65.1696H100.981V63.6117Z" fill="#344275"/>
<path d="M104.763 63.6117H101.58V65.1696H104.763V63.6117Z" fill="#344275"/>
<path d="M108.552 63.6117H105.369V65.1696H108.552V63.6117Z" fill="#344275"/>
<path d="M112.333 63.6117H109.15V65.1696H112.333V63.6117Z" fill="#344275"/>
<path d="M116.122 63.6117H112.94V65.1696H116.122V63.6117Z" fill="#344275"/>
<path d="M119.904 63.6117H116.721V65.1696H119.904V63.6117Z" fill="#344275"/>
<path d="M123.686 63.6117H120.503V65.1696H123.686V63.6117Z" fill="#344275"/>
<path d="M127.475 63.6117H124.292V65.1696H127.475V63.6117Z" fill="#344275"/>
<path d="M131.256 63.6117H128.073V65.1696H131.256V63.6117Z" fill="#344275"/>
<path d="M135.046 63.6117H131.863V65.1696H135.046V63.6117Z" fill="#344275"/>
<path d="M138.827 63.6117H135.644V65.1696H138.827V63.6117Z" fill="#344275"/>
<path d="M142.616 63.6117H139.433V65.1696H142.616V63.6117Z" fill="#344275"/>
<path d="M146.398 63.6117H143.215V65.1696H146.398V63.6117Z" fill="#344275"/>
<path d="M146.614 59.175H25.664V60.1315H146.614V59.175Z" fill="#344275"/>
<path fill-rule="evenodd" clip-rule="evenodd" d="M86.1428 16.4847C62.4637 16.4847 59.8222 42.1976 59.8222 42.1976H112.463C112.463 42.1976 109.822 16.4847 86.1428 16.4847Z" fill="#EAB246"/>
<path fill-rule="evenodd" clip-rule="evenodd" d="M90.935 16.8688C90.935 19.3553 89.939 33.4187 70.7273 42.1902H112.471C112.471 42.1902 110.176 20.0585 90.935 16.8688Z" fill="#DCA638"/>
<path d="M86.3025 16.4773H85.9767V42.1829H86.3025V16.4773Z" fill="#F3C975"/>
<path fill-rule="evenodd" clip-rule="evenodd" d="M92.5226 42.1902H92.1978C92.1978 22.8494 86.0922 16.6586 86.0272 16.6006L86.2582 16.3614C86.3159 16.4266 92.5226 22.7117 92.5226 42.1902Z" fill="#F3C975"/>
<path fill-rule="evenodd" clip-rule="evenodd" d="M98.5126 42.1903H98.195C98.195 22.8929 86.1931 16.6876 86.0704 16.6296L86.2147 16.3324C86.3591 16.3976 98.5126 22.6827 98.5126 42.1903Z" fill="#F3C975"/>
<path fill-rule="evenodd" clip-rule="evenodd" d="M104.106 42.1903H103.781C103.781 31.4761 98.9747 25.104 94.9404 21.6389C92.3536 19.398 89.3481 17.6976 86.0995 16.637L86.1861 16.3253C89.4808 17.3996 92.5284 19.1249 95.1496 21.3997C99.2345 24.901 104.106 31.3528 104.106 42.1903Z" fill="#F3C975"/>
<path fill-rule="evenodd" clip-rule="evenodd" d="M108.732 42.1902H108.407C108.407 30.9468 102.352 24.6037 97.2785 21.2618C93.8759 19.0421 90.0926 17.4764 86.1209 16.6441L86.1787 16.3179C90.1868 17.1642 94.0057 18.7443 97.4445 20.9791C102.583 24.3717 108.732 30.7945 108.732 42.1902Z" fill="#F3C975"/>
<path fill-rule="evenodd" clip-rule="evenodd" d="M80.0876 42.1902H79.7628C79.7628 22.7117 85.9694 16.4266 86.0272 16.3614L86.2581 16.6006C86.1932 16.6586 80.0876 22.8712 80.0876 42.1902Z" fill="#F3C975"/>
<path fill-rule="evenodd" clip-rule="evenodd" d="M74.0902 42.1903H73.7726C73.7726 22.6827 85.9478 16.3976 86.0416 16.3324L86.1859 16.6296C86.0921 16.6876 74.0902 22.8929 74.0902 42.1903Z" fill="#F3C975"/>
<path fill-rule="evenodd" clip-rule="evenodd" d="M68.5042 42.1902H68.1794C68.1794 31.3165 73.0509 24.9009 77.1358 21.3923C79.757 19.1176 82.8046 17.3923 86.0994 16.3179L86.186 16.6296C82.9352 17.6938 79.9276 19.3965 77.3379 21.6388C73.3108 25.1112 68.5042 31.4832 68.5042 42.1902Z" fill="#F3C975"/>
<path fill-rule="evenodd" clip-rule="evenodd" d="M63.8852 42.1902H63.5676C63.5676 30.7945 69.7021 24.3717 74.8479 20.9791C78.2866 18.7443 82.1055 17.1642 86.1137 16.3179L86.1714 16.6441C82.1997 17.4764 78.4164 19.0421 75.0139 21.2618C69.9403 24.6037 63.8852 30.983 63.8852 42.1902Z" fill="#F3C975"/>
<path fill-rule="evenodd" clip-rule="evenodd" d="M113.95 42.1901C113.95 42.3631 113.881 42.5289 113.76 42.6512C113.638 42.7735 113.473 42.8422 113.3 42.8422H58.9848C58.8125 42.8422 58.6473 42.7735 58.5255 42.6512C58.4037 42.5289 58.3352 42.3631 58.3352 42.1901C58.3352 42.0171 58.4037 41.8513 58.5255 41.7289C58.6473 41.6066 58.8125 41.5379 58.9848 41.5379H113.3C113.473 41.5379 113.638 41.6066 113.76 41.7289C113.881 41.8513 113.95 42.0171 113.95 42.1901Z" fill="#BE8F2F"/>
<path fill-rule="evenodd" clip-rule="evenodd" d="M87.0593 15.6655H85.2261L85.8757 4.16824H86.4097L87.0593 15.6655Z" fill="#EAB246"/>
<path fill-rule="evenodd" clip-rule="evenodd" d="M88.3294 15.6651C88.3294 15.9022 88.2362 16.1296 88.0699 16.2979C87.9036 16.4662 87.6779 16.5617 87.4418 16.5637H84.8436C84.6211 16.5435 84.4141 16.4405 84.2633 16.2749C84.1126 16.1093 84.029 15.8931 84.029 15.6688C84.029 15.4444 84.1126 15.2282 84.2633 15.0626C84.4141 14.897 84.6211 14.794 84.8436 14.7739H87.4418C87.6772 14.7739 87.903 14.8678 88.0695 15.0349C88.2359 15.2021 88.3294 15.4288 88.3294 15.6651Z" fill="#BE8F2F"/>
<path fill-rule="evenodd" clip-rule="evenodd" d="M86.6261 3.79133C86.1656 3.80141 85.7164 3.64731 85.3583 3.35639C85.0001 3.06546 84.7562 2.65651 84.6697 2.2021C84.5832 1.74768 84.6597 1.27717 84.8858 0.874059C85.1118 0.470943 85.4726 0.161276 85.9044 0C85.4333 0.0394492 84.9839 0.215916 84.6112 0.507817C84.2384 0.799718 83.9583 1.19441 83.8053 1.64362C83.6522 2.09283 83.6329 2.57709 83.7495 3.0372C83.8661 3.49731 84.1136 3.91332 84.4619 4.23436C84.8101 4.5554 85.244 4.76755 85.7103 4.84488C86.1767 4.92222 86.6553 4.86137 87.0878 4.66979C87.5203 4.47821 87.8879 4.1642 88.1455 3.76615C88.4031 3.3681 88.5398 2.90326 88.5386 2.42848C88.5386 2.31974 88.5386 2.21825 88.5386 2.11676C88.4714 2.57928 88.2416 3.00239 87.8908 3.30953C87.54 3.61667 87.0914 3.78758 86.6261 3.79133Z" fill="#BE8F2F"/>
<path fill-rule="evenodd" clip-rule="evenodd" d="M116.801 136.901L96.7878 121.373L85.7818 112.834L83.6672 111.203C66.4751 97.8669 45.3646 90.6365 23.643 90.6438H19.4066L74.8118 121.424L85.8106 127.535L102.655 136.901H116.801Z" fill="url(#paint0_linear_1_114)"/>
<path fill-rule="evenodd" clip-rule="evenodd" d="M152.034 78.1027C129.279 76.8776 106.949 86.0768 87.2036 104.852L86.4819 105.505L85.7963 104.852C66.0577 86.0768 43.7282 76.8849 20.9728 78.1027L16.7148 83.1047C40.9496 80.4442 65.3937 89.7232 86.4819 109.789C107.57 89.7232 132.014 80.4442 156.256 83.1047L152.034 78.1027Z" fill="url(#paint1_linear_1_114)"/>
<path fill-rule="evenodd" clip-rule="evenodd" d="M19.4861 79.8498L16.7148 83.112C40.9496 80.4515 65.3937 89.7305 86.4819 109.796C107.57 89.7305 132.014 80.4515 156.256 83.112L153.478 79.8498C130.21 78.8494 107.39 88.0486 87.1892 106.636L86.4675 107.288L85.7458 106.636C65.5742 88.0486 42.7611 78.8277 19.4861 79.8498Z" fill="url(#paint2_linear_1_114)"/>
<path fill-rule="evenodd" clip-rule="evenodd" d="M54.5463 136.901L75.2448 120.873L86.2508 112.333L88.3582 110.702C105.561 97.3522 126.687 90.1115 148.426 90.1147H152.662L97.2496 120.873L86.2508 126.984L68.4536 136.879L54.5463 136.901Z" fill="url(#paint3_linear_1_114)"/>
<path d="M112.471 52.8175H59.8222V53.774H112.471V52.8175Z" fill="#344275"/>
<defs>
<linearGradient id="paint0_linear_1_114" x1="113.351" y1="134.603" x2="22.6615" y2="84.7217" gradientUnits="userSpaceOnUse">
<stop stop-color="#364A87"/>
<stop offset="1" stop-color="#5573B7"/>
</linearGradient>
<linearGradient id="paint1_linear_1_114" x1="86.4819" y1="85.4679" x2="86.4819" y2="156.01" gradientUnits="userSpaceOnUse">
<stop stop-color="#4359A3"/>
<stop offset="1" stop-color="#364A87"/>
</linearGradient>
<linearGradient id="paint2_linear_1_114" x1="147.336" y1="94.7904" x2="30.189" y2="94.7904" gradientUnits="userSpaceOnUse">
<stop stop-color="#5573B7"/>
<stop offset="0.52" stop-color="#364A87"/>
<stop offset="1" stop-color="#5573B7"/>
</linearGradient>
<linearGradient id="paint3_linear_1_114" x1="142.897" y1="87.128" x2="55.9272" y2="135.882" gradientUnits="userSpaceOnUse">
<stop stop-color="#5573B7"/>
<stop offset="1" stop-color="#364A87"/>
</linearGradient>
</defs>
</svg>
