<svg width="107" height="107" viewBox="0 0 107 107" fill="none" xmlns="http://www.w3.org/2000/svg">
<g filter="url(#filter0_d_35_122)">
<circle cx="53.5" cy="49.5" r="33.5" fill="white"/>
</g>
<path d="M61.2536 44.8482C61.2536 50.8503 56.0425 55.7047 49.6217 55.7047L48.1793 57.4417L47.3263 58.4654C46.5974 59.3339 45.2015 59.1477 44.7208 58.1086L42.6425 53.5333C39.8198 51.5481 37.9897 48.3998 37.9897 44.8482C37.9897 38.8461 43.2009 33.9917 49.6217 33.9917C54.3055 33.9917 58.3534 36.5818 60.168 40.304C60.8659 41.6843 61.2536 43.2197 61.2536 44.8482Z" stroke="#5976B7" stroke-width="2" stroke-linecap="round" stroke-linejoin="round"/>
<path d="M69.0086 50.834C69.0086 54.3856 67.1785 57.534 64.3558 59.5192L62.2776 64.0944C61.7968 65.1335 60.401 65.3352 59.672 64.4511L57.3767 61.6905C53.6234 61.6905 50.2734 60.031 48.1797 57.4409L49.622 55.7039C56.0429 55.7039 61.254 50.8495 61.254 44.8474C61.254 43.219 60.8663 41.6835 60.1683 40.3032C65.2399 41.4664 69.0086 45.7469 69.0086 50.834Z" stroke="#5976B7" stroke-width="2" stroke-linecap="round" stroke-linejoin="round"/>
<path d="M45.7446 44.8481H53.4993" stroke="#5976B7" stroke-width="2" stroke-linecap="round" stroke-linejoin="round"/>
<defs>
<filter id="filter0_d_35_122" x="0" y="0" width="107" height="107" filterUnits="userSpaceOnUse" color-interpolation-filters="sRGB">
<feFlood flood-opacity="0" result="BackgroundImageFix"/>
<feColorMatrix in="SourceAlpha" type="matrix" values="0 0 0 0 0 0 0 0 0 0 0 0 0 0 0 0 0 0 127 0" result="hardAlpha"/>
<feOffset dy="4"/>
<feGaussianBlur stdDeviation="10"/>
<feComposite in2="hardAlpha" operator="out"/>
<feColorMatrix type="matrix" values="0 0 0 0 1 0 0 0 0 1 0 0 0 0 1 0 0 0 0.2 0"/>
<feBlend mode="normal" in2="BackgroundImageFix" result="effect1_dropShadow_35_122"/>
<feBlend mode="normal" in="SourceGraphic" in2="effect1_dropShadow_35_122" result="shape"/>
</filter>
</defs>
</svg>
