<svg width="28" height="26" viewBox="0 0 28 26" fill="none" xmlns="http://www.w3.org/2000/svg">
<g id="vuesax/bold/setting-2" filter="url(#filter0_d_1_3824)">
<g id="vuesax/bold/setting-2_2">
<g id="setting-2">
<path id="Vector" d="M20.7503 7.68336C19.242 7.68336 18.6253 6.61669 19.3753 5.30836C19.8087 4.55003 19.5503 3.58336 18.792 3.15003L17.3503 2.32503C16.692 1.93336 15.842 2.1667 15.4503 2.82503L15.3587 2.98336C14.6087 4.29169 13.3753 4.29169 12.617 2.98336L12.5253 2.82503C12.1503 2.1667 11.3003 1.93336 10.642 2.32503L9.20033 3.15003C8.44199 3.58336 8.18366 4.55836 8.61699 5.31669C9.37533 6.61669 8.75866 7.68336 7.25033 7.68336C6.38366 7.68336 5.66699 8.39169 5.66699 9.26669V10.7334C5.66699 11.6 6.37533 12.3167 7.25033 12.3167C8.75866 12.3167 9.37533 13.3834 8.61699 14.6917C8.18366 15.45 8.44199 16.4167 9.20033 16.85L10.642 17.675C11.3003 18.0667 12.1503 17.8334 12.542 17.175L12.6337 17.0167C13.3837 15.7084 14.617 15.7084 15.3753 17.0167L15.467 17.175C15.8587 17.8334 16.7087 18.0667 17.367 17.675L18.8087 16.85C19.567 16.4167 19.8253 15.4417 19.392 14.6917C18.6337 13.3834 19.2503 12.3167 20.7587 12.3167C21.6253 12.3167 22.342 11.6084 22.342 10.7334V9.26669C22.3337 8.40003 21.6253 7.68336 20.7503 7.68336ZM14.0003 12.7084C12.5087 12.7084 11.292 11.4917 11.292 10C11.292 8.50836 12.5087 7.29169 14.0003 7.29169C15.492 7.29169 16.7087 8.50836 16.7087 10C16.7087 11.4917 15.492 12.7084 14.0003 12.7084Z" fill="#2D8EFF"/>
</g>
</g>
</g>
<defs>
<filter id="filter0_d_1_3824" x="-1" y="-2" width="30" height="30" filterUnits="userSpaceOnUse" color-interpolation-filters="sRGB">
<feFlood flood-opacity="0" result="BackgroundImageFix"/>
<feColorMatrix in="SourceAlpha" type="matrix" values="0 0 0 0 0 0 0 0 0 0 0 0 0 0 0 0 0 0 127 0" result="hardAlpha"/>
<feOffset dy="3"/>
<feGaussianBlur stdDeviation="2.5"/>
<feComposite in2="hardAlpha" operator="out"/>
<feColorMatrix type="matrix" values="0 0 0 0 0.176471 0 0 0 0 0.556863 0 0 0 0 1 0 0 0 0.3 0"/>
<feBlend mode="normal" in2="BackgroundImageFix" result="effect1_dropShadow_1_3824"/>
<feBlend mode="normal" in="SourceGraphic" in2="effect1_dropShadow_1_3824" result="shape"/>
</filter>
</defs>
</svg>
