<svg width="36" height="36" viewBox="0 0 36 36" fill="none" xmlns="http://www.w3.org/2000/svg">
<path fill-rule="evenodd" clip-rule="evenodd" d="M23.6733 11.2983C24.1126 10.8589 24.8249 10.8589 25.2642 11.2983L31.1705 17.2045C31.6098 17.6438 31.6098 18.3562 31.1705 18.7955L25.2642 24.7017C24.8249 25.1411 24.1126 25.1411 23.6733 24.7017C23.2339 24.2624 23.2339 23.5501 23.6733 23.1108L28.784 18L23.6733 12.8892C23.2339 12.4499 23.2339 11.7376 23.6733 11.2983Z" fill="#FD2323"/>
<path fill-rule="evenodd" clip-rule="evenodd" d="M13.5 18C13.5 17.3787 14.0037 16.875 14.625 16.875H30.375C30.9963 16.875 31.5 17.3787 31.5 18C31.5 18.6213 30.9963 19.125 30.375 19.125H14.625C14.0037 19.125 13.5 18.6213 13.5 18Z" fill="#FD2323"/>
<path fill-rule="evenodd" clip-rule="evenodd" d="M5.15901 5.15901C5.58097 4.73705 6.15326 4.5 6.75 4.5H14.625C15.2463 4.5 15.75 5.00368 15.75 5.625C15.75 6.24632 15.2463 6.75 14.625 6.75L6.75 6.75L6.75 29.25H14.625C15.2463 29.25 15.75 29.7537 15.75 30.375C15.75 30.9963 15.2463 31.5 14.625 31.5H6.75C6.15326 31.5 5.58097 31.2629 5.15901 30.841C4.73705 30.419 4.5 29.8467 4.5 29.25V6.75C4.5 6.15326 4.73705 5.58097 5.15901 5.15901Z" fill="#FD2323"/>
</svg>
