<svg width="48" height="48" viewBox="0 0 48 48" fill="none" xmlns="http://www.w3.org/2000/svg">
<circle cx="24" cy="24" r="24" fill="#FFE9CF"/>
<path d="M31.938 20H33C33.5304 20 34.0391 20.2107 34.4142 20.5858C34.7893 20.9609 35 21.4696 35 22V26C35 26.5305 34.7893 27.0392 34.4142 27.4142C34.0391 27.7893 33.5304 28 33 28H31.938C31.6942 29.9333 30.7533 31.7112 29.2917 33C27.8302 34.2888 25.9486 35 24 35V33C25.5913 33 27.1174 32.3679 28.2426 31.2427C29.3679 30.1174 30 28.5913 30 27V21C30 19.4087 29.3679 17.8826 28.2426 16.7574C27.1174 15.6322 25.5913 15 24 15C22.4087 15 20.8826 15.6322 19.7574 16.7574C18.6321 17.8826 18 19.4087 18 21V28H15C14.4696 28 13.9609 27.7893 13.5858 27.4142C13.2107 27.0392 13 26.5305 13 26V22C13 21.4696 13.2107 20.9609 13.5858 20.5858C13.9609 20.2107 14.4696 20 15 20H16.062C16.306 18.0669 17.2471 16.2893 18.7086 15.0007C20.1701 13.7121 22.0516 13.0011 24 13.0011C25.9484 13.0011 27.8299 13.7121 29.2914 15.0007C30.7529 16.2893 31.694 18.0669 31.938 20ZM15 22V26H16V22H15ZM32 22V26H33V22H32ZM19.76 27.785L20.82 26.089C21.7731 26.6861 22.8754 27.0018 24 27C25.1246 27.0018 26.2269 26.6861 27.18 26.089L28.24 27.785C26.9693 28.5812 25.4995 29.0023 24 29C22.5005 29.0023 21.0307 28.5812 19.76 27.785Z" fill="#3D5088"/>
</svg>
