<svg width="28" height="28" viewBox="0 0 28 28" fill="none" xmlns="http://www.w3.org/2000/svg">
<g id="vuesax/bold/trush-square" filter="url(#filter0_d_1_3815)">
<g id="vuesax/bold/trush-square_2">
<g id="trush-square">
<path id="Vector" d="M17.492 2.66669H10.5087C7.47533 2.66669 5.66699 4.47502 5.66699 7.50835V14.4834C5.66699 17.525 7.47533 19.3334 10.5087 19.3334H17.4837C20.517 19.3334 22.3253 17.525 22.3253 14.4917V7.50835C22.3337 4.47502 20.5253 2.66669 17.492 2.66669ZM17.1337 14.1334C17.0837 14.8417 17.0253 15.725 15.4253 15.725H12.5753C10.9837 15.725 10.917 14.8417 10.867 14.1334L10.6087 10.8334C10.592 10.6167 10.667 10.4084 10.8087 10.25C10.9503 10.0917 11.1587 10.0084 11.367 10.0084H16.6337C16.842 10.0084 17.0503 10.1 17.192 10.25C17.3337 10.4084 17.4087 10.6167 17.392 10.825L17.1337 14.1334ZM18.0003 9.18335C17.9837 9.18335 17.967 9.18335 17.9503 9.18335C17.0837 9.10002 16.292 9.04169 15.5337 9.00835C14.517 8.95835 13.5003 8.94169 12.4753 8.98336C11.9753 9.00835 11.467 9.04169 10.967 9.09169L10.0587 9.18335C10.042 9.18335 10.017 9.18335 10.0003 9.18335C9.70866 9.18335 9.45866 8.96669 9.43366 8.66669C9.40033 8.35835 9.63366 8.07502 9.94199 8.05002L10.8503 7.95835C11.2087 7.92502 11.5587 7.90002 11.917 7.88335L11.9837 7.49169C12.0503 7.07502 12.1753 6.27502 13.4253 6.27502H14.5837C15.842 6.27502 15.967 7.10002 16.0253 7.50002L16.092 7.90002C16.717 7.93335 17.3587 7.98335 18.0587 8.05002C18.3753 8.08335 18.6003 8.35835 18.5753 8.67502C18.542 8.96669 18.292 9.18335 18.0003 9.18335Z" fill="#F45050"/>
</g>
</g>
</g>
<defs>
<filter id="filter0_d_1_3815" x="-1" y="-1" width="30" height="30" filterUnits="userSpaceOnUse" color-interpolation-filters="sRGB">
<feFlood flood-opacity="0" result="BackgroundImageFix"/>
<feColorMatrix in="SourceAlpha" type="matrix" values="0 0 0 0 0 0 0 0 0 0 0 0 0 0 0 0 0 0 127 0" result="hardAlpha"/>
<feOffset dy="3"/>
<feGaussianBlur stdDeviation="2.5"/>
<feComposite in2="hardAlpha" operator="out"/>
<feColorMatrix type="matrix" values="0 0 0 0 0.956863 0 0 0 0 0.313726 0 0 0 0 0.313726 0 0 0 0.3 0"/>
<feBlend mode="normal" in2="BackgroundImageFix" result="effect1_dropShadow_1_3815"/>
<feBlend mode="normal" in="SourceGraphic" in2="effect1_dropShadow_1_3815" result="shape"/>
</filter>
</defs>
</svg>
