<svg width="70" height="61" viewBox="0 0 70 61" fill="none" xmlns="http://www.w3.org/2000/svg">
<g id="Upload icon">
<path id="Vector" d="M36.7574 14.8727L36.6656 14.8457C36.1931 14.7062 35.9214 14.2132 36.0634 13.7422C37.4514 9.12759 41.7732 5.74062 46.9145 5.74062C47.407 5.74062 47.8092 6.13626 47.8092 6.62744C47.8092 7.11859 47.407 7.51425 46.9145 7.51425C42.7272 7.51425 38.9703 10.2847 37.7779 14.2484L36.7574 14.8727ZM36.7574 14.8727L36.7613 14.8683M36.7574 14.8727L36.7613 14.8683M36.7613 14.8683C37.2048 14.9487 37.6467 14.6866 37.7779 14.2486L36.7613 14.8683Z" fill="#DDA738" stroke="#F9FFF9" stroke-width="0.3"/>
<path id="Vector_2" d="M57.3407 42.7326H52.8727C52.4616 42.7326 52.128 42.4026 52.128 41.9958C52.128 41.589 52.4615 41.259 52.8727 41.259H57.3407C63.4997 41.259 68.5109 36.3008 68.5109 30.2069C68.5109 24.1131 63.4997 19.1549 57.3407 19.1549H57.2333C57.0173 19.1549 56.812 19.0623 56.6705 18.9007C56.529 18.7391 56.4652 18.5249 56.4961 18.3134C56.5626 17.8544 56.5961 17.3934 56.5961 16.9445C56.5961 11.6632 52.2529 7.36602 46.9152 7.36602C44.8386 7.36602 42.8583 8.00809 41.188 9.22327C40.821 9.4901 40.2997 9.37169 40.0875 8.97223C35.3572 0.0601131 23.0022 -1.13669 16.5968 6.61607C13.8984 9.8822 12.8382 14.1309 13.6878 18.2718C13.7814 18.7292 13.4277 19.1555 12.958 19.1555H12.6596C6.50062 19.1555 1.48943 24.1137 1.48943 30.2075C1.48943 36.3013 6.50062 41.2595 12.6596 41.2595H17.1276C17.5388 41.2595 17.8723 41.5895 17.8723 41.9963C17.8723 42.4032 17.5388 42.7332 17.1276 42.7332H12.6596C5.67925 42.7332 0 37.114 0 30.2074C0 23.4947 5.36483 17.9981 12.075 17.6949C11.4447 13.3988 12.65 9.06535 15.4436 5.6835C22.3015 -2.61762 35.4443 -1.68717 41 7.56918C42.7724 6.46976 44.8005 5.893 46.9149 5.893C53.3819 5.893 58.5064 11.3391 58.058 17.7018C64.7064 18.0707 70 23.5383 70 30.2069C70 37.114 64.3208 42.7326 57.3404 42.7326L57.3407 42.7326Z" fill="#DDA738"/>
<path id="Vector_3" d="M16.1312 41.5804C16.1312 51.8218 24.5516 60.1507 34.8984 60.1507C45.2454 60.1507 53.6656 51.8217 53.6656 41.5804C53.6656 31.3391 45.2453 23.0102 34.8984 23.0102C24.5515 23.0102 16.1312 31.3392 16.1312 41.5804ZM17.921 41.5804C17.921 32.3207 25.5357 24.7841 34.8984 24.7841C44.261 24.7841 51.8759 32.3206 51.8759 41.5804C51.8759 50.8402 44.261 58.3768 34.8984 58.3768C25.5358 58.3768 17.921 50.8403 17.921 41.5804Z" fill="#DDA738" stroke="#F9FFF9" stroke-width="0.3"/>
<g id="arrow">
<path id="Vector_4" d="M34.5453 48.9941C34.5453 49.3763 34.8582 49.6835 35.2405 49.6835C35.6228 49.6835 35.9357 49.3767 35.9357 48.9941V34.969C35.9357 34.5868 35.6229 34.2796 35.2405 34.2796C34.8581 34.2796 34.5453 34.5868 34.5453 34.969V48.9941Z" fill="#DDA738" stroke="#DDA738" stroke-width="0.3"/>
<path id="Vector_5" d="M39.1093 39.7725C39.245 39.9068 39.4232 39.9738 39.6003 39.9739H39.6003C39.7771 39.9738 39.9555 39.9073 40.0914 39.7724C40.3636 39.5029 40.3636 39.0658 40.0913 38.7964L35.7298 34.481C35.4584 34.2125 35.0189 34.2123 34.7478 34.481C34.7477 34.481 34.7477 34.4811 34.7477 34.4811L30.3863 38.7964C30.1139 39.0658 30.1139 39.503 30.3863 39.7725C30.6577 40.041 31.0972 40.0412 31.3684 39.7725C31.3684 39.7724 31.3684 39.7724 31.3684 39.7724L35.2388 35.943L39.1093 39.7725Z" fill="#DDA738" stroke="#DDA738" stroke-width="0.3"/>
</g>
</g>
</svg>
