<svg width="159" height="159" viewBox="0 0 159 159" fill="none" xmlns="http://www.w3.org/2000/svg">
<rect width="159" height="159" rx="10" fill="#F6F8FB"/>
<path d="M104.242 64.36C102.5 63.7137 99.738 63 96.3223 63C87.6027 63 81.4623 67.3497 81.4247 73.5685C81.3522 78.1567 85.821 80.7051 89.1632 82.2349C92.5793 83.7982 93.7406 84.8186 93.7406 86.212C93.7058 88.3521 90.9802 89.3386 88.438 89.3386C84.9127 89.3386 83.0238 88.83 80.1533 87.6393L78.9907 87.1289L77.755 94.2999C79.826 95.1825 83.6414 95.9657 87.6027 96C96.8675 96 102.899 91.7176 102.971 85.0905C103.006 81.454 100.646 78.6675 95.559 76.3906C92.4707 74.929 90.5794 73.9434 90.5794 72.4479C90.6156 71.0883 92.1791 69.6958 95.6652 69.6958C98.5357 69.6276 100.645 70.273 102.243 70.9189L103.041 71.2581L104.242 64.36Z" fill="#3362AB"/>
<path d="M72.2333 95.5239H63.4035L68.9263 63.5791H77.7555L72.2333 95.5239Z" fill="#3362AB"/>
<path fill-rule="evenodd" clip-rule="evenodd" d="M126.877 63.5791H120.047C117.941 63.5791 116.341 64.1563 115.432 66.2295L102.316 95.5235H111.581C111.581 95.5235 113.106 91.5807 113.434 90.7315H124.771C125.024 91.8531 125.825 95.5235 125.825 95.5235H134L126.877 63.5791ZM115.977 84.207C116.705 82.3718 119.503 75.2691 119.503 75.2691C119.488 75.2964 119.602 75.0013 119.771 74.5613L119.773 74.5559L119.775 74.5524C120.028 73.8951 120.405 72.9195 120.664 72.2107L121.281 74.9633C121.281 74.9633 122.954 82.6098 123.317 84.207H115.977Z" fill="#3362AB"/>
<path d="M56.0285 63.5791L47.3813 85.3624L46.4363 80.9445L46.4355 80.9417L43.3481 66.2643C42.8396 64.2241 41.2771 63.6464 39.3516 63.5791H25.1453L25 64.2245C28.4648 65.0534 31.5638 66.2477 34.2792 67.7328L42.1492 95.4901H51.4864L65.3653 63.5791H56.0285Z" fill="#3362AB"/>
</svg>
